<svg width="41" height="24" viewBox="0 0 41 24" fill="none" xmlns="http://www.w3.org/2000/svg">
<path d="M16.6406 21.6687L6.12744 12.3031L16.6406 3.33356V21.6687Z" fill="#FF9C9C"/>
<path d="M13.5449 23.7056C13.2831 23.7056 13.02 23.6155 12.806 23.4312L0.920467 13.1857C0.670863 12.9704 0.527588 12.6577 0.527588 12.3283C0.527588 11.999 0.670863 11.6859 0.920467 11.4709L12.806 1.22726C13.2799 0.819058 13.9945 0.872224 14.4027 1.34575C14.8109 1.81973 14.7577 2.5343 14.2842 2.9425L3.39353 12.3283L14.2842 21.716C14.7577 22.1242 14.8105 22.8392 14.4027 23.3127C14.1788 23.5723 13.8625 23.7056 13.5449 23.7056Z" fill="#1D1D1D"/>
<path d="M39.3393 13.4606H1.66116C1.0358 13.4606 0.528931 12.9537 0.528931 12.3283C0.528931 11.703 1.0358 11.1961 1.66116 11.1961H39.3397C39.9651 11.1961 40.4719 11.703 40.4719 12.3283C40.4719 12.9537 39.9646 13.4606 39.3393 13.4606Z" fill="#1D1D1D"/>
</svg>
