<svg width="41" height="24" viewBox="0 0 41 24" fill="none" xmlns="http://www.w3.org/2000/svg">
<path d="M24.3594 2.33133L34.8726 11.6969L24.3594 20.6664L24.3594 2.33133Z" fill="#FF9C9C"/>
<path d="M27.4551 0.294381C27.7169 0.294381 27.98 0.384491 28.194 0.568766L40.0795 10.8143C40.3291 11.0296 40.4724 11.3423 40.4724 11.6717C40.4724 12.001 40.3291 12.3141 40.0795 12.5291L28.194 22.7727C27.7201 23.1809 27.0055 23.1278 26.5973 22.6543C26.1891 22.1803 26.2423 21.4657 26.7158 21.0575L37.6065 11.6717L26.7158 2.28401C26.2423 1.87581 26.1895 1.16079 26.5973 0.687261C26.8212 0.427745 27.1375 0.294381 27.4551 0.294381Z" fill="#1D1D1D"/>
<path d="M1.66086 10.5394L39.339 10.5394C39.9643 10.5394 40.4712 11.0463 40.4712 11.6717C40.4712 12.297 39.9643 12.8039 39.339 12.8039L1.66041 12.8039C1.03505 12.8039 0.52818 12.297 0.52818 11.6717C0.52818 11.0463 1.0355 10.5394 1.66086 10.5394Z" fill="#1D1D1D"/>
</svg>
