<svg width="74" height="78" viewBox="0 0 74 78" fill="none" xmlns="http://www.w3.org/2000/svg">
<path d="M37.0588 0L32.5574 7.94625L36.8925 9.49894L36.7886 14.9221L41.0728 7.98007L36.9449 6.50112L37.0588 0Z" fill="#1D1D1D"/>
<path d="M56.1487 3.36462L48.9044 8.91786L52.2889 12.0433L50.0772 16.9945L56.73 12.2813L53.5073 9.30481L56.1487 3.36462Z" fill="#1D1D1D"/>
<path d="M73.5625 13.2588L64.7278 15.536L66.6239 19.7374L62.6562 23.4293L70.6186 21.6941L68.8137 17.6932L73.5625 13.2588Z" fill="#1D1D1D"/>
<path d="M17.9677 3.1532L16.9244 12.2289L21.5203 11.962L23.5407 16.9945L24.7762 8.92794L20.3997 9.18175L17.9677 3.1532Z" fill="#1D1D1D"/>
<path d="M0.4375 12.8691L3.0179 21.6322L7.14489 19.588L10.9678 23.4302L8.95778 15.5211L5.02792 17.4674L0.4375 12.8691Z" fill="#1D1D1D"/>
<path d="M63.2095 41.8022C62.7211 42.4043 61.8378 42.4954 61.2373 42.0061C60.6364 41.5167 60.5453 40.6325 61.0337 40.0311C62.1093 38.7063 63.5157 37.8017 65.0751 37.5348C63.8609 34.0708 61.7046 32.5135 59.5322 30.6424C54.5664 26.3671 48.0214 25.2586 42.0133 23.6203C35.8138 21.9296 30.5878 22.4844 26.888 24.1526C24.1921 25.3677 21.1495 27.8262 21.2038 30.9724C21.2166 31.6985 20.4926 32.0891 20.0164 32.6665C19.5627 33.2161 18.6779 32.9931 18.538 32.2942C18.1697 30.4493 18.5457 28.5099 19.6151 26.719C15.5579 27.7592 12.2971 29.7905 10.3225 33.6582C10.6265 33.6847 10.93 33.7301 11.2298 33.7947C11.5945 33.8727 11.8559 34.1662 11.8922 34.5379C11.9291 34.9099 11.756 35.3395 11.387 35.3965C9.62776 35.6683 7.94467 36.7191 6.8545 37.8178C3.71591 40.9793 2.21441 48.6202 6.26036 52.6881C6.2957 52.5863 6.33379 52.4837 6.37462 52.3813C6.87461 51.1293 8.91479 52.8493 8.76215 54.203C8.71431 54.6296 8.7591 55.2511 8.89499 55.6268C9.38127 56.9684 10.8179 57.8736 12.2374 58.1079C14.582 58.4942 17.5469 57.5424 19.5374 56.4796C20.3552 56.0427 21.3537 56.5113 21.5612 57.3992L21.5645 57.398C21.9548 59.0722 22.1263 60.8272 23.1982 61.9744C25.4867 64.4219 29.4376 65.1657 32.961 64.9189C33.8279 64.8579 34.5823 64.1511 35.6737 63.1566C36.4287 62.4683 37.656 62.7861 37.9652 63.7967C38.3138 64.8948 38.8238 65.4631 39.453 65.6382C40.2257 65.8534 41.2842 65.6328 42.5261 65.1315C43.0782 64.9097 43.6876 65.0648 44.0712 65.4743L52.468 74.409L53.1332 74.264L52.4327 70.7293C51.2472 70.3987 50.0452 69.9121 48.8319 69.2567C48.1494 68.8896 47.8935 68.0374 48.2606 67.3533C48.6278 66.6696 49.4788 66.4134 50.1613 66.7811C55.8818 69.8664 61.3381 68.523 65.6817 64.0219C66.5306 63.1422 67.3307 61.5664 67.7609 60.004C68.1985 58.4168 68.2411 57.4574 67.6311 56.632C65.8064 54.1652 61.5883 54.5437 58.7452 55.1159C54.1725 56.036 48.1095 58.656 44.7168 61.1599C44.0949 61.6188 43.2193 61.486 42.761 60.8626C42.3028 60.2398 42.4359 59.3632 43.0578 58.9043C46.8073 56.1369 53.174 53.3752 58.1959 52.3648C60.8814 51.8243 63.4743 51.7028 65.651 52.2539C67.4297 51.3911 68.8675 50.3831 69.6128 49.0514C70.3892 47.6644 70.4489 45.7933 69.3983 43.152C68.1512 40.0204 65.3149 39.2103 63.2095 41.8022ZM36.0305 67.2619C35.1709 67.8579 34.302 68.2083 33.1862 68.2863C28.7944 68.5937 23.8594 67.6065 20.7434 64.2739C19.6471 63.1011 19.1627 61.9366 18.8001 60.4973C15.0451 61.9031 10.4398 62.3019 7.35662 59.2816C6.53031 58.4723 5.99833 57.5948 5.64733 56.5217C3.6309 55.1926 2.16658 53.3292 1.30644 51.065C-0.238323 46.9984 0.360388 41.9793 2.43683 38.2042C3.39569 36.4623 4.77561 34.8176 6.54524 33.8609C7.8295 30.5404 9.89985 27.8564 12.9108 25.9271C15.8144 24.0664 19.2117 23.163 22.6041 22.7391C23.5093 22.0859 24.4865 21.5329 25.5035 21.0746C30.9132 18.6362 37.2708 18.8242 42.8975 20.3583C49.6338 22.1956 56.2364 23.3571 61.7226 28.0806C62.247 28.5319 62.779 28.9752 63.3006 29.4295C64.4481 30.4289 65.5005 31.4569 66.3856 32.7027C67.4172 34.1552 68.1141 35.746 68.586 37.454C70.4672 38.3139 71.7673 40.0064 72.5244 41.9095C74.4494 46.7491 73.8129 50.8493 69.6408 53.8194C70.0848 54.267 70.4766 54.7755 70.7886 55.3142C71.8611 57.1676 71.4053 59.8114 70.7478 61.7315C70.2066 63.3132 69.2758 65.1501 68.1077 66.361C65.9489 68.598 63.3289 70.392 60.325 71.2637C58.9427 71.6653 57.5225 71.8566 56.0896 71.8341L56.7029 74.9276C56.9314 75.9876 56.2535 77.0384 55.1962 77.2697L51.8538 78L51.8361 77.9153C51.3565 77.8772 50.9004 77.6634 50.5601 77.302L42.4886 68.7132C40.1087 69.4014 37.6672 69.2287 36.0305 67.2619Z" fill="#1D1D1D"/>
<path d="M42.998 47.0889C41.6729 47.7372 40.6885 45.7223 42.0136 45.0727C42.7396 44.7166 43.4413 44.4911 44.1177 44.3982C44.6354 40.1246 48.2325 37.6758 52.3988 38.0332C53.6475 34.8185 57.5749 33.8389 60.786 35.558C62.0888 36.2557 61.0306 38.2343 59.7311 37.5387C58.2123 36.7252 56.3144 36.7328 55.1541 37.8449C53.858 39.0868 54.1721 41.0137 55.0207 42.6066C55.7148 43.9107 53.737 44.9667 53.043 43.6632C52.3949 42.4463 52.0853 41.2998 52.043 40.2593C49.1841 40.0609 46.7725 41.6252 46.3563 44.6014C47.5071 44.9935 48.5147 45.8326 49.3776 47.1218C50.1993 48.3493 48.3364 49.6004 47.5144 48.3713C46.3081 46.5694 44.9367 46.1373 42.998 47.0889ZM58.6946 61.4427L58.69 61.4521C59.6998 62.5767 60.183 64.0438 59.5614 65.3872C58.9432 66.7311 56.9046 65.7881 57.5237 64.4463C58.0825 63.2346 54.8418 60.5213 53.4226 62.5362C52.5704 63.7461 50.7386 62.4497 51.5884 61.2431C52.9528 59.3068 55.1011 59.2364 56.8637 60.085C57.0091 59.8437 57.212 59.5844 57.4826 59.3096C59.2961 57.468 62.7951 57.0491 64.7381 58.9659C65.7914 60.0052 64.2158 61.6048 63.1647 60.5676C61.9721 59.3906 59.3028 60.0515 58.6946 61.4427ZM28.7676 34.1113C26.5306 32.5589 21.5358 35.5738 22.9654 38.6365C23.5903 39.9756 21.5596 40.9256 20.9347 39.5877C18.4612 34.288 26.1674 29.395 30.1238 32.3118C30.4714 31.987 30.8392 31.7091 31.209 31.4626C30.8105 30.1013 29.791 29.2981 28.3355 28.8046C26.9358 28.3302 27.6558 26.1995 29.0564 26.6745C31.0232 27.3414 32.496 28.5297 33.1941 30.3362C34.2949 29.832 35.4704 29.622 36.6346 29.7768C36.7212 28.1096 37.6194 26.6151 38.6855 25.4155C39.6687 24.3092 41.3478 25.8046 40.3643 26.9118C39.3796 28.0203 38.5045 29.4645 39.0417 30.9803L39.0389 30.9815C39.371 31.9255 38.3832 32.81 37.4813 32.3581C36.2276 31.7299 34.9467 31.9142 33.7099 32.5955C32.5049 33.2603 30.9726 34.1055 30.4556 35.9528C30.0567 37.3778 27.8941 36.7712 28.2932 35.3453C28.4209 34.891 28.5811 34.4821 28.7676 34.1113ZM11.9601 40.6401C11.3011 42.1557 8.34591 40.947 10.749 38.5067C12.5625 36.6658 16.0612 36.2468 18.0042 38.1633C19.0575 39.202 17.482 40.8022 16.4308 39.7654C15.2379 38.5881 12.5689 39.2486 11.9601 40.6401ZM8.86144 45.4222C9.92053 44.3905 11.4851 46.0033 10.4263 47.0331C9.4699 47.9633 11.5214 51.6607 13.5683 50.2911C14.7974 49.4688 16.042 51.3371 14.8166 52.157C10.5238 55.0299 5.92791 48.2701 8.86144 45.4222ZM14.507 46.3378C13.6743 45.116 15.5274 43.8479 16.3619 45.0709C17.6087 46.8981 21.343 46.6044 23.559 46.4655C24.4374 44.9058 25.5836 42.7077 25.3453 41.0429C25.136 39.5792 27.3593 39.2587 27.5693 40.7264C27.77 42.1316 27.3852 43.6197 26.7819 45.0453C27.735 44.8564 28.7761 44.8875 29.8773 45.2705C31.5025 43.1166 33.5716 42.0435 36.0853 42.5274C36.5944 41.8616 37.1678 41.273 37.7943 40.748C37.0865 38.7797 36.3503 37.3891 33.8702 37.4863C32.3946 37.5442 32.3068 35.2993 33.7821 35.2417C37.1136 35.111 38.6876 36.8553 39.6967 39.4232C40.3585 39.0387 41.0569 38.6987 41.782 38.3909C42.0736 37.7234 42.6037 37.2179 43.1991 36.6493L44.1714 35.6472C44.9575 34.7481 45.8551 33.7213 45.4349 31.0574C45.0419 30.7433 44.661 30.3828 44.2917 29.9779C43.2966 28.8847 44.9559 27.3683 45.9529 28.4639C48.0214 30.7363 50.2276 30.9508 53.0378 28.9487C53.5423 28.5891 54.2431 28.7071 54.6026 29.2128C54.9619 29.7186 54.8437 30.4197 54.3388 30.7798C52.1234 32.3578 49.9272 32.9495 47.8066 32.327C47.8441 34.9218 46.7457 36.1131 45.7478 37.2593C45.2046 37.8833 43.874 38.9942 43.803 39.4144L43.8009 39.4138C43.7381 39.7885 43.487 40.1225 43.1086 40.2727C40.9706 41.1219 38.7699 42.4031 37.5146 44.3896C37.2544 44.818 36.7282 45.0325 36.2269 44.8783C35.333 44.6011 34.4829 44.5779 33.6938 44.9045C32.8629 45.2482 32.0479 45.9844 31.2517 47.2174C30.9565 47.7406 30.2986 47.9405 29.7606 47.6632C27.4937 46.4929 25.4316 47.665 24.0428 49.3283C22.977 50.6046 22.1446 51.9642 21.7296 53.5351C21.4566 54.5686 19.2248 54.2743 19.5343 53.0537C19.9286 51.5013 20.6461 50.0952 21.5937 48.8064C18.9783 48.8554 16.0469 48.5907 14.507 46.3378ZM45.9788 52.1183C45.406 51.8852 45.1305 51.2308 45.3633 50.657C45.5964 50.0836 46.2496 49.8076 46.8225 50.0407C47.6031 50.3597 48.2222 50.8149 48.71 51.3496C49.1268 51.806 49.097 52.5181 48.6427 52.9376C48.1896 53.356 47.4806 53.331 47.0589 52.8804C47.0543 52.8755 47.0498 52.8703 47.0449 52.8648C46.7643 52.5574 46.4142 52.2966 45.9788 52.1183ZM57.0289 43.4941C56.0456 42.3875 57.7233 40.8909 58.7077 41.9975C59.9237 43.3628 60.6544 44.7379 60.7092 46.1233C61.5023 46.2778 62.1912 46.5358 62.7701 46.9036C63.891 45.1407 65.5586 44.1712 67.6993 44.2976C69.1749 44.3844 69.043 46.6288 67.5674 46.5419C65.9995 46.4496 65.0351 47.2829 64.3447 48.676C64.3901 48.7713 64.4325 48.8691 64.4718 48.9685C64.5449 49.1549 64.5193 49.3499 64.4002 49.5108C64.0458 49.9895 62.4386 49.683 62.0248 49.2098C61.6385 48.7689 61.044 48.4673 60.1931 48.3152C59.7089 49.208 58.8728 50.0525 57.6267 50.8396C56.3778 51.6275 55.1816 49.7271 56.4314 48.938C59.0045 47.3149 59.0575 45.7726 57.0289 43.4941ZM27.5071 53.2981C26.9946 52.9483 26.8633 52.2487 27.2125 51.7353C27.5616 51.2222 28.2603 51.0906 28.7725 51.4404C31.3178 53.1847 34.0509 53.6247 35.794 50.6275C35.2029 50.4755 34.5713 50.431 33.9153 50.5266C32.4513 50.7414 32.1262 48.5142 33.5902 48.2997C37.3177 47.7537 40.6988 50.3188 41.8128 53.5711C42.2933 54.9732 40.1659 55.7039 39.6858 54.3017C39.3494 53.3194 38.6852 52.3642 37.7988 51.6515C36.4908 53.9525 34.5109 55.2024 32.0606 55.0497C31.9836 55.6326 31.8535 56.1938 31.6691 56.7353C34.4975 56.5546 36.8957 57.5223 37.8848 59.3705C38.5474 60.6081 36.3165 61.017 35.7635 60.2197C35.3732 59.6563 34.6548 59.266 33.6036 59.0713C32.6082 58.8867 31.4595 58.933 30.334 59.2029C29.8581 59.8175 29.2883 60.3912 28.6226 60.9223C28.1369 61.3089 27.4309 61.2279 27.0449 60.7416C26.6585 60.2559 26.7396 59.5478 27.225 59.1615C28.7216 57.9689 29.6603 56.4766 29.8614 54.5567C29.0391 54.245 28.26 53.8154 27.5071 53.2981Z" fill="#1D1D1D"/>
</svg>
