<svg width="113" height="113" viewBox="0 0 113 113" fill="none" xmlns="http://www.w3.org/2000/svg">
<path fill-rule="evenodd" clip-rule="evenodd" d="M12.8395 66.63L12.8334 66.593C12.8248 66.5388 12.8204 66.4852 12.8204 66.4298L12.8211 50.0912C12.8211 50.0431 12.8248 49.9939 12.8315 49.9452L12.8383 49.9002C12.9843 48.9091 13.7931 47.2538 15.3738 47.0234L15.4946 47.0111L15.5734 47.0062L15.6387 47.0037L30.2149 46.8263C37.6773 46.7955 41.5033 47.9395 46.2257 50.2581C46.477 50.3813 46.7308 50.507 47.0056 50.6438C48.4347 51.4162 50.1639 52.1351 52.0335 52.7333L54.1224 51.8271C54.6522 51.5967 55.2682 51.8468 55.4887 52.3803L55.9187 53.4214L56.8242 52.8645C57.0614 52.7185 57.3472 52.6741 57.617 52.7419L59.7047 53.2637C60.0343 53.3456 60.3022 53.5852 60.4218 53.9031L60.5135 54.1477C60.5394 54.2179 60.5579 54.2918 60.5684 54.3651C60.9343 54.3848 61.2959 54.3965 61.6544 54.4002L63.3565 54.3343L63.4526 54.2185C64.0482 53.5403 64.9248 53.0801 66.2807 53.2125L68.8421 53.4688C69.3706 53.5218 69.7729 53.9672 69.7722 54.4976L69.7722 62.0253C69.7729 62.5556 69.3706 63.001 68.8421 63.054L66.2801 63.3096C64.9254 63.4421 64.0489 62.9819 63.4532 62.3049L63.3589 62.191L61.4055 62.1263C60.6947 62.1411 59.9678 62.1866 59.2322 62.2618L60.2856 65.4195C60.4519 65.9197 60.2154 66.4655 59.7367 66.6854L56.9782 67.9532C56.7109 68.0764 56.4035 68.0794 56.1331 67.9618L53.4244 66.7809L51.9984 66.7803C51.5973 66.7809 51.2314 66.548 51.0614 66.1846L50.3832 64.7314L48.6848 65.1805C48.1335 65.3265 47.5674 64.9969 47.4214 64.4456C47.2754 63.8942 47.605 63.3281 48.1563 63.1821L50.69 62.5113C50.9314 62.4472 51.1778 62.4743 51.3922 62.5741L51.8912 63.0731L52.6569 64.7135L53.6394 64.7142C53.7817 64.7135 53.9222 64.7431 54.0528 64.7998L56.5353 65.8815L58.031 65.194L56.9819 62.048C56.9234 61.8712 56.9129 61.6809 56.953 61.4992L58.3661 55.0606L57.5376 54.853L55.9704 55.8177C55.429 56.1509 54.7162 55.9199 54.4735 55.3323L53.9807 54.1421L52.8004 54.6546L50.8655 57.7908C50.5661 58.2762 49.9286 58.4271 49.4431 58.1277C48.9577 57.8283 48.8068 57.1908 49.1062 56.7053L50.5218 54.4101C48.8684 53.836 47.345 53.1774 46.0532 52.4795C45.808 52.3575 45.5616 52.2343 45.3165 52.1148C44.1011 51.5191 42.9553 51.0054 41.7867 50.5748L40.6483 52.3403C37.8276 51.9047 34.6853 51.6922 30.2179 51.7008L28.7703 51.7107L28.7709 50.8267L27.5487 50.8267L27.5481 51.7181L26.2465 51.7273L26.1461 51.7279L26.1467 50.8267L21.6627 50.8261L21.6621 51.7569L20.3297 51.7649L20.3303 50.8267L19.1093 50.8267L19.1087 51.7723L17.0346 51.7852C16.4198 51.7889 15.9245 52.2904 15.9289 52.9045C15.9326 53.5193 16.434 54.0146 17.0482 54.0103L19.1087 53.9973L19.1093 65.2747L20.3303 65.2747L20.3297 53.99L21.6621 53.9819L21.6621 65.2747L26.1467 65.2747L26.1461 53.9542L26.2613 53.9536L27.5481 53.9444L27.5487 65.2747L28.7709 65.2747L28.7703 53.937L30.2278 53.9271C34.0563 53.9191 36.861 54.0762 39.3208 54.3984L36.8315 58.2614L41.7873 65.9474C42.9559 65.5168 44.1023 65.0037 45.3177 64.408C45.8302 64.1567 46.4499 64.3686 46.7006 64.8805C46.952 65.393 46.7401 66.0127 46.2282 66.2634C41.5039 68.5815 37.6773 69.7261 30.2149 69.6965L15.635 69.5191L15.5519 69.516L15.4693 69.5098L15.3677 69.4969C13.7987 69.2708 12.9831 67.5965 12.8395 66.63ZM63.9361 60.1452C64.1413 60.1643 64.3359 60.2444 64.4948 60.3749L64.5805 60.4446L64.7252 60.5893C64.8577 60.7513 64.8478 60.76 65.0055 60.9386C65.1638 61.1191 65.3887 61.3193 66.0768 61.2522L67.7055 61.0895L67.7055 55.4333L66.0774 55.27C65.3881 55.2029 65.1632 55.4031 65.0049 55.5848C65.0271 55.5589 64.7573 55.9027 64.6599 56.0062C64.6187 56.0511 64.5731 56.0918 64.5238 56.1275L64.4567 56.1774C64.3045 56.2914 64.124 56.3598 63.9355 56.377C62.738 56.4879 61.4758 56.4947 60.1858 56.4134L59.3604 60.1723C60.9318 60.03 62.4799 60.0097 63.9361 60.1452ZM71.048 61.6981V55.3113C74.6308 54.6879 77.1231 50.7935 80.5254 49.6507C82.8355 48.8746 85.2638 48.0343 87.0681 46.3791C88.8231 44.6549 90.8042 44.8791 90.8849 46.145C90.9829 47.6881 86.433 50.884 82.6531 50.8717C81.0213 50.8661 78.0706 52.5306 78.6811 53.7534C79.018 54.4292 84.0194 53.9431 85.9001 52.5318C88.4418 50.8514 89.0233 52.57 89.0936 53.7011C89.1533 54.6626 88.1769 55.6477 86.5229 55.0249L77.0985 56.3487C78.3835 58.2571 81.978 58.3242 84.9127 57.1809C85.658 56.8902 87.2005 59.438 84.134 59.5168C82.5693 58.9218 81.6447 58.4037 81.4075 59.284C80.5802 62.3524 86.51 63.4834 90.0281 63.3595L93.0662 63.1255C95.2389 63.2062 97.0438 63.9651 96.3373 64.9944C94.804 67.2287 89.1182 67.6181 84.9127 65.5932C82.6932 64.5244 80.0424 63.9374 77.7213 63.8265C77.4459 64.8817 78.9355 65.3634 79.7468 65.8519C83.1983 67.9298 79.0698 69.6361 78.5782 68.733C77.1232 66.0608 74.5002 62.5298 71.048 61.6981ZM82.2318 68.8076C82.8385 68.2008 83.8254 68.2008 84.4322 68.8076C85.0389 69.4144 85.0389 70.4012 84.4322 71.008C83.8254 71.6148 82.8385 71.6148 82.2318 71.008C81.625 70.4012 81.625 69.4144 82.2318 68.8076ZM82.8108 66.0466C83.0548 65.8027 83.4527 65.8027 83.6966 66.0466C83.9412 66.2912 83.9412 66.6891 83.6973 66.933C83.4527 67.1776 83.0548 67.1776 82.8102 66.933C82.5663 66.6891 82.5663 66.2912 82.8108 66.0466ZM74.5156 50.8199C74.8193 50.5162 75.3121 50.5162 75.6158 50.8199C75.9195 51.1236 75.9195 51.6165 75.6158 51.9201C75.3121 52.2238 74.8193 52.2238 74.5156 51.9201C74.2119 51.6165 74.2119 51.1236 74.5156 50.8199ZM92.4693 67.9162C92.7133 67.6723 93.1112 67.6723 93.3551 67.9162C93.5997 68.1608 93.5997 68.5587 93.3558 68.8027C93.1112 69.0472 92.7133 69.0472 92.4687 68.8027C92.2248 68.5587 92.2248 68.1608 92.4693 67.9162ZM86.903 58.7216C87.1272 58.4973 87.4919 58.4973 87.7161 58.7216C87.9404 58.9458 87.9404 59.3105 87.7161 59.5347C87.4919 59.7589 87.1272 59.7589 86.903 59.5347C86.6788 59.3105 86.6788 58.9458 86.903 58.7216ZM88.7246 57.5801C88.934 57.3706 89.2753 57.3706 89.4847 57.5801C89.6942 57.7895 89.6942 58.1308 89.4847 58.3403C89.2753 58.5497 88.934 58.5497 88.7246 58.3403C88.5151 58.1308 88.5151 57.7895 88.7246 57.5801ZM90.3188 58.6249C90.6225 58.3212 91.1153 58.3212 91.419 58.6249C91.7227 58.9286 91.7227 59.4214 91.419 59.7251C91.1153 60.0288 90.6225 60.0288 90.3188 59.7251C90.0151 59.4214 90.0151 58.9285 90.3188 58.6249ZM93.604 58.8411C94.0174 58.4277 94.6888 58.4277 95.1022 58.8411C95.5155 59.2544 95.5155 59.9259 95.1022 60.3392C94.6888 60.7526 94.0174 60.7526 93.604 60.3392C93.1907 59.9259 93.1907 59.2544 93.604 58.8411ZM91.8539 56.3912C92.2673 55.9778 92.9387 55.9778 93.3521 56.3912C93.7654 56.8045 93.7654 57.476 93.3521 57.8893C92.9387 58.3027 92.2673 58.3027 91.8539 57.8893C91.4406 57.476 91.4406 56.8045 91.8539 56.3912ZM96.9311 59.2101C97.1406 59.0006 97.4818 59.0006 97.6913 59.2101C97.9007 59.4195 97.9007 59.7608 97.6913 59.9702C97.4818 60.1797 97.1406 60.1797 96.9311 59.9702C96.7217 59.7608 96.7217 59.4195 96.9311 59.2101ZM96.0748 55.8134C96.6933 55.1949 97.6993 55.1943 98.3184 55.8134C98.9369 56.4318 98.9369 57.4384 98.3184 58.0569C97.6993 58.676 96.6933 58.6754 96.0749 58.0569C95.4558 57.4378 95.4558 56.4325 96.0748 55.8134ZM99.134 60.362V55.939C99.1334 55.368 99.596 54.9054 100.168 54.9054L104.353 54.906C104.539 53.9037 105.418 53.1442 106.474 53.1442L107.077 53.1436C108.268 53.1436 109.235 54.1101 109.234 55.3008V61.0002C109.235 62.191 108.268 63.1575 107.077 63.1569L106.474 63.1575C105.419 63.1563 104.539 62.3973 104.353 61.3951H100.167C99.596 61.3957 99.1334 60.9331 99.134 60.362ZM101.201 59.329L104.318 59.329V56.9733L101.201 56.9733V59.329ZM106.476 61.0902L107.077 61.0908C107.126 61.0902 107.167 61.0489 107.168 61.0002L107.168 55.3008L107.078 55.2109L106.475 55.2115C106.426 55.2115 106.385 55.2522 106.384 55.3008L106.384 61.0002C106.385 61.0489 106.425 61.0902 106.476 61.0902ZM91.4855 43.1777C91.9611 42.7021 92.7336 42.7021 93.2085 43.177C93.6841 43.6526 93.6841 44.4251 93.2085 44.9007C92.7336 45.3756 91.9611 45.3756 91.4855 44.9C91.0106 44.4251 91.0106 43.6526 91.4855 43.1777Z" fill="#FF0000"/>
<path fill-rule="evenodd" clip-rule="evenodd" d="M9.83952 63.63L9.83336 63.593C9.82473 63.5388 9.82042 63.4852 9.82042 63.4298L9.82103 47.0912C9.82103 47.0431 9.82473 46.9939 9.83151 46.9452L9.83828 46.9002C9.98428 45.9091 10.7931 44.2538 12.3738 44.0234L12.4945 44.0111L12.5734 44.0062L12.6387 44.0037L27.2148 43.8263C34.6772 43.7955 38.5033 44.9395 43.2257 47.2581C43.477 47.3813 43.7308 47.507 44.0055 47.6438C44.8688 48.1104 45.8415 48.5574 46.8885 48.9701C48.2541 49.5084 49.7757 49.4113 51.1224 48.8271C51.6521 48.5967 52.2681 48.8468 52.4887 49.3803L52.5128 49.4388C52.7257 49.9542 53.3492 50.1566 53.8242 49.8645C54.0614 49.7185 54.3472 49.6741 54.617 49.7419L56.7047 50.2637C57.0343 50.3456 57.3022 50.5852 57.4217 50.9031L57.5135 51.1477C57.5587 51.2702 57.6623 51.3703 57.7927 51.3762C58.0823 51.3893 58.3693 51.3973 58.6544 51.4002L60.206 51.3401C60.3018 51.3364 60.3914 51.2922 60.4525 51.2185C61.0482 50.5403 61.9248 50.0801 63.2806 50.2125L65.842 50.4688C66.3706 50.5218 66.7728 50.9672 66.7722 51.4976L66.7722 59.0253C66.7728 59.5556 66.3706 60.001 65.842 60.054L63.28 60.3096C61.9254 60.4421 61.0488 59.9819 60.4531 59.3049C60.3932 59.2325 60.3051 59.1892 60.2111 59.1861L58.4055 59.1263C57.2886 59.1495 56.5679 60.2683 56.9215 61.328L57.2856 62.4195C57.4519 62.9197 57.2154 63.4655 56.7367 63.6854L53.9782 64.9532C53.7109 65.0764 53.4035 65.0794 53.133 64.9618L51.7317 64.3508C50.8694 63.9749 49.939 63.7807 48.9983 63.7803C48.5973 63.7809 48.2314 63.548 48.0614 63.1846C47.6688 62.3434 46.7302 61.9041 45.8328 62.1414L45.6848 62.1805C45.1335 62.3265 44.5673 61.9969 44.4214 61.4456C44.2754 60.8942 44.6049 60.3281 45.1563 60.1821L47.6899 59.5113C47.8113 59.4791 47.9338 59.4699 48.053 59.4814C48.2856 59.5039 48.4768 59.6587 48.642 59.824C48.8068 59.9888 48.9416 60.1811 49.0402 60.3923L49.2413 60.8232C49.4948 61.3664 50.0399 61.7138 50.6394 61.7142C50.7817 61.7135 50.9222 61.7431 51.0528 61.7998L53.0328 62.6625C53.3525 62.8019 53.7165 62.7982 54.0334 62.6526C54.6011 62.3916 54.8813 61.7452 54.6837 61.1525L53.9819 59.048C53.9234 58.8712 53.9129 58.6809 53.953 58.4992L55.2384 52.6425C55.3095 52.3184 55.1101 51.9964 54.7882 51.9158C54.6279 51.8756 54.4582 51.9018 54.3175 51.9885L52.9704 52.8177C52.4289 53.1509 51.7162 52.9199 51.4735 52.3323L51.3569 52.0506C51.1502 51.5514 50.5743 51.3186 50.0787 51.5338C49.8975 51.6125 49.7448 51.7448 49.6411 51.9129L47.8655 54.7908C47.5661 55.2762 46.9285 55.4271 46.4431 55.1277C45.9577 54.8283 45.8068 54.1908 46.1062 53.7053C46.8327 52.5273 46.2781 50.985 45.0103 50.4296C44.3141 50.1247 43.6582 49.8064 43.0532 49.4795C42.808 49.3575 42.5616 49.2343 42.3164 49.1148C41.477 48.7034 40.6708 48.331 39.8673 47.9982C39.2406 47.7386 38.5253 47.9802 38.1577 48.5503C37.8478 49.0308 37.2849 49.2821 36.7182 49.2065C34.1306 48.8613 31.2009 48.6932 27.2179 48.7008L26.2138 48.7077C25.9694 48.7093 25.7704 48.5116 25.7706 48.2672C25.7708 48.024 25.5736 47.8267 25.3304 47.8267L24.996 47.8267C24.7489 47.8267 24.5486 48.0269 24.5484 48.274C24.5482 48.5198 24.3498 48.7195 24.104 48.7212L23.2465 48.7273C23.1911 48.7277 23.1461 48.6829 23.1461 48.6275L23.1464 48.2759C23.1465 48.0279 22.9455 47.8267 22.6975 47.8267L19.1295 47.8262C18.8717 47.8261 18.6626 48.0351 18.6624 48.2929C18.6622 48.5497 18.4549 48.7581 18.1981 48.7597L17.8001 48.7621C17.5408 48.7636 17.3298 48.5537 17.3299 48.2944C17.3301 48.0362 17.1208 47.8267 16.8626 47.8267H16.5836C16.3216 47.8267 16.1092 48.039 16.109 48.301C16.1088 48.5618 15.8982 48.7736 15.6374 48.7752L14.0346 48.7852C13.4198 48.7889 12.9245 49.2904 12.9288 49.9045C12.9325 50.5193 13.434 51.0146 14.0481 51.0103C15.1841 51.0032 16.1087 51.922 16.1088 53.058L16.1093 61.6643C16.1093 62.0014 16.3826 62.2747 16.7198 62.2747C17.0569 62.2747 17.3302 62.0014 17.3302 61.6642L17.3297 51.6522C17.3297 51.2858 17.6255 50.9882 17.9919 50.986C18.3614 50.9838 18.6621 51.2827 18.6621 51.6522V60.0325C18.6621 61.2708 19.666 62.2747 20.9043 62.2747C22.1427 62.2747 23.1466 61.2708 23.1465 60.0324L23.1461 51.0694C23.1461 51.0057 23.1975 50.954 23.2612 50.9536C23.9705 50.9485 24.5481 51.522 24.5482 52.2313L24.5487 61.6637C24.5487 62.0012 24.8223 62.2747 25.1598 62.2747C25.4973 62.2747 25.7709 62.0011 25.7709 61.6636L25.7704 52.3945C25.7703 51.588 26.4212 50.9326 27.2278 50.9271C29.4858 50.9224 31.3876 50.9751 33.0727 51.0852C34.5859 51.1841 35.3742 52.8673 34.5528 54.142C34.1136 54.8236 34.1137 55.6991 34.5531 56.3806L36.6993 59.7091C37.9195 61.6016 40.2956 62.399 42.3177 61.408C42.8302 61.1567 43.4499 61.3686 43.7006 61.8805C43.9519 62.393 43.74 63.0127 43.2281 63.2634C38.5039 65.5815 34.6772 66.7261 27.2148 66.6965L12.635 66.5191L12.5518 66.516L12.4693 66.5098L12.3676 66.4969C10.7987 66.2708 9.98305 64.5965 9.83952 63.63ZM60.9361 57.1452C61.1412 57.1643 61.3359 57.2444 61.4948 57.3749L61.5804 57.4446L61.7252 57.5893C61.8576 57.7513 61.8478 57.76 62.0055 57.9386C62.1638 58.1191 62.3887 58.3193 63.0767 58.2522C64.0013 58.1598 64.7055 57.3819 64.7055 56.4527L64.7055 54.0696C64.7055 53.1406 64.0017 52.3627 63.0774 52.27C62.388 52.2029 62.1632 52.4031 62.0049 52.5848C62.0271 52.5589 61.7572 52.9027 61.6599 53.0062C61.6186 53.0511 61.5731 53.0918 61.5238 53.1275L61.4566 53.1774C61.3045 53.2914 61.124 53.3598 60.9355 53.377C60.2015 53.445 59.4433 53.4738 58.6692 53.4673C57.8151 53.46 57.0506 54.029 56.8674 54.8634C56.6163 56.0068 57.55 57.0621 58.7207 57.0543C59.476 57.0494 60.2172 57.0783 60.9361 57.1452ZM70.8242 60.009C69.3476 58.9589 68.048 57.4212 68.048 55.6093C68.048 53.7029 69.4638 52.0652 71.0546 51.0148C73.2214 49.5841 75.152 47.4479 77.5254 46.6507C79.8354 45.8746 82.2638 45.0343 84.0681 43.3791C85.8231 41.6549 87.8042 41.8791 87.8849 43.145C87.9828 44.6881 83.433 47.884 79.6531 47.8717C78.0213 47.8661 75.0706 49.5306 75.681 50.7534C76.018 51.4292 81.0194 50.9431 82.9001 49.5318C85.4418 47.8514 86.0233 49.57 86.0935 50.7011C86.1355 51.3772 85.6653 52.0649 84.8074 52.1971C83.9581 52.328 83.0769 52.0875 82.2259 52.207C78.471 52.7345 78.1917 55.563 81.7467 54.244C81.8022 54.2234 81.8576 54.2024 81.9126 54.1809C82.4061 53.9884 83.2491 55.0402 82.8724 55.7959C82.2919 56.9605 80.5551 56.1162 79.2817 55.849C78.8202 55.7522 78.5268 55.841 78.4075 56.284C77.5802 59.3524 83.51 60.4834 87.028 60.3595L90.0662 60.1255C92.2389 60.2062 94.0438 60.9651 93.3372 61.9944C91.804 64.2287 86.1182 64.6181 81.9126 62.5932C80.633 61.977 79.2101 61.521 77.7896 61.2239C76.0227 60.8545 75.2003 61.9208 76.7467 62.8519C80.1983 64.9298 76.0697 66.6361 75.5782 65.733C74.5435 63.8328 72.9182 61.4983 70.8242 60.009ZM79.2317 65.8076C79.8385 65.2008 80.8254 65.2008 81.4321 65.8076C82.0389 66.4144 82.0389 67.4012 81.4321 68.008C80.8254 68.6148 79.8385 68.6148 79.2317 68.008C78.625 67.4012 78.625 66.4144 79.2317 65.8076ZM79.8108 63.0466C80.0547 62.8027 80.4527 62.8027 80.6966 63.0466C80.9412 63.2912 80.9412 63.6891 80.6972 63.933C80.4527 64.1776 80.0547 64.1776 79.8102 63.933C79.5662 63.6891 79.5662 63.2912 79.8108 63.0466ZM71.5155 47.8199C71.8192 47.5162 72.312 47.5162 72.6157 47.8199C72.9194 48.1236 72.9194 48.6165 72.6157 48.9201C72.312 49.2238 71.8192 49.2238 71.5155 48.9201C71.2118 48.6165 71.2118 48.1236 71.5155 47.8199ZM89.4693 64.9162C89.7132 64.6723 90.1112 64.6723 90.3551 64.9162C90.5997 65.1608 90.5997 65.5587 90.3557 65.8027C90.1112 66.0472 89.7132 66.0472 89.4687 65.8027C89.2247 65.5587 89.2247 65.1608 89.4693 64.9162ZM83.903 55.7216C84.1272 55.4973 84.4919 55.4973 84.7161 55.7216C84.9403 55.9458 84.9403 56.3105 84.7161 56.5347C84.4919 56.7589 84.1272 56.7589 83.903 56.5347C83.6787 56.3105 83.6787 55.9458 83.903 55.7216ZM85.7245 54.5801C85.934 54.3706 86.2753 54.3706 86.4847 54.5801C86.6941 54.7895 86.6941 55.1308 86.4847 55.3403C86.2752 55.5497 85.934 55.5497 85.7245 55.3403C85.5151 55.1308 85.5151 54.7895 85.7245 54.5801ZM87.3188 55.6249C87.6225 55.3212 88.1153 55.3212 88.419 55.6249C88.7227 55.9286 88.7227 56.4214 88.419 56.7251C88.1153 57.0288 87.6225 57.0288 87.3188 56.7251C87.0151 56.4214 87.0151 55.9285 87.3188 55.6249ZM90.604 55.8411C91.0173 55.4277 91.6888 55.4277 92.1021 55.8411C92.5155 56.2544 92.5155 56.9259 92.1021 57.3392C91.6888 57.7526 91.0173 57.7526 90.604 57.3392C90.1906 56.9259 90.1906 56.2544 90.604 55.8411ZM88.8539 53.3912C89.2672 52.9778 89.9387 52.9778 90.352 53.3912C90.7654 53.8045 90.7654 54.476 90.352 54.8893C89.9387 55.3027 89.2672 55.3027 88.8539 54.8893C88.4405 54.476 88.4405 53.8045 88.8539 53.3912ZM93.9311 56.2101C94.1405 56.0006 94.4818 56.0006 94.6912 56.2101C94.9007 56.4195 94.9007 56.7608 94.6912 56.9702C94.4818 57.1797 94.1405 57.1797 93.9311 56.9702C93.7216 56.7608 93.7216 56.4195 93.9311 56.2101ZM93.0748 52.8134C93.6933 52.1949 94.6992 52.1943 95.3183 52.8134C95.9368 53.4318 95.9368 54.4384 95.3183 55.0569C94.6992 55.676 93.6933 55.6754 93.0748 55.0569C92.4557 54.4378 92.4557 53.4325 93.0748 52.8134ZM96.1339 57.362V52.939C96.1333 52.368 96.596 51.9054 97.1676 51.9054L98.3629 51.9055C100.096 51.9058 101.741 50.1442 103.474 50.1442L104.077 50.1436C105.268 50.1436 106.235 51.1101 106.234 52.3008V58.0002C106.235 59.191 105.268 60.1575 104.077 60.1569L103.474 60.1575C101.741 60.1555 100.096 58.3951 98.3624 58.3951L97.167 58.3951C96.596 58.3957 96.1333 57.9331 96.1339 57.362ZM98.2007 55.1511C98.2007 55.8016 98.728 56.329 99.3785 56.329H100.14C100.79 56.329 101.318 55.8016 101.318 55.1511C101.318 54.5006 100.79 53.9733 100.14 53.9733L99.3785 53.9733C98.728 53.9733 98.2007 54.5006 98.2007 55.1511ZM103.476 58.0902L104.077 58.0908C104.126 58.0902 104.167 58.0489 104.168 58.0002L104.168 52.3644C104.168 52.3237 104.152 52.2847 104.123 52.2559C104.094 52.2271 104.055 52.2109 104.014 52.211L103.475 52.2115C103.426 52.2115 103.385 52.2522 103.384 52.3008L103.384 58.0002C103.385 58.0489 103.425 58.0902 103.476 58.0902ZM88.4855 40.1777C88.9611 39.7021 89.7335 39.7021 90.2085 40.177C90.6841 40.6526 90.6841 41.4251 90.2085 41.9007C89.7335 42.3756 88.9611 42.3756 88.4855 41.9C88.0106 41.4251 88.0106 40.6526 88.4855 40.1777Z" fill="#1D1D1D"/>
</svg>
