<svg width="185" height="188" viewBox="0 0 185 188" fill="none" xmlns="http://www.w3.org/2000/svg">
<g clip-path="url(#clip0)">
<path fill-rule="evenodd" clip-rule="evenodd" d="M25.9513 110.644L25.942 110.588C25.9289 110.506 25.9224 110.425 25.9224 110.34L25.9233 85.5754C25.9233 85.5026 25.9289 85.4279 25.9392 85.3541L25.9495 85.286C26.1708 83.7836 27.3967 81.2747 29.7927 80.9255L29.9757 80.9068L30.0952 80.8994L30.1942 80.8956L52.2878 80.6267C63.5989 80.58 69.3982 82.314 76.5561 85.8285C76.9371 86.0152 77.3218 86.2057 77.7382 86.413C79.9044 87.5839 82.5254 88.6735 85.3592 89.5802L88.5255 88.2067C89.3285 87.8575 90.2622 88.2365 90.5965 89.0451L91.2482 90.6231L92.6208 89.779C92.9802 89.5578 93.4135 89.4905 93.8225 89.5932L96.9868 90.3841C97.4864 90.5083 97.8925 90.8715 98.0737 91.3533L98.2128 91.724C98.252 91.8304 98.28 91.9425 98.2959 92.0536C98.8505 92.0835 99.3986 92.1012 99.9421 92.1068L102.522 92.0069L102.668 91.8314C103.57 90.8033 104.899 90.1058 106.954 90.3066L110.837 90.695C111.638 90.7753 112.248 91.4504 112.247 92.2543L112.247 103.664C112.248 104.468 111.638 105.143 110.837 105.224L106.953 105.611C104.9 105.812 103.571 105.114 102.669 104.088L102.526 103.916L99.5648 103.818C98.4873 103.84 97.3855 103.909 96.2707 104.023L97.8673 108.809C98.1194 109.567 97.7609 110.395 97.0354 110.728L92.8542 112.65C92.449 112.836 91.983 112.841 91.5731 112.663L87.4676 110.873L85.306 110.872C84.6982 110.873 84.1435 110.52 83.8858 109.969L82.8578 107.766L80.2835 108.447C79.4479 108.668 78.5898 108.169 78.3685 107.333C78.1472 106.497 78.6467 105.639 79.4824 105.418L83.3228 104.401C83.6888 104.304 84.0623 104.345 84.3872 104.496L85.1435 105.253L86.3041 107.739L87.7934 107.74C88.0091 107.739 88.222 107.784 88.42 107.87L92.1828 109.509L94.4499 108.467L92.8598 103.699C92.7711 103.431 92.7552 103.142 92.8159 102.867L94.9579 93.1078L93.702 92.7931L91.3266 94.2553C90.5059 94.7604 89.4256 94.4103 89.0577 93.5195L88.3107 91.7156L86.5217 92.4924L83.5889 97.246C83.1351 97.9818 82.1687 98.2105 81.4329 97.7567C80.6972 97.303 80.4684 96.3365 80.9222 95.6008L83.0679 92.1217C80.5618 91.2515 78.2527 90.2534 76.2947 89.1955C75.9231 89.0106 75.5496 88.8239 75.178 88.6427C73.3357 87.7398 71.599 86.9611 69.8277 86.3084L68.1022 88.9844C63.8267 88.3243 59.0638 88.0022 52.2925 88.0152L50.0983 88.0302L50.0992 86.6903L48.2467 86.6903L48.2458 88.0414L46.2728 88.0554L46.1206 88.0563L46.1215 86.6903L39.325 86.6894L39.3241 88.1002L37.3044 88.1124L37.3054 86.6903L35.4547 86.6903L35.4538 88.1236L32.31 88.1432C31.3781 88.1488 30.6274 88.9088 30.6339 89.8397C30.6396 90.7716 31.3996 91.5223 32.3305 91.5158L35.4538 91.4962L35.4547 108.59L37.3054 108.59L37.3044 91.4849L39.3241 91.4728L39.3241 108.59L46.1215 108.59L46.1206 91.4308L46.2952 91.4299L48.2458 91.4159L48.2467 108.59L50.0992 108.59L50.0983 91.4046L52.3074 91.3897C58.1105 91.3776 62.3617 91.6157 66.0901 92.104L62.3169 97.9594L69.8287 109.609C71.5999 108.957 73.3376 108.179 75.1798 107.276C75.9567 106.895 76.896 107.216 77.276 107.992C77.657 108.769 77.3358 109.708 76.5599 110.088C69.3992 113.602 63.5989 115.337 52.2878 115.292L30.1886 115.023L30.0625 115.018L29.9374 115.009L29.7833 114.989C27.4051 114.647 26.1689 112.109 25.9513 110.644ZM103.401 100.815C103.711 100.844 104.007 100.965 104.247 101.163L104.377 101.268L104.597 101.488C104.797 101.733 104.782 101.747 105.021 102.017C105.261 102.291 105.602 102.594 106.645 102.493L109.114 102.246L109.114 93.6727L106.646 93.4252C105.601 93.3234 105.261 93.6269 105.021 93.9023C105.054 93.8631 104.645 94.3841 104.498 94.541C104.435 94.6092 104.366 94.6708 104.291 94.725L104.19 94.8006C103.959 94.9733 103.685 95.077 103.4 95.1031C101.584 95.2712 99.6713 95.2814 97.7161 95.1582L96.4649 100.856C98.8468 100.64 101.193 100.609 103.401 100.815ZM114.18 103.169L114.18 93.4878C119.611 92.5429 123.389 86.6399 128.546 84.9078C132.047 83.7313 135.728 82.4578 138.463 79.9489C141.123 77.3354 144.126 77.6752 144.248 79.594C144.396 81.933 137.5 86.7771 131.771 86.7585C129.297 86.7501 124.825 89.273 125.75 91.1264C126.261 92.1507 133.842 91.414 136.692 89.2748C140.545 86.7277 141.426 89.3327 141.533 91.047C141.623 92.5046 140.143 93.9976 137.636 93.0536L123.351 95.0602C125.299 97.9528 130.747 98.0546 135.196 96.3216C136.325 95.8809 138.663 99.7428 134.015 99.8623C131.644 98.9603 130.242 98.175 129.883 99.5093C128.629 104.16 137.617 105.874 142.949 105.687L147.554 105.332C150.847 105.454 153.583 106.605 152.512 108.165C150.188 111.552 141.57 112.142 135.196 109.072C131.831 107.452 127.814 106.563 124.295 106.395C123.878 107.994 126.136 108.724 127.365 109.465C132.597 112.614 126.339 115.2 125.594 113.832C123.389 109.781 119.413 104.429 114.18 103.169ZM131.132 113.945C132.052 113.025 133.548 113.025 134.467 113.945C135.387 114.864 135.387 116.36 134.467 117.28C133.548 118.2 132.052 118.2 131.132 117.28C130.212 116.36 130.212 114.864 131.132 113.945ZM132.01 109.76C132.379 109.39 132.983 109.39 133.352 109.76C133.723 110.13 133.723 110.734 133.353 111.103C132.983 111.474 132.379 111.474 132.009 111.103C131.639 110.734 131.639 110.13 132.01 109.76ZM119.436 86.68C119.897 86.2197 120.644 86.2197 121.104 86.68C121.564 87.1404 121.564 87.8873 121.104 88.3477C120.644 88.808 119.897 88.808 119.436 88.3477C118.976 87.8873 118.976 87.1404 119.436 86.68ZM146.649 112.594C147.019 112.224 147.622 112.224 147.992 112.594C148.363 112.964 148.363 113.567 147.993 113.937C147.622 114.308 147.019 114.308 146.649 113.937C146.279 113.567 146.279 112.964 146.649 112.594ZM138.212 98.6568C138.552 98.317 139.105 98.317 139.445 98.6569C139.785 98.9967 139.785 99.5495 139.445 99.8894C139.105 100.229 138.552 100.229 138.212 99.8894C137.873 99.5495 137.873 98.9967 138.212 98.6568ZM140.973 96.9267C141.291 96.6092 141.808 96.6092 142.126 96.9267C142.443 97.2441 142.443 97.7614 142.126 98.0789C141.808 98.3963 141.291 98.3963 140.973 98.0789C140.656 97.7614 140.656 97.2441 140.973 96.9267ZM143.39 98.5103C143.85 98.0499 144.597 98.0499 145.057 98.5103C145.518 98.9706 145.518 99.7176 145.057 100.178C144.597 100.638 143.85 100.638 143.39 100.178C142.93 99.7176 142.93 98.9706 143.39 98.5103ZM148.369 98.838C148.996 98.2115 150.014 98.2115 150.64 98.838C151.267 99.4645 151.267 100.482 150.64 101.109C150.014 101.735 148.996 101.735 148.369 101.109C147.743 100.482 147.743 99.4645 148.369 98.838ZM145.717 95.1246C146.343 94.4981 147.361 94.4981 147.988 95.1246C148.614 95.7511 148.614 96.7689 147.988 97.3954C147.361 98.0219 146.343 98.0219 145.717 97.3954C145.09 96.7689 145.09 95.7511 145.717 95.1246ZM153.412 99.3973C153.73 99.0798 154.247 99.0798 154.565 99.3973C154.882 99.7148 154.882 100.232 154.565 100.55C154.247 100.867 153.73 100.867 153.412 100.549C153.095 100.232 153.095 99.7148 153.412 99.3973ZM152.115 94.2488C153.052 93.3113 154.577 93.3104 155.515 94.2488C156.453 95.1862 156.453 96.7119 155.515 97.6494C154.577 98.5878 153.052 98.5868 152.115 97.6494C151.176 96.711 151.176 95.1871 152.115 94.2488ZM156.751 101.143L156.751 94.4392C156.75 93.5737 157.452 92.8725 158.318 92.8725L164.663 92.8734C164.944 91.3542 166.276 90.203 167.877 90.203L168.791 90.202C170.597 90.202 172.062 91.667 172.061 93.4719L172.061 102.111C172.062 103.916 170.597 105.381 168.792 105.38L167.878 105.381C166.277 105.379 164.944 104.228 164.663 102.709L158.317 102.709C157.452 102.71 156.75 102.009 156.751 101.143ZM159.884 99.5775L164.609 99.5775L164.609 96.007L159.884 96.007L159.884 99.5775ZM167.879 102.247L168.792 102.248C168.865 102.247 168.928 102.184 168.929 102.111L168.929 93.4719L168.793 93.3356L167.879 93.3365C167.804 93.3365 167.742 93.3981 167.741 93.4719L167.741 102.111C167.742 102.184 167.803 102.247 167.879 102.247ZM145.158 75.0963C145.879 74.3755 147.05 74.3755 147.77 75.0954C148.491 75.8162 148.491 76.9871 147.77 77.7079C147.05 78.4278 145.879 78.4278 145.158 77.707C144.438 76.9871 144.438 75.8162 145.158 75.0963Z" fill="#FF9C9C" fill-opacity="0.98"/>
</g>
<g clip-path="url(#clip1)">
<path fill-rule="evenodd" clip-rule="evenodd" d="M23.5171 106.37L23.5077 106.314C23.4946 106.232 23.4881 106.15 23.4881 106.066L23.489 81.3014C23.489 81.2286 23.4946 81.1539 23.5049 81.0801L23.5152 81.0119C23.7365 79.5096 24.9624 77.0007 27.3584 76.6515L27.5414 76.6328L27.6609 76.6253L27.7599 76.6216L49.8535 76.3527C61.1646 76.306 66.9639 78.0399 74.1218 81.5544C74.5028 81.7412 74.8875 81.9317 75.3039 82.1389C77.4701 83.3098 80.0911 84.3995 82.9249 85.3061L86.0912 83.9326C86.8942 83.5834 87.8279 83.9625 88.1622 84.7711L88.8139 86.3491L90.1865 85.505C90.5459 85.2837 90.9792 85.2165 91.3882 85.3192L94.5525 86.11C95.0521 86.2342 95.4582 86.5974 95.6394 87.0792L95.7785 87.4499C95.8177 87.5564 95.8457 87.6684 95.8616 87.7795C96.4162 87.8094 96.9643 87.8272 97.5078 87.8328L100.088 87.7328L100.233 87.5573C101.136 86.5293 102.465 85.8318 104.52 86.0325L108.402 86.421C109.204 86.5013 109.813 87.1764 109.812 87.9803L109.812 99.3903C109.813 100.194 109.204 100.869 108.402 100.95L104.519 101.337C102.466 101.538 101.137 100.84 100.234 99.8142L100.091 99.6415L97.1305 99.5435C96.053 99.5659 94.9512 99.635 93.8364 99.7489L95.433 104.535C95.6851 105.293 95.3266 106.121 94.6011 106.454L90.4199 108.376C90.0147 108.562 89.5487 108.567 89.1388 108.389L85.0333 106.599L82.8717 106.598C82.2639 106.599 81.7092 106.246 81.4515 105.695L80.4235 103.492L77.8492 104.173C77.0136 104.394 76.1555 103.895 75.9342 103.059C75.7129 102.223 76.2124 101.365 77.0481 101.144L80.8885 100.127C81.2545 100.03 81.628 100.071 81.9529 100.222L82.7092 100.979L83.8699 103.465L85.3591 103.466C85.5748 103.465 85.7877 103.51 85.9857 103.596L89.7486 105.235L92.0156 104.193L90.4255 99.4249C90.3368 99.1569 90.3209 98.8684 90.3816 98.5929L92.5236 88.8337L91.2677 88.519L88.8923 89.9812C88.0716 90.4864 86.9913 90.1362 86.6234 89.2455L85.8764 87.4415L84.0874 88.2184L81.1546 92.9719C80.7008 93.7077 79.7344 93.9365 78.9986 93.4827C78.2629 93.0289 78.0341 92.0625 78.4879 91.3267L80.6336 87.8477C78.1275 86.9775 75.8184 85.9793 73.8604 84.9214C73.4888 84.7365 73.1153 84.5498 72.7437 84.3687C70.9014 83.4658 69.1647 82.687 67.3934 82.0344L65.6679 84.7104C61.3924 84.0503 56.6295 83.7281 49.8582 83.7412L47.664 83.7561L47.6649 82.4163L45.8124 82.4162L45.8115 83.7673L43.8385 83.7813L43.6863 83.7823L43.6873 82.4163L36.8907 82.4153L36.8898 83.8262L34.8701 83.8383L34.8711 82.4163L33.0204 82.4162L33.0195 83.8495L29.8757 83.8691C28.9438 83.8747 28.1931 84.6348 28.1997 85.5657C28.2053 86.4975 28.9653 87.2482 29.8962 87.2417L33.0195 87.2221L33.0204 104.316L34.8711 104.316L34.8701 87.2109L36.8898 87.1988L36.8898 104.316L43.6873 104.316L43.6863 87.1567L43.8609 87.1558L45.8115 87.1418L45.8124 104.316L47.6649 104.316L47.664 87.1306L49.8731 87.1157C55.6762 87.1035 59.9274 87.3416 63.6558 87.83L59.8826 93.6853L67.3944 105.335C69.1656 104.683 70.9033 103.905 72.7455 103.002C73.5224 102.621 74.4617 102.942 74.8417 103.718C75.2227 104.495 74.9015 105.434 74.1256 105.814C66.9649 109.328 61.1646 111.063 49.8535 111.018L27.7543 110.749L27.6282 110.744L27.5031 110.735L27.349 110.715C24.9709 110.373 23.7346 107.835 23.5171 106.37ZM100.966 96.5406C101.277 96.5696 101.572 96.6909 101.813 96.8889L101.943 96.9944L102.162 97.2138C102.363 97.4594 102.348 97.4725 102.587 97.7433C102.827 98.0168 103.168 98.3203 104.211 98.2185L106.68 97.972L106.68 89.3986L104.212 89.1512C103.167 89.0494 102.826 89.3529 102.586 89.6283C102.62 89.5891 102.211 90.1101 102.063 90.267C102.001 90.3351 101.932 90.3968 101.857 90.4509L101.755 90.5265C101.525 90.6993 101.251 90.8029 100.965 90.8291C99.1502 90.9971 97.237 91.0074 95.2818 90.8841L94.0306 96.5817C96.4125 96.366 98.7589 96.3352 100.966 96.5406ZM111.746 98.8945L111.746 89.2137C117.177 88.2688 120.954 82.3658 126.111 80.6338C129.613 79.4573 133.293 78.1837 136.028 75.6748C138.689 73.0613 141.691 73.4012 141.814 75.32C141.962 77.659 135.066 82.5031 129.336 82.4844C126.863 82.476 122.39 84.9989 123.316 86.8524C123.826 87.8766 131.407 87.1399 134.258 85.0008C138.111 82.4536 138.992 85.0587 139.098 86.773C139.189 88.2305 137.709 89.7235 135.202 88.7796L120.917 90.7861C122.865 93.6788 128.313 93.7805 132.761 92.0476C133.891 91.6069 136.229 95.4687 131.581 95.5882C129.209 94.6863 127.808 93.901 127.448 95.2353C126.194 99.8861 135.182 101.6 140.515 101.413L145.12 101.058C148.413 101.18 151.149 102.331 150.078 103.891C147.754 107.277 139.136 107.868 132.761 104.798C129.397 103.178 125.379 102.289 121.861 102.121C121.444 103.72 123.701 104.45 124.931 105.191C130.163 108.34 123.905 110.926 123.16 109.558C120.954 105.507 116.979 100.155 111.746 98.8945ZM128.698 109.671C129.617 108.751 131.113 108.751 132.033 109.671C132.953 110.59 132.953 112.086 132.033 113.006C131.113 113.926 129.617 113.926 128.698 113.006C127.778 112.086 127.778 110.59 128.698 109.671ZM129.575 105.486C129.945 105.116 130.548 105.116 130.918 105.486C131.289 105.856 131.289 106.46 130.919 106.829C130.548 107.2 129.945 107.2 129.574 106.829C129.205 106.46 129.205 105.856 129.575 105.486ZM117.002 82.406C117.462 81.9457 118.209 81.9457 118.67 82.406C119.13 82.8663 119.13 83.6133 118.67 84.0736C118.209 84.5339 117.462 84.5339 117.002 84.0736C116.542 83.6133 116.542 82.8663 117.002 82.406ZM144.215 108.319C144.585 107.95 145.188 107.95 145.558 108.319C145.929 108.69 145.929 109.293 145.559 109.663C145.188 110.034 144.585 110.034 144.214 109.663C143.845 109.293 143.845 108.69 144.215 108.319ZM135.778 94.3828C136.118 94.0429 136.671 94.0429 137.011 94.3828C137.35 94.7227 137.35 95.2754 137.011 95.6153C136.671 95.9552 136.118 95.9552 135.778 95.6153C135.438 95.2754 135.438 94.7227 135.778 94.3828ZM138.539 92.6526C138.857 92.3352 139.374 92.3352 139.691 92.6526C140.009 92.9701 140.009 93.4874 139.691 93.8048C139.374 94.1223 138.857 94.1223 138.539 93.8048C138.222 93.4874 138.222 92.9701 138.539 92.6526ZM140.956 94.2362C141.416 93.7759 142.163 93.7759 142.623 94.2362C143.084 94.6965 143.084 95.4435 142.623 95.9038C142.163 96.3642 141.416 96.3642 140.956 95.9038C140.495 95.4435 140.495 94.6965 140.956 94.2362ZM145.935 94.5639C146.562 93.9374 147.579 93.9374 148.206 94.5639C148.832 95.1905 148.832 96.2082 148.206 96.8347C147.579 97.4613 146.562 97.4613 145.935 96.8348C145.309 96.2082 145.309 95.1905 145.935 94.5639ZM143.282 90.8505C143.909 90.224 144.927 90.224 145.553 90.8505C146.18 91.4771 146.18 92.4948 145.553 93.1214C144.927 93.7479 143.909 93.7479 143.282 93.1213C142.656 92.4948 142.656 91.4771 143.282 90.8505ZM150.978 95.1232C151.296 94.8058 151.813 94.8058 152.13 95.1232C152.448 95.4407 152.448 95.958 152.13 96.2755C151.813 96.5929 151.296 96.5929 150.978 96.2754C150.661 95.958 150.661 95.4407 150.978 95.1232ZM149.68 89.9747C150.618 89.0373 152.142 89.0363 153.081 89.9747C154.018 90.9122 154.018 92.4379 153.081 93.3753C152.142 94.3137 150.618 94.3128 149.68 93.3753C148.742 92.4369 148.742 90.9131 149.68 89.9747ZM154.317 96.8693L154.317 90.1652C154.316 89.2996 155.017 88.5984 155.884 88.5984L162.228 88.5993C162.51 87.0802 163.842 85.9289 165.442 85.9289L166.356 85.928C168.162 85.928 169.627 87.393 169.626 89.1979L169.626 97.8366C169.627 99.6415 168.162 101.107 166.357 101.106L165.443 101.107C163.843 101.105 162.51 99.9543 162.228 98.4351L155.883 98.4351C155.017 98.4361 154.316 97.7349 154.317 96.8693ZM157.45 95.3034L162.174 95.3035L162.174 91.7329L157.45 91.7329L157.45 95.3034ZM165.445 97.973L166.357 97.9739C166.431 97.973 166.494 97.9104 166.495 97.8366L166.495 89.1979L166.358 89.0615L165.444 89.0625C165.37 89.0625 165.308 89.1241 165.307 89.1979L165.307 97.8366C165.308 97.9104 165.369 97.973 165.445 97.973ZM142.724 70.8223C143.445 70.1014 144.616 70.1014 145.336 70.8213C146.056 71.5422 146.056 72.713 145.336 73.4339C144.616 74.1538 143.445 74.1538 142.724 73.4329C142.004 72.713 142.004 71.5422 142.724 70.8223Z" fill="#FF0000"/>
</g>
<g clip-path="url(#clip2)">
<path fill-rule="evenodd" clip-rule="evenodd" d="M20.8761 102.408L20.8668 102.352C20.8537 102.27 20.8471 102.189 20.8471 102.105L20.8481 77.34C20.8481 77.2671 20.8537 77.1924 20.864 77.1187L20.8742 77.0505C21.0955 75.5482 22.3215 73.0393 24.7174 72.69L24.9004 72.6714L25.0199 72.6639L25.1189 72.6602L47.2126 72.3913C58.5236 72.3446 64.323 74.0785 71.4809 77.593C71.8618 77.7797 72.2465 77.9702 72.663 78.1775C74.8292 79.3484 77.4501 80.438 80.284 81.3447L83.4502 79.9712C84.2532 79.622 85.1869 80.0011 85.5212 80.8097L86.1729 82.3877L87.5455 81.5436C87.905 81.3223 88.3382 81.255 88.7472 81.3578L91.9116 82.1486C92.4111 82.2728 92.8173 82.636 92.9984 83.1178L93.1375 83.4885C93.1768 83.595 93.2048 83.707 93.2206 83.8181C93.7753 83.848 94.3234 83.8657 94.8668 83.8713L97.4467 83.7714L97.5923 83.5959C98.4952 82.5679 99.8239 81.8704 101.879 82.0711L105.761 82.4595C106.563 82.5398 107.172 83.2149 107.171 84.0189L107.171 95.4289C107.172 96.2328 106.563 96.9079 105.761 96.9882L101.878 97.3757C99.8248 97.5765 98.4962 96.879 97.5933 95.8528L97.4504 95.6801L94.4896 95.582C93.4121 95.6044 92.3103 95.6735 91.1954 95.7875L92.7921 100.574C93.0442 101.332 92.6856 102.159 91.9601 102.492L87.7789 104.414C87.3737 104.601 86.9078 104.605 86.4979 104.427L82.3923 102.637L80.2307 102.636C79.6229 102.637 79.0683 102.284 78.8106 101.733L77.7825 99.5307L75.2083 100.211C74.3726 100.433 73.5145 99.9332 73.2932 99.0975C73.0719 98.2618 73.5715 97.4037 74.4071 97.1824L78.2475 96.1656C78.6135 96.0685 78.987 96.1096 79.312 96.2609L80.0683 97.0172L81.2289 99.5037L82.7182 99.5046C82.9339 99.5037 83.1468 99.5485 83.3447 99.6344L87.1076 101.274L89.3747 100.232L87.7845 95.4635C87.6958 95.1955 87.68 94.907 87.7407 94.6315L89.8826 84.8723L88.6267 84.5576L86.2514 86.0198C85.4306 86.525 84.3503 86.1748 83.9824 85.284L83.2355 83.4801L81.4465 84.257L78.5136 89.0105C78.0599 89.7463 77.0935 89.9751 76.3577 89.5213C75.6219 89.0675 75.3931 88.1011 75.8469 87.3653L77.9926 83.8863C75.4865 83.016 73.1774 82.0179 71.2194 80.96C70.8478 80.7751 70.4743 80.5884 70.1027 80.4072C68.2605 79.5043 66.5238 78.7256 64.7525 78.0729L63.027 80.749C58.7515 80.0888 53.9886 79.7667 47.2172 79.7798L45.023 79.7947L45.0239 78.4548L43.1714 78.4548L43.1705 79.8059L41.1976 79.8199L41.0454 79.8209L41.0463 78.4548L34.2498 78.4539L34.2488 79.8647L32.2292 79.8769L32.2301 78.4548L30.3795 78.4548L30.3786 79.8881L27.2347 79.9077C26.3029 79.9133 25.5522 80.6733 25.5587 81.6043C25.5643 82.5361 26.3243 83.2868 27.2553 83.2803L30.3785 83.2607L30.3795 100.354L32.2301 100.354L32.2292 83.2495L34.2488 83.2373L34.2488 100.354L41.0463 100.354L41.0454 83.1953L41.22 83.1944L43.1705 83.1804L43.1714 100.354L45.0239 100.354L45.023 83.1692L47.2322 83.1542C53.0352 83.1421 57.2865 83.3802 61.0148 83.8685L57.2417 89.7239L64.7534 101.374C66.5247 100.721 68.2623 99.9434 70.1046 99.0405C70.8814 98.6596 71.8207 98.9808 72.2008 99.7567C72.5817 100.534 72.2605 101.473 71.4846 101.853C64.3239 105.366 58.5236 107.101 47.2126 107.057L25.1133 106.788L24.9873 106.783L24.8621 106.774L24.7081 106.754C22.3299 106.411 21.0936 103.873 20.8761 102.408ZM98.3253 92.5792C98.6362 92.6081 98.9313 92.7295 99.1722 92.9275L99.302 93.033L99.5214 93.2524C99.7221 93.498 99.7072 93.5111 99.9462 93.7818C100.186 94.0554 100.527 94.3589 101.57 94.2571L104.039 94.0106L104.039 85.4372L101.571 85.1897C100.526 85.088 100.185 85.3914 99.9453 85.6669C99.9789 85.6277 99.5699 86.1487 99.4224 86.3055C99.3599 86.3737 99.2908 86.4353 99.2161 86.4895L99.1143 86.5651C98.8837 86.7378 98.6101 86.8415 98.3244 86.8676C96.5092 87.0357 94.596 87.046 92.6408 86.9227L91.3896 92.6203C93.7715 92.4046 96.118 92.3738 98.3253 92.5792ZM109.105 94.9331L109.105 85.2523C114.536 84.3074 118.313 78.4044 123.47 76.6724C126.972 75.4959 130.653 74.2223 133.387 71.7134C136.048 69.0999 139.05 69.4398 139.173 71.3586C139.321 73.6975 132.425 78.5417 126.695 78.523C124.222 78.5146 119.749 81.0375 120.675 82.8909C121.186 83.9152 128.766 83.1785 131.617 81.0394C135.47 78.4922 136.351 81.0973 136.457 82.8116C136.548 84.2691 135.068 85.7621 132.561 84.8181L118.276 86.8247C120.224 89.7173 125.672 89.8191 130.12 88.0861C131.25 87.6454 133.588 91.5073 128.94 91.6268C126.568 90.7248 125.167 89.9396 124.807 91.2739C123.553 95.9247 132.541 97.639 137.874 97.4513L142.479 97.0965C145.772 97.2189 148.508 98.3692 147.437 99.9294C145.113 103.316 136.495 103.906 130.12 100.837C126.756 99.217 122.738 98.3272 119.22 98.1591C118.803 99.7586 121.06 100.489 122.29 101.229C127.522 104.379 121.264 106.965 120.519 105.596C118.313 101.546 114.338 96.1936 109.105 94.9331ZM126.057 105.709C126.976 104.789 128.472 104.789 129.392 105.709C130.312 106.629 130.312 108.125 129.392 109.044C128.472 109.964 126.976 109.964 126.057 109.044C125.137 108.125 125.137 106.629 126.057 105.709ZM126.934 101.524C127.304 101.154 127.907 101.154 128.277 101.524C128.648 101.895 128.648 102.498 128.278 102.868C127.907 103.239 127.304 103.239 126.934 102.868C126.564 102.498 126.564 101.895 126.934 101.524ZM114.361 78.4446C114.821 77.9842 115.568 77.9842 116.029 78.4446C116.489 78.9049 116.489 79.6519 116.029 80.1122C115.568 80.5725 114.821 80.5725 114.361 80.1122C113.901 79.6519 113.901 78.9049 114.361 78.4446ZM141.574 104.358C141.944 103.988 142.547 103.988 142.917 104.358C143.288 104.729 143.288 105.332 142.918 105.702C142.547 106.072 141.944 106.072 141.573 105.702C141.204 105.332 141.204 104.729 141.574 104.358ZM133.137 90.4214C133.477 90.0815 134.03 90.0815 134.37 90.4214C134.71 90.7613 134.71 91.314 134.37 91.6539C134.03 91.9938 133.477 91.9938 133.137 91.6539C132.797 91.314 132.797 90.7612 133.137 90.4214ZM135.898 88.6912C136.216 88.3737 136.733 88.3737 137.05 88.6912C137.368 89.0087 137.368 89.5259 137.05 89.8434C136.733 90.1609 136.216 90.1609 135.898 89.8434C135.581 89.5259 135.581 89.0087 135.898 88.6912ZM138.315 90.2748C138.775 89.8145 139.522 89.8145 139.982 90.2748C140.443 90.7351 140.443 91.4821 139.982 91.9424C139.522 92.4027 138.775 92.4027 138.315 91.9424C137.854 91.4821 137.854 90.7351 138.315 90.2748ZM143.294 90.6025C143.921 89.976 144.938 89.976 145.565 90.6025C146.191 91.229 146.191 92.2468 145.565 92.8733C144.938 93.4998 143.921 93.4999 143.294 92.8733C142.668 92.2468 142.668 91.229 143.294 90.6025ZM140.641 86.8891C141.268 86.2626 142.286 86.2626 142.912 86.8891C143.539 87.5156 143.539 88.5334 142.912 89.1599C142.286 89.7865 141.268 89.7864 140.641 89.1599C140.015 88.5334 140.015 87.5156 140.641 86.8891ZM148.337 91.1618C148.655 90.8444 149.172 90.8443 149.489 91.1618C149.807 91.4793 149.807 91.9966 149.489 92.314C149.172 92.6315 148.655 92.6315 148.337 92.314C148.02 91.9966 148.02 91.4793 148.337 91.1618ZM147.039 86.0133C147.977 85.0758 149.502 85.0749 150.44 86.0133C151.377 86.9507 151.377 88.4764 150.44 89.4139C149.502 90.3523 147.977 90.3513 147.039 89.4139C146.101 88.4755 146.101 86.9517 147.039 86.0133ZM151.676 92.9079L151.676 86.2038C151.675 85.3382 152.376 84.637 153.243 84.637L159.588 84.6379C159.869 83.1188 161.201 81.9675 162.801 81.9675L163.716 81.9665C165.521 81.9665 166.986 83.4316 166.985 85.2364L166.985 93.8752C166.986 95.6801 165.521 97.1451 163.716 97.1442L162.802 97.1451C161.202 97.1432 159.869 95.9929 159.588 94.4737L153.242 94.4737C152.376 94.4747 151.675 93.7734 151.676 92.9079ZM154.809 91.342L159.533 91.342L159.533 87.7715L154.809 87.7715L154.809 91.342ZM162.804 94.0115L163.716 94.0125C163.79 94.0115 163.853 93.949 163.854 93.8752L163.854 85.2364L163.717 85.1001L162.803 85.101C162.729 85.101 162.667 85.1627 162.666 85.2364L162.666 93.8752C162.667 93.949 162.728 94.0115 162.804 94.0115ZM140.083 66.8608C140.804 66.14 141.975 66.14 142.695 66.8599C143.416 67.5807 143.416 68.7516 142.695 69.4725C141.975 70.1923 140.804 70.1923 140.083 69.4715C139.363 68.7516 139.363 67.5807 140.083 66.8608Z" fill="#1D1D1D"/>
</g>
<defs>
<clipPath id="clip0">
<rect width="126.766" height="126.766" fill="white" transform="translate(94.7123 8.23547) rotate(45)"/>
</clipPath>
<clipPath id="clip1">
<rect width="126.766" height="126.766" fill="white" transform="translate(92.278 3.96143) rotate(45)"/>
</clipPath>
<clipPath id="clip2">
<rect width="126.766" height="126.766" fill="white" transform="translate(89.637) rotate(45)"/>
</clipPath>
</defs>
</svg>
