<svg width="32" height="32" viewBox="0 0 32 32" fill="none" xmlns="http://www.w3.org/2000/svg">
<path d="M22.7897 29.4544C20.0969 30.881 17.7119 31.3088 14.6725 31.3088C6.40156 31.3088 0.862183 25.4605 0.862183 17.1871C0.862183 8.48557 7.09406 0.60437 17.4809 0.60437C26.56 0.60437 31.1378 6.63115 31.1378 13.4423C31.1378 20.111 27.3291 23.8545 22.8284 23.8545C20.4434 23.8549 19.0966 22.4573 18.9044 19.9313H18.7891C17.6734 22.1416 15.5194 23.8549 12.8647 23.8549C10.0566 23.8549 8.05593 21.4835 8.05593 18.0248C8.05593 12.1404 12.2491 7.67408 18.2503 7.67408C20.2891 7.67408 22.4434 8.16887 23.6744 8.84647L22.2894 16.2616C21.6741 19.4713 22.2125 20.7182 23.5975 20.7542C25.2516 20.7542 27.8675 18.8281 27.8675 13.4429C27.8675 7.63019 24.0591 3.17207 16.9422 3.17207C11.2103 3.17207 4.28562 8.44989 4.28562 16.973C4.28562 24.248 9.28687 28.6698 15.2494 28.6698C17.5963 28.6698 19.8272 28.1349 21.8278 26.9934L22.7897 29.4544ZM19.02 11.0176C18.7122 10.8749 17.9813 10.7322 17.3656 10.7322C15.2113 10.7322 12.9416 13.2642 12.9416 16.7233C12.9416 18.1855 13.48 19.3623 14.9034 19.3623C16.3653 19.3623 17.6731 17.2225 18.1734 14.9759L19.02 11.0176Z" fill="#EFEFEF"/>
</svg>
