<svg width="69" height="69" viewBox="0 0 69 69" fill="none" xmlns="http://www.w3.org/2000/svg">
<path d="M6.04688 43.8062L13.975 48.7781L27.0094 36.2812L33.7281 40.7156L47.1656 18.8125L53.3469 22.8437L61.4094 6.31561" stroke="#FF9C9C" stroke-width="4" stroke-miterlimit="10"/>
<path d="M5.91251 8.57806V60.5812H57.9156" stroke="#FF9C9C" stroke-width="4" stroke-miterlimit="10" stroke-linecap="square"/>
<path d="M0 10.2125L5.9125 0L11.825 10.2125H0Z" fill="#FF9C9C"/>
<path d="M56.1688 66.3812L66.3813 60.4687L56.1688 54.5562V66.3812Z" fill="#FF9C9C"/>
<path d="M7.04688 45.8062L14.975 50.7781L28.0094 38.2812L34.7281 42.7156L48.1656 20.8125L54.3469 24.8437L62.4094 8.31561" stroke="#FF0000" stroke-width="4" stroke-miterlimit="10"/>
<path d="M6.91251 10.5781V62.5812H58.9156" stroke="#FF0000" stroke-width="4" stroke-miterlimit="10" stroke-linecap="square"/>
<path d="M1 12.2125L6.9125 2L12.825 12.2125H1Z" fill="#FF0000"/>
<path d="M57.1688 68.3812L67.3813 62.4687L57.1688 56.5562V68.3812Z" fill="#FF0000"/>
<path d="M8.04688 43.8062L15.975 48.7781L29.0094 36.2812L35.7281 40.7156L49.1656 18.8125L55.3469 22.8437L63.4094 6.31561" stroke="#1D1D1D" stroke-width="4" stroke-miterlimit="10"/>
<path d="M7.91251 8.57806V60.5812H59.9156" stroke="#1D1D1D" stroke-width="4" stroke-miterlimit="10" stroke-linecap="square"/>
<path d="M2 10.2125L7.9125 0L13.825 10.2125H2Z" fill="#1D1D1D"/>
<path d="M58.1688 66.3812L68.3813 60.4687L58.1688 54.5562V66.3812Z" fill="#1D1D1D"/>
</svg>
