<svg width="178" height="178" viewBox="0 0 178 178" fill="none" xmlns="http://www.w3.org/2000/svg">
<path d="M15.7067 113.786L36.2998 126.7L70.1563 94.2397L87.6081 105.758L122.512 48.865L138.567 59.3361L159.51 16.4047" stroke="#FF9C9C" stroke-width="4" stroke-miterlimit="10"/>
<path d="M15.3575 22.2813V157.358H150.434" stroke="#FF9C9C" stroke-width="4" stroke-miterlimit="10" stroke-linecap="square"/>
<path d="M0 26.5267L15.3576 0L30.7152 26.5267H0Z" fill="#FF9C9C"/>
<path d="M145.897 172.424L172.424 157.066L145.897 141.709V172.424Z" fill="#FF9C9C"/>
<path d="M18.3042 118.981L38.8973 131.895L72.7538 99.4346L90.2056 110.953L125.109 54.06L141.165 64.531L162.107 21.5996" stroke="#FF0000" stroke-width="4" stroke-miterlimit="10"/>
<path d="M17.9551 27.4763V162.553H153.032" stroke="#FF0000" stroke-width="4" stroke-miterlimit="10" stroke-linecap="square"/>
<path d="M2.59753 31.7217L17.9551 5.19495L33.3127 31.7217H2.59753Z" fill="#FF0000"/>
<path d="M148.495 177.619L175.021 162.261L148.495 146.904V177.619Z" fill="#FF0000"/>
<path d="M20.9015 113.786L41.4946 126.7L75.3511 94.2397L92.8029 105.758L127.707 48.865L143.762 59.3361L164.704 16.4047" stroke="#1D1D1D" stroke-width="4" stroke-miterlimit="10"/>
<path d="M20.5525 22.2813V157.358H155.629" stroke="#1D1D1D" stroke-width="4" stroke-miterlimit="10" stroke-linecap="square"/>
<path d="M5.19495 26.5267L20.5525 0L35.9101 26.5267H5.19495Z" fill="#1D1D1D"/>
<path d="M151.092 172.424L177.619 157.066L151.092 141.709V172.424Z" fill="#1D1D1D"/>
</svg>
