<svg width="238" height="159" viewBox="0 0 238 159" fill="none" xmlns="http://www.w3.org/2000/svg"       className="menu-logo-container"
>
<path fill-rule="evenodd" clip-rule="evenodd" d="M71.8395 89.63L71.8334 89.593C71.8248 89.5388 71.8204 89.4852 71.8204 89.4298L71.8211 73.0912C71.8211 73.0431 71.8248 72.9939 71.8315 72.9452L71.8383 72.9002C71.9843 71.9091 72.7931 70.2538 74.3738 70.0234L74.4946 70.0111L74.5734 70.0062L74.6387 70.0037L89.2149 69.8263C96.6773 69.7955 100.503 70.9395 105.226 73.2581C105.477 73.3813 105.731 73.507 106.006 73.6438C107.435 74.4162 109.164 75.1351 111.033 75.7333L113.122 74.8271C113.652 74.5967 114.268 74.8468 114.489 75.3803L114.919 76.4214L115.824 75.8645C116.061 75.7185 116.347 75.6741 116.617 75.7419L118.705 76.2637C119.034 76.3456 119.302 76.5852 119.422 76.9031L119.514 77.1477C119.539 77.2179 119.558 77.2918 119.568 77.3651C119.934 77.3848 120.296 77.3965 120.654 77.4002L122.356 77.3343L122.453 77.2185C123.048 76.5403 123.925 76.0801 125.281 76.2125L127.842 76.4688C128.371 76.5218 128.773 76.9672 128.772 77.4976L128.772 85.0253C128.773 85.5556 128.371 86.001 127.842 86.054L125.28 86.3096C123.925 86.4421 123.049 85.9819 122.453 85.3049L122.359 85.191L120.406 85.1263C119.695 85.1411 118.968 85.1866 118.232 85.2618L119.286 88.4195C119.452 88.9197 119.215 89.4655 118.737 89.6854L115.978 90.9532C115.711 91.0764 115.403 91.0794 115.133 90.9618L112.424 89.7809L110.998 89.7803C110.597 89.7809 110.231 89.548 110.061 89.1846L109.383 87.7314L107.685 88.1805C107.133 88.3265 106.567 87.9969 106.421 87.4456C106.275 86.8942 106.605 86.3281 107.156 86.1821L109.69 85.5113C109.931 85.4472 110.178 85.4743 110.392 85.5741L110.891 86.0731L111.657 87.7135L112.639 87.7142C112.782 87.7135 112.922 87.7431 113.053 87.7998L115.535 88.8815L117.031 88.194L115.982 85.048C115.923 84.8712 115.913 84.6809 115.953 84.4992L117.366 78.0606L116.538 77.853L114.97 78.8177C114.429 79.1509 113.716 78.9199 113.474 78.3323L112.981 77.1421L111.8 77.6546L109.866 80.7908C109.566 81.2762 108.929 81.4271 108.443 81.1277C107.958 80.8283 107.807 80.1908 108.106 79.7053L109.522 77.4101C107.868 76.836 106.345 76.1774 105.053 75.4795C104.808 75.3575 104.562 75.2343 104.316 75.1148C103.101 74.5191 101.955 74.0054 100.787 73.5748L99.6483 75.3403C96.8276 74.9047 93.6853 74.6922 89.2179 74.7008L87.7703 74.7107L87.7709 73.8267L86.5487 73.8267L86.5481 74.7181L85.2465 74.7273L85.1461 74.7279L85.1467 73.8267L80.6627 73.8261L80.6621 74.7569L79.3297 74.7649L79.3303 73.8267L78.1093 73.8267L78.1087 74.7723L76.0346 74.7852C75.4198 74.7889 74.9245 75.2904 74.9289 75.9045C74.9326 76.5193 75.434 77.0146 76.0482 77.0103L78.1087 76.9973L78.1093 88.2747L79.3303 88.2747L79.3297 76.99L80.6621 76.9819L80.6621 88.2747L85.1467 88.2747L85.1461 76.9542L85.2613 76.9536L86.5481 76.9444L86.5487 88.2747L87.7709 88.2747L87.7703 76.937L89.2278 76.9271C93.0563 76.9191 95.861 77.0762 98.3208 77.3984L95.8315 81.2614L100.787 88.9474C101.956 88.5168 103.102 88.0037 104.318 87.408C104.83 87.1567 105.45 87.3686 105.701 87.8805C105.952 88.393 105.74 89.0127 105.228 89.2634C100.504 91.5815 96.6773 92.7261 89.2149 92.6965L74.635 92.5191L74.5519 92.516L74.4693 92.5098L74.3677 92.4969C72.7987 92.2708 71.9831 90.5965 71.8395 89.63ZM122.936 83.1452C123.141 83.1643 123.336 83.2444 123.495 83.3749L123.58 83.4446L123.725 83.5893C123.858 83.7513 123.848 83.76 124.006 83.9386C124.164 84.1191 124.389 84.3193 125.077 84.2522L126.706 84.0895L126.706 78.4333L125.077 78.27C124.388 78.2029 124.163 78.4031 124.005 78.5848C124.027 78.5589 123.757 78.9027 123.66 79.0062C123.619 79.0511 123.573 79.0918 123.524 79.1275L123.457 79.1774C123.305 79.2914 123.124 79.3598 122.936 79.377C121.738 79.4879 120.476 79.4947 119.186 79.4134L118.36 83.1723C119.932 83.03 121.48 83.0097 122.936 83.1452ZM130.048 84.6981V78.3113C133.631 77.6879 136.123 73.7935 139.525 72.6507C141.835 71.8746 144.264 71.0343 146.068 69.3791C147.823 67.6549 149.804 67.8791 149.885 69.145C149.983 70.6881 145.433 73.884 141.653 73.8717C140.021 73.8661 137.071 75.5306 137.681 76.7534C138.018 77.4292 143.019 76.9431 144.9 75.5318C147.442 73.8514 148.023 75.57 148.094 76.7011C148.153 77.6626 147.177 78.6477 145.523 78.0249L136.099 79.3487C137.384 81.2571 140.978 81.3242 143.913 80.1809C144.658 79.8902 146.201 82.438 143.134 82.5168C141.569 81.9218 140.645 81.4037 140.408 82.284C139.58 85.3524 145.51 86.4834 149.028 86.3595L152.066 86.1255C154.239 86.2062 156.044 86.9651 155.337 87.9944C153.804 90.2287 148.118 90.6181 143.913 88.5932C141.693 87.5244 139.042 86.9374 136.721 86.8265C136.446 87.8817 137.935 88.3634 138.747 88.8519C142.198 90.9298 138.07 92.6361 137.578 91.733C136.123 89.0608 133.5 85.5298 130.048 84.6981ZM141.232 91.8076C141.839 91.2008 142.825 91.2008 143.432 91.8076C144.039 92.4144 144.039 93.4012 143.432 94.008C142.825 94.6148 141.839 94.6148 141.232 94.008C140.625 93.4012 140.625 92.4144 141.232 91.8076ZM141.811 89.0466C142.055 88.8027 142.453 88.8027 142.697 89.0466C142.941 89.2912 142.941 89.6891 142.697 89.933C142.453 90.1776 142.055 90.1776 141.81 89.933C141.566 89.6891 141.566 89.2912 141.811 89.0466ZM133.516 73.8199C133.819 73.5162 134.312 73.5162 134.616 73.8199C134.919 74.1236 134.919 74.6165 134.616 74.9201C134.312 75.2238 133.819 75.2238 133.516 74.9201C133.212 74.6165 133.212 74.1236 133.516 73.8199ZM151.469 90.9162C151.713 90.6723 152.111 90.6723 152.355 90.9162C152.6 91.1608 152.6 91.5587 152.356 91.8027C152.111 92.0472 151.713 92.0472 151.469 91.8027C151.225 91.5587 151.225 91.1608 151.469 90.9162ZM145.903 81.7216C146.127 81.4973 146.492 81.4973 146.716 81.7216C146.94 81.9458 146.94 82.3105 146.716 82.5347C146.492 82.7589 146.127 82.7589 145.903 82.5347C145.679 82.3105 145.679 81.9458 145.903 81.7216ZM147.725 80.5801C147.934 80.3706 148.275 80.3706 148.485 80.5801C148.694 80.7895 148.694 81.1308 148.485 81.3403C148.275 81.5497 147.934 81.5497 147.725 81.3403C147.515 81.1308 147.515 80.7895 147.725 80.5801ZM149.319 81.6249C149.622 81.3212 150.115 81.3212 150.419 81.6249C150.723 81.9286 150.723 82.4214 150.419 82.7251C150.115 83.0288 149.623 83.0288 149.319 82.7251C149.015 82.4214 149.015 81.9285 149.319 81.6249ZM152.604 81.8411C153.017 81.4277 153.689 81.4277 154.102 81.8411C154.516 82.2544 154.516 82.9259 154.102 83.3392C153.689 83.7526 153.017 83.7526 152.604 83.3392C152.191 82.9259 152.191 82.2544 152.604 81.8411ZM150.854 79.3912C151.267 78.9778 151.939 78.9778 152.352 79.3912C152.765 79.8045 152.765 80.476 152.352 80.8893C151.939 81.3027 151.267 81.3027 150.854 80.8893C150.441 80.476 150.441 79.8045 150.854 79.3912ZM155.931 82.2101C156.141 82.0006 156.482 82.0006 156.691 82.2101C156.901 82.4195 156.901 82.7608 156.691 82.9702C156.482 83.1797 156.141 83.1797 155.931 82.9702C155.722 82.7608 155.722 82.4195 155.931 82.2101ZM155.075 78.8134C155.693 78.1949 156.699 78.1943 157.318 78.8134C157.937 79.4318 157.937 80.4384 157.318 81.0569C156.699 81.676 155.693 81.6754 155.075 81.0569C154.456 80.4378 154.456 79.4325 155.075 78.8134ZM158.134 83.362V78.939C158.133 78.368 158.596 77.9054 159.168 77.9054L163.353 77.906C163.539 76.9037 164.418 76.1442 165.474 76.1442L166.077 76.1436C167.268 76.1436 168.235 77.1101 168.234 78.3008V84.0002C168.235 85.191 167.268 86.1575 166.077 86.1569L165.474 86.1575C164.419 86.1563 163.539 85.3973 163.353 84.3951H159.167C158.596 84.3957 158.133 83.9331 158.134 83.362ZM160.201 82.329L163.318 82.329V79.9733L160.201 79.9733V82.329ZM165.476 84.0902L166.077 84.0908C166.126 84.0902 166.167 84.0489 166.168 84.0002L166.168 78.3008L166.078 78.2109L165.475 78.2115C165.426 78.2115 165.385 78.2522 165.384 78.3008L165.384 84.0002C165.385 84.0489 165.425 84.0902 165.476 84.0902ZM150.486 66.1777C150.961 65.7021 151.734 65.7021 152.209 66.177C152.684 66.6526 152.684 67.4251 152.209 67.9007C151.734 68.3756 150.961 68.3756 150.486 67.9C150.011 67.4251 150.011 66.6526 150.486 66.1777Z" fill="#FF0000"/>
<path fill-rule="evenodd" clip-rule="evenodd" d="M68.8395 86.63L68.8334 86.593C68.8247 86.5388 68.8204 86.4852 68.8204 86.4298L68.821 70.0912C68.821 70.0431 68.8247 69.9939 68.8315 69.9452L68.8383 69.9002C68.9843 68.9091 69.7931 67.2538 71.3738 67.0234L71.4945 67.0111L71.5734 67.0062L71.6387 67.0037L86.2148 66.8263C93.6772 66.7955 97.5033 67.9395 102.226 70.2581C102.477 70.3813 102.731 70.507 103.006 70.6438C103.869 71.1104 104.841 71.5574 105.888 71.9701C107.254 72.5084 108.776 72.4113 110.122 71.8271C110.652 71.5967 111.268 71.8468 111.489 72.3803L111.513 72.4388C111.726 72.9542 112.349 73.1566 112.824 72.8645C113.061 72.7185 113.347 72.6741 113.617 72.7419L115.705 73.2637C116.034 73.3456 116.302 73.5852 116.422 73.9031L116.514 74.1477C116.559 74.2702 116.662 74.3703 116.793 74.3762C117.082 74.3893 117.369 74.3973 117.654 74.4002L119.206 74.3401C119.302 74.3364 119.391 74.2922 119.453 74.2185C120.048 73.5403 120.925 73.0801 122.281 73.2125L124.842 73.4688C125.371 73.5218 125.773 73.9672 125.772 74.4976L125.772 82.0253C125.773 82.5556 125.371 83.001 124.842 83.054L122.28 83.3096C120.925 83.4421 120.049 82.9819 119.453 82.3049C119.393 82.2325 119.305 82.1892 119.211 82.1861L117.406 82.1263C116.289 82.1495 115.568 83.2683 115.921 84.328L116.286 85.4195C116.452 85.9197 116.215 86.4655 115.737 86.6854L112.978 87.9532C112.711 88.0764 112.403 88.0794 112.133 87.9618L110.732 87.3508C109.869 86.9749 108.939 86.7807 107.998 86.7803C107.597 86.7809 107.231 86.548 107.061 86.1846C106.669 85.3434 105.73 84.9041 104.833 85.1414L104.685 85.1805C104.133 85.3265 103.567 84.9969 103.421 84.4456C103.275 83.8942 103.605 83.3281 104.156 83.1821L106.69 82.5113C106.811 82.4791 106.934 82.4699 107.053 82.4814C107.286 82.5039 107.477 82.6587 107.642 82.824C107.807 82.9888 107.942 83.1811 108.04 83.3923L108.241 83.8232C108.495 84.3664 109.04 84.7138 109.639 84.7142C109.782 84.7135 109.922 84.7431 110.053 84.7998L112.033 85.6625C112.352 85.8019 112.716 85.7982 113.033 85.6526C113.601 85.3916 113.881 84.7452 113.684 84.1525L112.982 82.048C112.923 81.8712 112.913 81.6809 112.953 81.4992L114.238 75.6425C114.31 75.3184 114.11 74.9964 113.788 74.9158C113.628 74.8756 113.458 74.9018 113.317 74.9885L111.97 75.8177C111.429 76.1509 110.716 75.9199 110.473 75.3323L110.357 75.0506C110.15 74.5514 109.574 74.3186 109.079 74.5338C108.898 74.6125 108.745 74.7448 108.641 74.9129L106.865 77.7908C106.566 78.2762 105.929 78.4271 105.443 78.1277C104.958 77.8283 104.807 77.1908 105.106 76.7053C105.833 75.5273 105.278 73.985 104.01 73.4296C103.314 73.1247 102.658 72.8064 102.053 72.4795C101.808 72.3575 101.562 72.2343 101.316 72.1148C100.477 71.7034 99.6708 71.331 98.8673 70.9982C98.2406 70.7386 97.5253 70.9802 97.1577 71.5503C96.8478 72.0308 96.2849 72.2821 95.7182 72.2065C93.1306 71.8613 90.2009 71.6932 86.2179 71.7008L85.2138 71.7077C84.9694 71.7093 84.7704 71.5116 84.7706 71.2672C84.7708 71.024 84.5736 70.8267 84.3304 70.8267L83.996 70.8267C83.7489 70.8267 83.5486 71.0269 83.5484 71.274C83.5482 71.5198 83.3498 71.7195 83.104 71.7212L82.2465 71.7273C82.1911 71.7277 82.1461 71.6829 82.1461 71.6275L82.1464 71.2759C82.1465 71.0279 81.9455 70.8267 81.6975 70.8267L78.1295 70.8262C77.8717 70.8261 77.6626 71.0351 77.6624 71.2929C77.6622 71.5497 77.4549 71.7581 77.1981 71.7597L76.8001 71.7621C76.5408 71.7636 76.3298 71.5537 76.3299 71.2944C76.3301 71.0362 76.1208 70.8267 75.8626 70.8267H75.5836C75.3216 70.8267 75.1092 71.039 75.109 71.301C75.1088 71.5618 74.8982 71.7736 74.6374 71.7752L73.0346 71.7852C72.4198 71.7889 71.9245 72.2904 71.9288 72.9045C71.9325 73.5193 72.434 74.0146 73.0481 74.0103C74.1841 74.0032 75.1087 74.922 75.1088 76.058L75.1093 84.6643C75.1093 85.0014 75.3826 85.2747 75.7198 85.2747C76.0569 85.2747 76.3302 85.0014 76.3302 84.6642L76.3297 74.6522C76.3297 74.2858 76.6255 73.9882 76.9919 73.986C77.3614 73.9838 77.6621 74.2827 77.6621 74.6522V83.0325C77.6621 84.2708 78.666 85.2747 79.9043 85.2747C81.1427 85.2747 82.1466 84.2708 82.1465 83.0324L82.1461 74.0694C82.1461 74.0057 82.1975 73.954 82.2612 73.9536C82.9705 73.9485 83.5481 74.522 83.5482 75.2313L83.5487 84.6637C83.5487 85.0012 83.8223 85.2747 84.1598 85.2747C84.4973 85.2747 84.7709 85.0011 84.7709 84.6636L84.7704 75.3945C84.7703 74.588 85.4212 73.9326 86.2278 73.9271C88.4858 73.9224 90.3876 73.9751 92.0727 74.0852C93.5859 74.1841 94.3742 75.8673 93.5528 77.142C93.1136 77.8236 93.1137 78.6991 93.5531 79.3806L95.6993 82.7091C96.9195 84.6016 99.2956 85.399 101.318 84.408C101.83 84.1567 102.45 84.3686 102.701 84.8805C102.952 85.393 102.74 86.0127 102.228 86.2634C97.5039 88.5815 93.6772 89.7261 86.2148 89.6965L71.635 89.5191L71.5518 89.516L71.4693 89.5098L71.3676 89.4969C69.7987 89.2708 68.983 87.5965 68.8395 86.63ZM119.936 80.1452C120.141 80.1643 120.336 80.2444 120.495 80.3749L120.58 80.4446L120.725 80.5893C120.858 80.7513 120.848 80.76 121.005 80.9386C121.164 81.1191 121.389 81.3193 122.077 81.2522C123.001 81.1598 123.705 80.3819 123.705 79.4527L123.705 77.0696C123.705 76.1406 123.002 75.3627 122.077 75.27C121.388 75.2029 121.163 75.4031 121.005 75.5848C121.027 75.5589 120.757 75.9027 120.66 76.0062C120.619 76.0511 120.573 76.0918 120.524 76.1275L120.457 76.1774C120.304 76.2914 120.124 76.3598 119.935 76.377C119.202 76.445 118.443 76.4738 117.669 76.4673C116.815 76.46 116.051 77.029 115.867 77.8634C115.616 79.0068 116.55 80.0621 117.721 80.0543C118.476 80.0494 119.217 80.0783 119.936 80.1452ZM129.824 83.009C128.348 81.9589 127.048 80.4212 127.048 78.6093C127.048 76.7029 128.464 75.0652 130.055 74.0148C132.221 72.5841 134.152 70.4479 136.525 69.6507C138.835 68.8746 141.264 68.0343 143.068 66.3791C144.823 64.6549 146.804 64.8791 146.885 66.145C146.983 67.6881 142.433 70.884 138.653 70.8717C137.021 70.8661 134.071 72.5306 134.681 73.7534C135.018 74.4292 140.019 73.9431 141.9 72.5318C144.442 70.8514 145.023 72.57 145.094 73.7011C145.136 74.3772 144.665 75.0649 143.807 75.1971C142.958 75.328 142.077 75.0875 141.226 75.207C137.471 75.7345 137.192 78.563 140.747 77.244C140.802 77.2234 140.858 77.2024 140.913 77.1809C141.406 76.9884 142.249 78.0402 141.872 78.7959C141.292 79.9605 139.555 79.1162 138.282 78.849C137.82 78.7522 137.527 78.841 137.408 79.284C136.58 82.3524 142.51 83.4834 146.028 83.3595L149.066 83.1255C151.239 83.2062 153.044 83.9651 152.337 84.9944C150.804 87.2287 145.118 87.6181 140.913 85.5932C139.633 84.977 138.21 84.521 136.79 84.2239C135.023 83.8545 134.2 84.9208 135.747 85.8519C139.198 87.9298 135.07 89.6361 134.578 88.733C133.543 86.8328 131.918 84.4983 129.824 83.009ZM138.232 88.8076C138.839 88.2008 139.825 88.2008 140.432 88.8076C141.039 89.4144 141.039 90.4012 140.432 91.008C139.825 91.6148 138.839 91.6148 138.232 91.008C137.625 90.4012 137.625 89.4144 138.232 88.8076ZM138.811 86.0466C139.055 85.8027 139.453 85.8027 139.697 86.0466C139.941 86.2912 139.941 86.6891 139.697 86.933C139.453 87.1776 139.055 87.1776 138.81 86.933C138.566 86.6891 138.566 86.2912 138.811 86.0466ZM130.516 70.8199C130.819 70.5162 131.312 70.5162 131.616 70.8199C131.919 71.1236 131.919 71.6165 131.616 71.9201C131.312 72.2238 130.819 72.2238 130.516 71.9201C130.212 71.6165 130.212 71.1236 130.516 70.8199ZM148.469 87.9162C148.713 87.6723 149.111 87.6723 149.355 87.9162C149.6 88.1608 149.6 88.5587 149.356 88.8027C149.111 89.0472 148.713 89.0472 148.469 88.8027C148.225 88.5587 148.225 88.1608 148.469 87.9162ZM142.903 78.7216C143.127 78.4973 143.492 78.4973 143.716 78.7216C143.94 78.9458 143.94 79.3105 143.716 79.5347C143.492 79.7589 143.127 79.7589 142.903 79.5347C142.679 79.3105 142.679 78.9458 142.903 78.7216ZM144.725 77.5801C144.934 77.3706 145.275 77.3706 145.485 77.5801C145.694 77.7895 145.694 78.1308 145.485 78.3403C145.275 78.5497 144.934 78.5497 144.725 78.3403C144.515 78.1308 144.515 77.7895 144.725 77.5801ZM146.319 78.6249C146.622 78.3212 147.115 78.3212 147.419 78.6249C147.723 78.9286 147.723 79.4214 147.419 79.7251C147.115 80.0288 146.622 80.0288 146.319 79.7251C146.015 79.4214 146.015 78.9285 146.319 78.6249ZM149.604 78.8411C150.017 78.4277 150.689 78.4277 151.102 78.8411C151.515 79.2544 151.515 79.9259 151.102 80.3392C150.689 80.7526 150.017 80.7526 149.604 80.3392C149.191 79.9259 149.191 79.2544 149.604 78.8411ZM147.854 76.3912C148.267 75.9778 148.939 75.9778 149.352 76.3912C149.765 76.8045 149.765 77.476 149.352 77.8893C148.939 78.3027 148.267 78.3027 147.854 77.8893C147.441 77.476 147.441 76.8045 147.854 76.3912ZM152.931 79.2101C153.141 79.0006 153.482 79.0006 153.691 79.2101C153.901 79.4195 153.901 79.7608 153.691 79.9702C153.482 80.1797 153.141 80.1797 152.931 79.9702C152.722 79.7608 152.722 79.4195 152.931 79.2101ZM152.075 75.8134C152.693 75.1949 153.699 75.1943 154.318 75.8134C154.937 76.4318 154.937 77.4384 154.318 78.0569C153.699 78.676 152.693 78.6754 152.075 78.0569C151.456 77.4378 151.456 76.4325 152.075 75.8134ZM155.134 80.362V75.939C155.133 75.368 155.596 74.9054 156.168 74.9054L157.363 74.9055C159.096 74.9058 160.741 73.1442 162.474 73.1442L163.077 73.1436C164.268 73.1436 165.235 74.1101 165.234 75.3008V81.0002C165.235 82.191 164.268 83.1575 163.077 83.1569L162.474 83.1575C160.741 83.1555 159.096 81.3951 157.362 81.3951L156.167 81.3951C155.596 81.3957 155.133 80.9331 155.134 80.362ZM157.201 78.1511C157.201 78.8016 157.728 79.329 158.378 79.329H159.14C159.79 79.329 160.318 78.8016 160.318 78.1511C160.318 77.5006 159.79 76.9733 159.14 76.9733L158.378 76.9733C157.728 76.9733 157.201 77.5006 157.201 78.1511ZM162.476 81.0902L163.077 81.0908C163.126 81.0902 163.167 81.0489 163.168 81.0002L163.168 75.3644C163.168 75.3237 163.152 75.2847 163.123 75.2559C163.094 75.2271 163.055 75.2109 163.014 75.211L162.475 75.2115C162.426 75.2115 162.385 75.2522 162.384 75.3008L162.384 81.0002C162.385 81.0489 162.425 81.0902 162.476 81.0902ZM147.486 63.1777C147.961 62.7021 148.734 62.7021 149.208 63.177C149.684 63.6526 149.684 64.4251 149.208 64.9007C148.734 65.3756 147.961 65.3756 147.485 64.9C147.011 64.4251 147.011 63.6526 147.486 63.1777Z" fill="#1D1D1D"/>
<rect x="117" y="8.65685" width="102.309" height="102.309" rx="6" stroke="#FF0000" stroke-width="8"         className={`rect-red rectangle ${activeClass}`}
/>
<rect x="114" y="5.65685" width="102.309" height="102.309" rx="6" className={`rect-black rectangle ${activeClass}`}
 stroke="#1D1D1D" stroke-width="8"/>

<path d="M18.36 102C17.96 102 17.62 101.86 17.34 101.58C17.06 101.3 16.92 100.96 16.92 100.56V67.5H5.82C5.42 67.5 5.08 67.36 4.8 67.08C4.52 66.8 4.38 66.44 4.38 66V61.5C4.38 61.06 4.5 60.7 4.74 60.42C5.02 60.14 5.38 60 5.82 60H36.48C36.92 60 37.28 60.14 37.56 60.42C37.84 60.7 37.98 61.06 37.98 61.5V66C37.98 66.44 37.84 66.8 37.56 67.08C37.28 67.36 36.92 67.5 36.48 67.5H25.44V100.56C25.44 100.96 25.3 101.3 25.02 101.58C24.78 101.86 24.44 102 24 102H18.36Z" fill="#FF0000"         className={`t-red ${activeClass}`}
/>
<path d="M15.36 99C14.96 99 14.62 98.86 14.34 98.58C14.06 98.3 13.92 97.96 13.92 97.56V64.5H2.82C2.42 64.5 2.08 64.36 1.8 64.08C1.52 63.8 1.38 63.44 1.38 63V58.5C1.38 58.06 1.5 57.7 1.74 57.42C2.02 57.14 2.38 57 2.82 57H33.48C33.92 57 34.28 57.14 34.56 57.42C34.84 57.7 34.98 58.06 34.98 58.5V63C34.98 63.44 34.84 63.8 34.56 64.08C34.28 64.36 33.92 64.5 33.48 64.5H22.44V97.56C22.44 97.96 22.3 98.3 22.02 98.58C21.78 98.86 21.44 99 21 99H15.36Z" fill="#1D1D1D"         className={`t-black ${activeClass}`}
/>
<path d="M205.12 105C204.72 105 204.38 104.86 204.1 104.58C203.82 104.3 203.68 103.96 203.68 103.56V64.5C203.68 64.06 203.8 63.7 204.04 63.42C204.32 63.14 204.68 63 205.12 63H221.2C226.04 63 229.84 64.14 232.6 66.42C235.36 68.7 236.74 72.02 236.74 76.38C236.74 80.7 235.36 83.98 232.6 86.22C229.84 88.42 226.04 89.52 221.2 89.52H212.38V103.56C212.38 104 212.24 104.36 211.96 104.64C211.68 104.88 211.32 105 210.88 105H205.12ZM220.9 82.8C223.22 82.8 224.98 82.26 226.18 81.18C227.42 80.06 228.04 78.44 228.04 76.32C228.04 74.24 227.44 72.62 226.24 71.46C225.08 70.3 223.3 69.72 220.9 69.72H212.26V82.8H220.9Z" fill="#FF0000"         className={`p-red ${activeClass}`}
/>
<path d="M202.12 102C201.72 102 201.38 101.86 201.1 101.58C200.82 101.3 200.68 100.96 200.68 100.56V61.5C200.68 61.06 200.8 60.7 201.04 60.42C201.32 60.14 201.68 60 202.12 60H218.2C223.04 60 226.84 61.14 229.6 63.42C232.36 65.7 233.74 69.02 233.74 73.38C233.74 77.7 232.36 80.98 229.6 83.22C226.84 85.42 223.04 86.52 218.2 86.52H209.38V100.56C209.38 101 209.24 101.36 208.96 101.64C208.68 101.88 208.32 102 207.88 102H202.12ZM217.9 79.8C220.22 79.8 221.98 79.26 223.18 78.18C224.42 77.06 225.04 75.44 225.04 73.32C225.04 71.24 224.44 69.62 223.24 68.46C222.08 67.3 220.3 66.72 217.9 66.72H209.26V79.8H217.9Z" fill="#1D1D1D"         className={`p-black ${activeClass}`}
/>
</svg>
