<svg width="238" height="159" viewBox="0 0 238 159" fill="none" xmlns="http://www.w3.org/2000/svg">
<rect x="117" y="8.65685" width="102.309" height="102.309" rx="6" transform="rotate(45 117 8.65685)" stroke="#FF0000" stroke-width="8"/>
<rect x="114" y="5.65685" width="102.309" height="102.309" rx="6" transform="rotate(45 114 5.65685)" stroke="#1D1D1D" stroke-width="8"/>
<path d="M18.36 102C17.96 102 17.62 101.86 17.34 101.58C17.06 101.3 16.92 100.96 16.92 100.56V67.5H5.82C5.42 67.5 5.08 67.36 4.8 67.08C4.52 66.8 4.38 66.44 4.38 66V61.5C4.38 61.06 4.5 60.7 4.74 60.42C5.02 60.14 5.38 60 5.82 60H36.48C36.92 60 37.28 60.14 37.56 60.42C37.84 60.7 37.98 61.06 37.98 61.5V66C37.98 66.44 37.84 66.8 37.56 67.08C37.28 67.36 36.92 67.5 36.48 67.5H25.44V100.56C25.44 100.96 25.3 101.3 25.02 101.58C24.78 101.86 24.44 102 24 102H18.36Z" fill="#FF0000"/>
<path d="M15.36 99C14.96 99 14.62 98.86 14.34 98.58C14.06 98.3 13.92 97.96 13.92 97.56V64.5H2.82C2.42 64.5 2.08 64.36 1.8 64.08C1.52 63.8 1.38 63.44 1.38 63V58.5C1.38 58.06 1.5 57.7 1.74 57.42C2.02 57.14 2.38 57 2.82 57H33.48C33.92 57 34.28 57.14 34.56 57.42C34.84 57.7 34.98 58.06 34.98 58.5V63C34.98 63.44 34.84 63.8 34.56 64.08C34.28 64.36 33.92 64.5 33.48 64.5H22.44V97.56C22.44 97.96 22.3 98.3 22.02 98.58C21.78 98.86 21.44 99 21 99H15.36Z" fill="#1D1D1D"/>
<path d="M205.12 105C204.72 105 204.38 104.86 204.1 104.58C203.82 104.3 203.68 103.96 203.68 103.56V64.5C203.68 64.06 203.8 63.7 204.04 63.42C204.32 63.14 204.68 63 205.12 63H221.2C226.04 63 229.84 64.14 232.6 66.42C235.36 68.7 236.74 72.02 236.74 76.38C236.74 80.7 235.36 83.98 232.6 86.22C229.84 88.42 226.04 89.52 221.2 89.52H212.38V103.56C212.38 104 212.24 104.36 211.96 104.64C211.68 104.88 211.32 105 210.88 105H205.12ZM220.9 82.8C223.22 82.8 224.98 82.26 226.18 81.18C227.42 80.06 228.04 78.44 228.04 76.32C228.04 74.24 227.44 72.62 226.24 71.46C225.08 70.3 223.3 69.72 220.9 69.72H212.26V82.8H220.9Z" fill="#FF0000"/>
<path d="M202.12 102C201.72 102 201.38 101.86 201.1 101.58C200.82 101.3 200.68 100.96 200.68 100.56V61.5C200.68 61.06 200.8 60.7 201.04 60.42C201.32 60.14 201.68 60 202.12 60H218.2C223.04 60 226.84 61.14 229.6 63.42C232.36 65.7 233.74 69.02 233.74 73.38C233.74 77.7 232.36 80.98 229.6 83.22C226.84 85.42 223.04 86.52 218.2 86.52H209.38V100.56C209.38 101 209.24 101.36 208.96 101.64C208.68 101.88 208.32 102 207.88 102H202.12ZM217.9 79.8C220.22 79.8 221.98 79.26 223.18 78.18C224.42 77.06 225.04 75.44 225.04 73.32C225.04 71.24 224.44 69.62 223.24 68.46C222.08 67.3 220.3 66.72 217.9 66.72H209.26V79.8H217.9Z" fill="#1D1D1D"/>
</svg>
