<svg width="219" height="224" viewBox="0 0 219 224" fill="none" xmlns="http://www.w3.org/2000/svg">
<path d="M168.08 5.30042L168.051 5.35118C167.95 5.29256 167.859 5.27398 167.757 5.21537C167.696 5.14602 167.594 5.08741 167.533 5.01806L167.562 4.9673L167.461 4.90868L167.41 4.87938L167.319 4.8608C119.226 -1.9913 85.6724 65.9146 85.6724 65.9146C85.6724 65.9146 70.279 64.6755 59.3521 74.3402C48.4652 83.9942 47.7268 93.8897 47.7268 93.8897L77.4528 91.2883L105.929 108.203L106.132 108.32L106.182 108.349L106.639 108.613L106.69 108.642L106.893 108.76L135.369 125.674L147.291 153.031C147.291 153.031 155.636 147.663 158.916 133.482C162.196 119.301 153.704 106.343 153.704 106.343C153.704 106.343 197.301 44.3712 168.243 5.42837L168.182 5.35903L168.131 5.32972L168.019 5.23107L168.08 5.30042ZM114.59 139.566C114.59 139.566 119.161 159.668 106.521 172.709C84.5618 195.328 57.5133 157.477 49.6021 210.746C49.6021 210.746 41.1267 187.442 53.7343 167.715C73.2093 137.266 88.2095 155.774 72.5703 114.223L114.601 139.606L114.59 139.566ZM155.465 25.1581C155.556 25.1767 155.617 25.246 155.708 25.2646C155.77 25.3339 155.86 25.3525 155.922 25.4219L156.074 25.5098C160.157 27.9345 161.533 33.2299 159.079 37.3631C156.654 41.4456 151.359 42.8216 147.225 40.3676L147.073 40.2797C146.982 40.2611 146.921 40.1917 146.83 40.1732C146.768 40.1038 146.678 40.0852 146.616 40.0159L146.464 39.928C142.381 37.5033 141.005 32.2079 143.459 28.0746C145.884 23.9921 151.179 22.6161 155.313 25.0702L155.465 25.1581ZM142.891 46.2919L143.134 46.3984L143.348 46.5557L143.5 46.6436C151.716 51.5223 154.428 62.1239 149.549 70.3396C144.671 78.5553 134.069 81.2672 125.853 76.3885L125.701 76.3006L125.458 76.1941L125.244 76.0368L125.092 75.9489C116.876 71.0702 114.164 60.4687 119.043 52.2529C123.922 44.0372 134.523 41.3253 142.739 46.204L142.891 46.2919ZM103.539 112.576L85.4724 101.841C79.867 98.5369 72.5992 100.398 69.2845 105.964L68.9914 106.471L97.2135 123.239L97.6703 123.503L125.892 140.271L126.185 139.763C129.489 134.158 127.628 126.89 122.062 123.575L103.996 112.84L103.539 112.576Z" fill="#FF9C9C" fill-opacity="0.98"/>
<path d="M169.262 17.4866L169.233 17.5373C169.131 17.4787 169.04 17.4601 168.939 17.4015C168.877 17.3322 168.776 17.2736 168.714 17.2042L168.744 17.1535L168.642 17.0948L168.591 17.0655L168.5 17.047C120.408 10.1949 86.8538 78.1008 86.8538 78.1008C86.8538 78.1008 71.4604 76.8617 60.5335 86.5264C49.6466 96.1804 48.9082 106.076 48.9082 106.076L78.6342 103.475L107.11 120.389L107.313 120.506L107.364 120.535L107.821 120.799L107.871 120.828L108.075 120.946L136.55 137.86L148.472 165.217C148.472 165.217 156.817 159.849 160.097 145.668C163.378 131.487 154.885 118.529 154.885 118.529C154.885 118.529 198.482 56.5574 169.425 17.6145L169.363 17.5452L169.313 17.5159L169.2 17.4172L169.262 17.4866ZM115.771 151.752C115.771 151.752 120.342 171.854 107.703 184.895C85.7431 207.514 58.6947 169.663 50.7835 222.932C50.7835 222.932 42.3081 199.628 54.9157 179.902C74.3907 149.452 89.3909 167.961 73.7517 126.409L115.782 151.792L115.771 151.752ZM156.646 37.3442C156.737 37.3628 156.799 37.4322 156.89 37.4507C156.951 37.5201 157.042 37.5387 157.103 37.608L157.256 37.6959C161.338 40.1206 162.714 45.416 160.26 49.5493C157.835 53.6318 152.54 55.0078 148.407 52.5537L148.254 52.4658C148.164 52.4472 148.102 52.3779 148.011 52.3593C147.95 52.29 147.859 52.2714 147.798 52.2021L147.645 52.1141C143.563 49.6894 142.187 44.394 144.641 40.2608C147.065 36.1783 152.361 34.8023 156.494 37.2563L156.646 37.3442ZM144.073 58.4781L144.316 58.5846L144.529 58.7418L144.682 58.8298C152.897 63.7085 155.609 74.31 150.731 82.5257C145.852 90.7415 135.25 93.4534 127.035 88.5747L126.882 88.4868L126.639 88.3803L126.426 88.223L126.273 88.1351C118.058 83.2563 115.346 72.6548 120.224 64.4391C125.103 56.2234 135.705 53.5114 143.92 58.3901L144.073 58.4781ZM104.72 124.762L86.6538 114.027C81.0484 110.723 73.7806 112.585 70.4659 118.15L70.1728 118.658L98.3949 135.425L98.8517 135.689L127.074 152.457L127.367 151.949C130.671 146.344 128.809 139.076 123.244 135.761L105.177 125.026L104.72 124.762Z" fill="#FF0000"/>
<path d="M164.926 13.2157L164.896 13.2664C164.795 13.2078 164.704 13.1892 164.603 13.1306C164.541 13.0613 164.44 13.0026 164.378 12.9333L164.407 12.8825L164.306 12.8239L164.255 12.7946L164.164 12.776C116.071 5.92394 82.5176 73.8298 82.5176 73.8298C82.5176 73.8298 67.1242 72.5908 56.1973 82.2555C45.3104 91.9094 44.572 101.805 44.572 101.805L74.298 99.2036L102.774 116.118L102.977 116.235L103.028 116.264L103.485 116.528L103.535 116.558L103.738 116.675L132.214 133.589L144.136 160.946C144.136 160.946 152.481 155.578 155.761 141.397C159.042 127.216 150.549 114.259 150.549 114.259C150.549 114.259 194.146 52.2864 165.089 13.3436L165.027 13.2743L164.976 13.245L164.864 13.1463L164.926 13.2157ZM111.435 147.481C111.435 147.481 116.006 167.583 103.366 180.624C81.407 203.243 54.3585 165.392 46.4473 218.661C46.4473 218.661 37.9719 195.357 50.5795 175.631C70.0545 145.181 85.0547 163.69 69.4156 122.138L111.446 147.521L111.435 147.481ZM152.31 33.0733C152.401 33.0919 152.463 33.1612 152.553 33.1798C152.615 33.2492 152.706 33.2677 152.767 33.3371L152.919 33.425C157.002 35.8497 158.378 41.1451 155.924 45.2784C153.499 49.3608 148.204 50.7368 144.07 48.2828L143.918 48.1949C143.827 48.1763 143.766 48.107 143.675 48.0884C143.614 48.0191 143.523 48.0005 143.461 47.9311L143.309 47.8432C139.227 45.4185 137.851 40.1231 140.305 35.9899C142.729 31.9074 148.025 30.5314 152.158 32.9854L152.31 33.0733ZM139.736 54.2071L139.979 54.3136L140.193 54.4709L140.346 54.5588C148.561 59.4376 151.273 70.0391 146.394 78.2548C141.516 86.4705 130.914 89.1825 122.698 84.3038L122.546 84.2158L122.303 84.1093L122.089 83.9521L121.937 83.8641C113.721 78.9854 111.009 68.3839 115.888 60.1682C120.767 51.9524 131.368 49.2405 139.584 54.1192L139.736 54.2071ZM100.384 120.491L82.3176 109.756C76.7123 106.452 69.4444 108.314 66.1297 113.879L65.8366 114.387L94.0587 131.154L94.5155 131.418L122.738 148.186L123.031 147.678C126.335 142.073 124.473 134.805 118.908 131.49L100.841 120.755L100.384 120.491Z" fill="#1D1D1D"/>
</svg>
