<svg width="88" height="93" viewBox="0 0 88 93" fill="none" xmlns="http://www.w3.org/2000/svg">
<path d="M85.8492 2.85722L85.8287 2.87782C85.7875 2.83663 85.7463 2.81604 85.7051 2.77485C85.6845 2.73367 85.6433 2.69249 85.6227 2.6513L85.6433 2.63071L85.6021 2.58952L85.5815 2.56893L85.5404 2.54834C63.342 -6.92407 38.5078 21.349 38.5078 21.349C38.5078 21.349 31.2799 18.775 24.7934 22.008C18.3274 25.2409 16.7007 29.8948 16.7007 29.8948L31.3005 32.4688L42.791 44.2475L42.8733 44.3299L42.8939 44.3505L43.0793 44.5358L43.0998 44.5564L43.1822 44.6388L54.6727 56.4175L56.876 71.0792C56.876 71.0792 61.571 69.5759 64.9688 63.1924C68.3665 56.8088 65.9572 49.4986 65.9572 49.4986C65.9572 49.4986 94.848 25.3645 85.911 2.93959L85.8904 2.89841L85.8698 2.87782L85.8287 2.81604L85.8492 2.85722ZM42.9145 60.4124C42.9145 60.4124 42.5233 70.6467 34.7806 75.28C21.3339 83.3109 13.2206 61.6685 2.57441 86.2144C2.57441 86.2144 1.50361 73.9415 10.0906 66.0959C23.3519 53.9876 28.1705 64.7986 26.0083 42.8473L42.9145 60.433V60.4124ZM77.2417 10.7646C77.2829 10.7852 77.3035 10.8264 77.3447 10.847C77.3653 10.8882 77.4064 10.9088 77.427 10.95L77.4888 11.0117C79.1362 12.7003 79.1156 15.4185 77.4064 17.0864C75.7179 18.7338 72.9997 18.7132 71.3317 17.0041L71.27 16.9423C71.2288 16.9217 71.2082 16.8805 71.167 16.8599C71.1464 16.8187 71.1052 16.7981 71.0846 16.757L71.0229 16.6952C69.3755 15.0066 69.3961 12.2885 71.1052 10.6205C72.7938 8.97311 75.512 8.9937 77.1799 10.7029L77.2417 10.7646ZM68.49 19.2898L68.593 19.3722L68.6754 19.4751L68.7371 19.5369C72.0525 22.9346 71.9907 28.371 68.593 31.6863C65.1953 35.0016 59.7589 34.9399 56.4436 31.5422L56.3818 31.4804L56.2789 31.398L56.1965 31.295L56.1347 31.2333C52.8194 27.8356 52.8811 22.3992 56.2789 19.0839C59.6766 15.7685 65.1129 15.8303 68.4282 19.228L68.49 19.2898ZM41.0818 46.0391L33.7922 38.5641C31.527 36.2578 27.7998 36.2166 25.4935 38.4611L25.2876 38.6671L36.6751 50.3428L36.8604 50.5282L48.2479 62.2039L48.4538 61.998C50.7601 59.7329 50.8013 56.0057 48.5568 53.6994L41.2671 46.2244L41.0818 46.0391Z" fill="#FF9C9C" fill-opacity="0.98"/>
<path d="M84.8492 8.85722L84.8287 8.87782C84.7875 8.83663 84.7463 8.81604 84.7051 8.77485C84.6845 8.73367 84.6433 8.69249 84.6227 8.6513L84.6433 8.63071L84.6021 8.58952L84.5815 8.56893L84.5404 8.54834C62.342 -0.92407 37.5078 27.349 37.5078 27.349C37.5078 27.349 30.2799 24.775 23.7934 28.008C17.3274 31.2409 15.7007 35.8948 15.7007 35.8948L30.3005 38.4688L41.791 50.2475L41.8733 50.3299L41.8939 50.3505L42.0793 50.5358L42.0998 50.5564L42.1822 50.6388L53.6727 62.4175L55.876 77.0792C55.876 77.0792 60.571 75.5759 63.9688 69.1924C67.3665 62.8088 64.9572 55.4986 64.9572 55.4986C64.9572 55.4986 93.848 31.3645 84.911 8.93959L84.8904 8.89841L84.8698 8.87782L84.8287 8.81604L84.8492 8.85722ZM41.9145 66.4124C41.9145 66.4124 41.5233 76.6467 33.7806 81.28C20.3339 89.3109 12.2206 67.6685 1.57441 92.2144C1.57441 92.2144 0.503612 79.9415 9.09056 72.0959C22.3519 59.9876 27.1705 70.7986 25.0083 48.8473L41.9145 66.433V66.4124ZM76.2417 16.7646C76.2829 16.7852 76.3035 16.8264 76.3447 16.847C76.3653 16.8882 76.4064 16.9088 76.427 16.95L76.4888 17.0117C78.1362 18.7003 78.1156 21.4185 76.4064 23.0864C74.7179 24.7338 71.9997 24.7132 70.3317 23.0041L70.27 22.9423C70.2288 22.9217 70.2082 22.8805 70.167 22.8599C70.1464 22.8187 70.1052 22.7981 70.0846 22.757L70.0229 22.6952C68.3755 21.0066 68.3961 18.2885 70.1052 16.6205C71.7938 14.9731 74.512 14.9937 76.1799 16.7029L76.2417 16.7646ZM67.49 25.2898L67.593 25.3722L67.6754 25.4751L67.7371 25.5369C71.0525 28.9346 70.9907 34.371 67.593 37.6863C64.1953 41.0016 58.7589 40.9399 55.4436 37.5422L55.3818 37.4804L55.2789 37.398L55.1965 37.295L55.1347 37.2333C51.8194 33.8356 51.8811 28.3992 55.2789 25.0839C58.6766 21.7685 64.1129 21.8303 67.4282 25.228L67.49 25.2898ZM40.0818 52.0391L32.7922 44.5641C30.527 42.2578 26.7998 42.2166 24.4935 44.4611L24.2876 44.6671L35.6751 56.3428L35.8604 56.5282L47.2479 68.2039L47.4538 67.998C49.7601 65.7329 49.8013 62.0057 47.5568 59.6994L40.2671 52.2244L40.0818 52.0391Z" fill="#FF0000"/>
<path d="M83.3175 6.25005L83.2969 6.27064C83.2557 6.22945 83.2145 6.20886 83.1734 6.16768C83.1528 6.12649 83.1116 6.08531 83.091 6.04412L83.1116 6.02353L83.0704 5.98235L83.0498 5.96175L83.0086 5.94116C60.8102 -3.53125 35.976 24.7418 35.976 24.7418C35.976 24.7418 28.7482 22.1678 22.2616 25.4008C15.7957 28.6338 14.1689 33.2876 14.1689 33.2876L28.7688 35.8616L40.2592 47.6404L40.3416 47.7227L40.3622 47.7433L40.5475 47.9287L40.5681 47.9492L40.6505 48.0316L52.1409 59.8104L54.3443 74.472C54.3443 74.472 59.0393 72.9688 62.437 66.5852C65.8347 60.2016 63.4254 52.8914 63.4254 52.8914C63.4254 52.8914 92.3163 28.7573 83.3793 6.33241L83.3587 6.29123L83.3381 6.27064L83.2969 6.20886L83.3175 6.25005ZM40.3828 63.8052C40.3828 63.8052 39.9915 74.0396 32.2489 78.6728C18.8022 86.7038 10.6888 65.0614 0.0426675 89.6073C0.0426675 89.6073 -1.02813 77.3343 7.55882 69.4887C20.8202 57.3805 25.6388 68.1914 23.4766 46.2401L40.3828 63.8258V63.8052ZM74.71 14.1574C74.7512 14.178 74.7717 14.2192 74.8129 14.2398C74.8335 14.281 74.8747 14.3016 74.8953 14.3428L74.9571 14.4046C76.6045 16.0931 76.5839 18.8113 74.8747 20.4793C73.1861 22.1266 70.468 22.106 68.8 20.3969L68.7382 20.3351C68.697 20.3145 68.6765 20.2733 68.6353 20.2527C68.6147 20.2116 68.5735 20.191 68.5529 20.1498L68.4911 20.088C66.8438 18.3994 66.8643 15.6813 68.5735 14.0133C70.2621 12.3659 72.9802 12.3865 74.6482 14.0957L74.71 14.1574ZM65.9583 22.6826L66.0612 22.765L66.1436 22.8679L66.2054 22.9297C69.5207 26.3274 69.459 31.7638 66.0612 35.0791C62.6635 38.3945 57.2272 38.3327 53.9119 34.935L53.8501 34.8732L53.7471 34.7908L53.6647 34.6879L53.603 34.6261C50.2876 31.2284 50.3494 25.792 53.7471 22.4767C57.1448 19.1614 62.5812 19.2231 65.8965 22.6208L65.9583 22.6826ZM38.5501 49.4319L31.2604 41.9569C28.9953 39.6506 25.2681 39.6094 22.9618 41.854L22.7559 42.0599L34.1433 53.7357L34.3287 53.921L45.7162 65.5968L45.9221 65.3908C48.2284 63.1257 48.2696 59.3985 46.025 57.0922L38.7354 49.6172L38.5501 49.4319Z" fill="#1D1D1D"/>
</svg>
