<svg width="81" height="71" viewBox="0 0 81 71" fill="none" xmlns="http://www.w3.org/2000/svg">
<path d="M2.00834 3.38874C5.49668 6.88202 8.58509 9.97413 11.3328 12.7243V8.98293C11.3328 8.34599 11.8327 7.84607 12.4697 7.84607C13.1066 7.84607 13.6065 8.34599 13.6065 8.98293V15.0005C15.2569 16.6521 16.7678 18.1654 18.1552 19.5541V10.7567C18.1552 10.1432 18.6551 9.61987 19.2921 9.61987C19.929 9.61987 20.4289 10.1432 20.4289 10.7567V21.8303C22.1558 23.5584 23.663 25.0668 24.9776 26.3827V17.7384C24.9776 17.1014 25.4775 16.6015 26.1145 16.6015C26.7514 16.6015 27.2513 17.1014 27.2513 17.7384V28.6589C30.3681 31.7769 32.1234 33.5322 33.3676 34.7764C33.3676 34.774 33.3676 34.774 33.3689 34.7715C33.7787 31.7251 35.2797 17.3742 27.3427 9.41496C19.4056 1.50138 5.07823 2.95671 2.00834 3.38874C2.00093 3.38874 1.99846 3.38998 1.99106 3.39121C1.99476 3.39121 2.00587 3.38874 2.00834 3.38874V3.38874Z" fill="#FF9C9C" fill-opacity="0.98"/>
<path d="M1.42694 3.47886C1.44422 3.47763 1.48866 3.47145 1.55038 3.46158C1.50224 3.46898 1.44916 3.47763 1.42694 3.47886Z" fill="#FF9C9C" fill-opacity="0.98"/>
<path d="M0.467834 4.53205C0.473928 4.49548 0.475147 4.47842 0.478803 4.4577C0.476366 4.47598 0.471491 4.50523 0.467834 4.53205Z" fill="#FF9C9C" fill-opacity="0.98"/>
<path d="M25.654 30.2463H14.7446C14.1077 30.2463 13.6078 29.7451 13.6078 29.1094C13.6078 28.4725 14.1077 27.9726 14.7446 27.9726H23.3791C22.0645 26.658 20.5561 25.1508 18.8279 23.4239H7.76176C7.14704 23.4239 6.6249 22.924 6.6249 22.287C6.6249 21.6501 7.14704 21.1502 7.76176 21.1502H16.5505C15.1618 19.7627 13.6497 18.2519 11.9994 16.6015H5.98796C5.35103 16.6015 4.8511 16.1016 4.8511 15.4646C4.8511 14.8277 5.35103 14.3278 5.98796 14.3278H9.72318C6.97423 11.5801 3.88459 8.49289 0.393776 5.00454V5.00208V5.00331C-0.0382551 8.09665 -1.51704 22.4006 6.42 30.3376C11.7871 35.6825 20.0191 36.7514 25.7725 36.7514C28.5684 36.7514 30.773 36.5009 31.7741 36.3651C30.531 35.1208 28.777 33.3668 25.654 30.2463V30.2463Z" fill="#FF9C9C" fill-opacity="0.98"/>
<path d="M43.3241 34.7764C44.5684 33.5322 46.3249 31.7781 49.4404 28.6589V17.7384C49.4404 17.1014 49.9404 16.6015 50.5773 16.6015C51.2142 16.6015 51.7142 17.1014 51.7142 17.7384V26.3827C53.0288 25.0668 54.5359 23.5584 56.2628 21.8303V10.7567C56.2628 10.1432 56.7627 9.61987 57.3997 9.61987C58.0366 9.61987 58.5365 10.1432 58.5365 10.7567V19.5541C59.924 18.1654 61.4349 16.6533 63.0852 15.0005V8.98293C63.0852 8.34599 63.5851 7.84607 64.2221 7.84607C64.859 7.84607 65.3589 8.34599 65.3589 8.98293V12.7243C68.1066 9.97413 71.1951 6.88202 74.6834 3.38874C74.6846 3.38874 74.697 3.39121 74.7007 3.39121C74.6933 3.38998 74.6908 3.38998 74.6834 3.38874C71.6135 2.95671 57.2861 1.50138 49.3491 9.41496C41.4121 17.3742 42.9131 31.7251 43.3229 34.7715C43.3229 34.774 43.3229 34.774 43.3241 34.7764V34.7764Z" fill="#FF9C9C" fill-opacity="0.98"/>
<path d="M75.1426 3.46158C75.2031 3.47145 75.2475 3.47763 75.266 3.47886C75.2426 3.47763 75.1895 3.46898 75.1426 3.46158Z" fill="#FF9C9C" fill-opacity="0.98"/>
<path d="M76.298 5.00331V5.00208V5.00331C72.8071 8.49165 69.7175 11.5801 66.9686 14.3278H70.7038C71.3407 14.3278 71.8406 14.8277 71.8406 15.4646C71.8406 16.1016 71.3407 16.6015 70.7038 16.6015H64.6924C63.0408 18.2519 61.5287 19.7627 60.1412 21.1502H68.93C69.5447 21.1502 70.0668 21.6501 70.0668 22.287C70.0668 22.924 69.5447 23.4239 68.93 23.4239H57.865C56.1369 25.1508 54.6285 26.658 53.3139 27.9726H61.9483C62.5853 27.9726 63.0852 28.4725 63.0852 29.1094C63.0852 29.7464 62.5853 30.2463 61.9483 30.2463H51.0389C47.916 33.3668 46.1607 35.1208 44.9164 36.3638C45.9175 36.5009 48.1221 36.7502 50.918 36.7502C56.6714 36.7502 64.9034 35.6812 70.2705 30.3364C78.2088 22.4006 76.73 8.09542 76.298 5.00331V5.00331Z" fill="#FF9C9C" fill-opacity="0.98"/>
<path d="M76.2238 4.53205C76.2189 4.50402 76.2152 4.47598 76.2128 4.4577C76.2165 4.47964 76.2177 4.4967 76.2238 4.53205Z" fill="#FF9C9C" fill-opacity="0.98"/>
<path d="M48.7084 57.3087H47.616C46.273 54.4585 43.7895 52.3379 40.8381 51.4059C43.8104 22.6092 31.5753 5.3477 30.9692 4.5145C30.9692 4.5145 38.8433 22.5561 35.4105 51.0751C31.8839 51.7293 28.8412 54.0389 27.3007 57.3087H26.2083C22.673 57.3087 19.7796 60.2021 19.7796 63.7373C19.7796 67.2726 22.673 70.2733 26.2083 70.2733H48.7084C52.2437 70.2733 55.1371 67.2726 55.1371 63.7373C55.1371 60.2021 52.2437 57.3087 48.7084 57.3087Z" fill="#FF9C9C" fill-opacity="0.98"/>
<path d="M6.00834 1.38874C9.49668 4.88202 12.5851 7.97413 15.3328 10.7243V6.98293C15.3328 6.34599 15.8327 5.84607 16.4697 5.84607C17.1066 5.84607 17.6065 6.34599 17.6065 6.98293V13.0005C19.2569 14.6521 20.7678 16.1654 22.1552 17.5541V8.75673C22.1552 8.14324 22.6551 7.61987 23.2921 7.61987C23.929 7.61987 24.4289 8.14324 24.4289 8.75673V19.8303C26.1558 21.5584 27.663 23.0668 28.9776 24.3827V15.7384C28.9776 15.1014 29.4775 14.6015 30.1145 14.6015C30.7514 14.6015 31.2513 15.1014 31.2513 15.7384V26.6589C34.3681 29.7769 36.1234 31.5322 37.3676 32.7764C37.3676 32.774 37.3676 32.774 37.3689 32.7715C37.7787 29.7251 39.2797 15.3742 31.3427 7.41496C23.4056 -0.498617 9.07823 0.956712 6.00834 1.38874C6.00093 1.38874 5.99846 1.38998 5.99106 1.39121C5.99476 1.39121 6.00587 1.38874 6.00834 1.38874V1.38874Z" fill="#FF0000"/>
<path d="M5.42694 1.47886C5.44422 1.47763 5.48866 1.47145 5.55038 1.46158C5.50224 1.46898 5.44916 1.47763 5.42694 1.47886Z" fill="#FF0000"/>
<path d="M4.46783 2.53205C4.47393 2.49548 4.47515 2.47842 4.4788 2.4577C4.47637 2.47598 4.47149 2.50523 4.46783 2.53205Z" fill="#FF0000"/>
<path d="M29.654 28.2463H18.7446C18.1077 28.2463 17.6078 27.7451 17.6078 27.1094C17.6078 26.4725 18.1077 25.9726 18.7446 25.9726H27.3791C26.0645 24.658 24.5561 23.1508 22.8279 21.4239H11.7618C11.147 21.4239 10.6249 20.924 10.6249 20.287C10.6249 19.6501 11.147 19.1502 11.7618 19.1502H20.5505C19.1618 17.7627 17.6497 16.2519 15.9994 14.6015H9.98796C9.35103 14.6015 8.8511 14.1016 8.8511 13.4646C8.8511 12.8277 9.35103 12.3278 9.98796 12.3278H13.7232C10.9742 9.58006 7.88459 6.49289 4.39378 3.00454V3.00208V3.00331C3.96174 6.09665 2.48296 20.4006 10.42 28.3376C15.7871 33.6825 24.0191 34.7514 29.7725 34.7514C32.5684 34.7514 34.773 34.5009 35.7741 34.3651C34.531 33.1208 32.777 31.3668 29.654 28.2463V28.2463Z" fill="#FF0000"/>
<path d="M47.3241 32.7764C48.5684 31.5322 50.3249 29.7781 53.4404 26.6589V15.7384C53.4404 15.1014 53.9404 14.6015 54.5773 14.6015C55.2142 14.6015 55.7142 15.1014 55.7142 15.7384V24.3827C57.0288 23.0668 58.5359 21.5584 60.2628 19.8303V8.75673C60.2628 8.14324 60.7627 7.61987 61.3997 7.61987C62.0366 7.61987 62.5365 8.14324 62.5365 8.75673V17.5541C63.924 16.1654 65.4349 14.6533 67.0852 13.0005V6.98293C67.0852 6.34599 67.5851 5.84607 68.2221 5.84607C68.859 5.84607 69.3589 6.34599 69.3589 6.98293V10.7243C72.1066 7.97413 75.1951 4.88202 78.6834 1.38874C78.6846 1.38874 78.697 1.39121 78.7007 1.39121C78.6933 1.38998 78.6908 1.38998 78.6834 1.38874C75.6135 0.956712 61.2861 -0.498617 53.3491 7.41496C45.4121 15.3742 46.9131 29.7251 47.3229 32.7715C47.3229 32.774 47.3229 32.774 47.3241 32.7764V32.7764Z" fill="#FF0000"/>
<path d="M79.1426 1.46158C79.2031 1.47145 79.2475 1.47763 79.266 1.47886C79.2426 1.47763 79.1895 1.46898 79.1426 1.46158Z" fill="#FF0000"/>
<path d="M80.298 3.00331V3.00208V3.00331C76.8071 6.49165 73.7175 9.58006 70.9686 12.3278H74.7038C75.3407 12.3278 75.8406 12.8277 75.8406 13.4646C75.8406 14.1016 75.3407 14.6015 74.7038 14.6015H68.6924C67.0408 16.2519 65.5287 17.7627 64.1412 19.1502H72.93C73.5447 19.1502 74.0668 19.6501 74.0668 20.287C74.0668 20.924 73.5447 21.4239 72.93 21.4239H61.865C60.1369 23.1508 58.6285 24.658 57.3139 25.9726H65.9483C66.5853 25.9726 67.0852 26.4725 67.0852 27.1094C67.0852 27.7464 66.5853 28.2463 65.9483 28.2463H55.0389C51.916 31.3668 50.1607 33.1208 48.9164 34.3638C49.9175 34.5009 52.1221 34.7502 54.918 34.7502C60.6714 34.7502 68.9034 33.6812 74.2705 28.3364C82.2088 20.4006 80.73 6.09542 80.298 3.00331V3.00331Z" fill="#FF0000"/>
<path d="M80.2238 2.53205C80.2189 2.50402 80.2152 2.47598 80.2128 2.4577C80.2165 2.47964 80.2177 2.4967 80.2238 2.53205Z" fill="#FF0000"/>
<path d="M52.7084 55.3087H51.616C50.273 52.4585 47.7895 50.3379 44.8381 49.4059C47.8104 20.6092 35.5753 3.3477 34.9692 2.5145C34.9692 2.5145 42.8433 20.5561 39.4105 49.0751C35.8839 49.7293 32.8412 52.0389 31.3007 55.3087H30.2083C26.673 55.3087 23.7796 58.2021 23.7796 61.7373C23.7796 65.2726 26.673 68.2733 30.2083 68.2733H52.7084C56.2437 68.2733 59.1371 65.2726 59.1371 61.7373C59.1371 58.2021 56.2437 55.3087 52.7084 55.3087Z" fill="#FF0000"/>
<path d="M4.00834 0.388743C7.49668 3.88202 10.5851 6.97413 13.3328 9.72432V5.98293C13.3328 5.34599 13.8327 4.84607 14.4697 4.84607C15.1066 4.84607 15.6065 5.34599 15.6065 5.98293V12.0005C17.2569 13.6521 18.7678 15.1654 20.1552 16.5541V7.75673C20.1552 7.14324 20.6551 6.61987 21.2921 6.61987C21.929 6.61987 22.4289 7.14324 22.4289 7.75673V18.8303C24.1558 20.5584 25.663 22.0668 26.9776 23.3827V14.7384C26.9776 14.1014 27.4775 13.6015 28.1145 13.6015C28.7514 13.6015 29.2513 14.1014 29.2513 14.7384V25.6589C32.3681 28.7769 34.1234 30.5322 35.3676 31.7764C35.3676 31.774 35.3676 31.774 35.3689 31.7715C35.7787 28.7251 37.2797 14.3742 29.3427 6.41496C21.4056 -1.49862 7.07823 -0.0432882 4.00834 0.388743C4.00093 0.388743 3.99846 0.389977 3.99106 0.391212C3.99476 0.391212 4.00587 0.388743 4.00834 0.388743V0.388743Z" fill="#1D1D1D"/>
<path d="M3.42694 0.478859C3.44422 0.477625 3.48866 0.471453 3.55038 0.461578C3.50224 0.468985 3.44916 0.477625 3.42694 0.478859Z" fill="#2F7CBA"/>
<path d="M2.46783 1.53205C2.47393 1.49548 2.47515 1.47842 2.4788 1.4577C2.47637 1.47598 2.47149 1.50523 2.46783 1.53205Z" fill="#2F7CBA"/>
<path d="M27.654 27.2463H16.7446C16.1077 27.2463 15.6078 26.7451 15.6078 26.1094C15.6078 25.4725 16.1077 24.9726 16.7446 24.9726H25.3791C24.0645 23.658 22.5561 22.1508 20.8279 20.4239H9.76176C9.14704 20.4239 8.6249 19.924 8.6249 19.287C8.6249 18.6501 9.14704 18.1502 9.76176 18.1502H18.5505C17.1618 16.7627 15.6497 15.2519 13.9994 13.6015H7.98796C7.35103 13.6015 6.8511 13.1016 6.8511 12.4646C6.8511 11.8277 7.35103 11.3278 7.98796 11.3278H11.7232C8.97423 8.58006 5.88459 5.49289 2.39378 2.00454V2.00208V2.00331C1.96174 5.09665 0.482964 19.4006 8.42 27.3376C13.7871 32.6825 22.0191 33.7514 27.7725 33.7514C30.5684 33.7514 32.773 33.5009 33.7741 33.3651C32.531 32.1208 30.777 30.3668 27.654 27.2463V27.2463Z" fill="#1D1D1D"/>
<path d="M45.3241 31.7764C46.5684 30.5322 48.3249 28.7781 51.4404 25.6589V14.7384C51.4404 14.1014 51.9404 13.6015 52.5773 13.6015C53.2142 13.6015 53.7142 14.1014 53.7142 14.7384V23.3827C55.0288 22.0668 56.5359 20.5584 58.2628 18.8303V7.75673C58.2628 7.14324 58.7627 6.61987 59.3997 6.61987C60.0366 6.61987 60.5365 7.14324 60.5365 7.75673V16.5541C61.924 15.1654 63.4349 13.6533 65.0852 12.0005V5.98293C65.0852 5.34599 65.5851 4.84607 66.2221 4.84607C66.859 4.84607 67.3589 5.34599 67.3589 5.98293V9.72432C70.1066 6.97413 73.1951 3.88202 76.6834 0.388743C76.6846 0.388743 76.697 0.391212 76.7007 0.391212C76.6933 0.389977 76.6908 0.389977 76.6834 0.388743C73.6135 -0.0432882 59.2861 -1.49862 51.3491 6.41496C43.4121 14.3742 44.9131 28.7251 45.3229 31.7715C45.3229 31.774 45.3229 31.774 45.3241 31.7764V31.7764Z" fill="#1D1D1D"/>
<path d="M77.1426 0.461578C77.2031 0.471453 77.2475 0.477625 77.266 0.478859C77.2426 0.477625 77.1895 0.468985 77.1426 0.461578Z" fill="#2F7CBA"/>
<path d="M78.298 2.00331V2.00208V2.00331C74.8071 5.49165 71.7175 8.58006 68.9686 11.3278H72.7038C73.3407 11.3278 73.8406 11.8277 73.8406 12.4646C73.8406 13.1016 73.3407 13.6015 72.7038 13.6015H66.6924C65.0408 15.2519 63.5287 16.7627 62.1412 18.1502H70.93C71.5447 18.1502 72.0668 18.6501 72.0668 19.287C72.0668 19.924 71.5447 20.4239 70.93 20.4239H59.865C58.1369 22.1508 56.6285 23.658 55.3139 24.9726H63.9483C64.5853 24.9726 65.0852 25.4725 65.0852 26.1094C65.0852 26.7464 64.5853 27.2463 63.9483 27.2463H53.0389C49.916 30.3668 48.1607 32.1208 46.9164 33.3638C47.9175 33.5009 50.1221 33.7502 52.918 33.7502C58.6714 33.7502 66.9034 32.6812 72.2705 27.3364C80.2088 19.4006 78.73 5.09542 78.298 2.00331V2.00331Z" fill="#1D1D1D"/>
<path d="M78.2238 1.53205C78.2189 1.50402 78.2152 1.47598 78.2128 1.4577C78.2165 1.47964 78.2177 1.4967 78.2238 1.53205Z" fill="#2F7CBA"/>
<path d="M50.7084 54.3087H49.616C48.273 51.4585 45.7895 49.3379 42.8381 48.4059C45.8104 19.6092 33.5753 2.3477 32.9692 1.5145C32.9692 1.5145 40.8433 19.5561 37.4105 48.0751C33.8839 48.7293 30.8412 51.0389 29.3007 54.3087H28.2083C24.673 54.3087 21.7796 57.2021 21.7796 60.7373C21.7796 64.2726 24.673 67.2733 28.2083 67.2733H50.7084C54.2437 67.2733 57.1371 64.2726 57.1371 60.7373C57.1371 57.2021 54.2437 54.3087 50.7084 54.3087Z" fill="#1D1D1D"/>
</svg>
