<svg width="177" height="154" viewBox="0 0 177 154" fill="none" xmlns="http://www.w3.org/2000/svg">
<path d="M4.39327 7.41308C12.0242 15.0548 18.7803 21.819 24.791 27.8351V19.6507C24.791 18.2573 25.8846 17.1637 27.278 17.1637C28.6713 17.1637 29.7649 18.2573 29.7649 19.6507V32.8144C33.3752 36.4274 36.6803 39.7379 39.7154 42.7757V23.5309C39.7154 22.1889 40.809 21.044 42.2023 21.044C43.5956 21.044 44.6893 22.1889 44.6893 23.5309V47.755C48.4669 51.5353 51.7639 54.8351 54.6397 57.7135V38.8036C54.6397 37.4103 55.7333 36.3167 57.1267 36.3167C58.52 36.3167 59.6136 37.4103 59.6136 38.8036V62.6928C66.4317 69.5137 70.2715 73.3534 72.9934 76.0753C72.9934 76.0699 72.9934 76.0699 72.9961 76.0645C73.8926 69.4003 77.1761 38.007 59.8134 20.5957C42.4507 3.28438 11.1088 6.46799 4.39327 7.41308C4.37707 7.41308 4.37167 7.41578 4.35547 7.41848C4.36357 7.41848 4.38787 7.41308 4.39327 7.41308V7.41308Z" fill="#FF9C9C" fill-opacity="0.98"/>
<path d="M3.12146 7.61025C3.15926 7.60755 3.25647 7.59405 3.39149 7.57245C3.28618 7.58865 3.17006 7.60755 3.12146 7.61025Z" fill="#FF9C9C" fill-opacity="0.98"/>
<path d="M1.02344 9.91416C1.03677 9.83417 1.03943 9.79685 1.04743 9.75153C1.0421 9.79152 1.03144 9.8555 1.02344 9.91416Z" fill="#FF9C9C" fill-opacity="0.98"/>
<path d="M56.1195 66.1654H32.2546C30.8613 66.1654 29.7677 65.069 29.7677 63.6784C29.7677 62.2851 30.8613 61.1915 32.2546 61.1915H51.1429C48.2672 58.3157 44.9674 55.0187 41.1871 51.241H16.9793C15.6345 51.241 14.4923 50.1474 14.4923 48.7541C14.4923 47.3607 15.6345 46.2671 16.9793 46.2671H36.2051C33.1673 43.232 29.8595 39.9269 26.2492 36.3167H13.099C11.7056 36.3167 10.612 35.2231 10.612 33.8297C10.612 32.4364 11.7056 31.3428 13.099 31.3428H21.27C15.2565 25.332 8.49774 18.5787 0.861406 10.9477V10.9423V10.945C-0.0836851 17.7119 -3.3186 49.0025 14.0441 66.3652C25.7848 78.0573 43.7928 80.3957 56.3787 80.3957C62.4948 80.3957 67.3175 79.8476 69.5074 79.5505C66.7883 76.8287 62.9512 72.9916 56.1195 66.1654V66.1654Z" fill="#FF9C9C" fill-opacity="0.98"/>
<path d="M94.7737 76.0753C97.4955 73.3534 101.338 69.5164 108.153 62.6928V38.8036C108.153 37.4103 109.247 36.3167 110.64 36.3167C112.034 36.3167 113.127 37.4103 113.127 38.8036V57.7135C116.003 54.8351 119.3 51.5353 123.078 47.755V23.5309C123.078 22.1889 124.171 21.044 125.565 21.044C126.958 21.044 128.052 22.1889 128.052 23.5309V42.7757C131.087 39.7379 134.392 36.4301 138.002 32.8144V19.6507C138.002 18.2573 139.096 17.1637 140.489 17.1637C141.882 17.1637 142.976 18.2573 142.976 19.6507V27.8351C148.987 21.819 155.743 15.0548 163.374 7.41308C163.376 7.41308 163.403 7.41848 163.412 7.41848C163.395 7.41578 163.39 7.41578 163.374 7.41308C156.658 6.46799 125.316 3.28438 107.954 20.5957C90.591 38.007 93.8745 69.4003 94.771 76.0645C94.771 76.0699 94.771 76.0699 94.7737 76.0753V76.0753Z" fill="#FF9C9C" fill-opacity="0.98"/>
<path d="M164.378 7.57245C164.511 7.59405 164.608 7.60755 164.648 7.61025C164.597 7.60755 164.481 7.58865 164.378 7.57245Z" fill="#FF9C9C" fill-opacity="0.98"/>
<path d="M166.906 10.945V10.9423V10.945C159.269 18.576 152.511 25.332 146.497 31.3428H154.668C156.062 31.3428 157.155 32.4364 157.155 33.8297C157.155 35.2231 156.062 36.3167 154.668 36.3167H141.518C137.905 39.9269 134.597 43.232 131.562 46.2671H150.788C152.133 46.2671 153.275 47.3607 153.275 48.7541C153.275 50.1474 152.133 51.241 150.788 51.241H126.583C122.802 55.0187 119.503 58.3157 116.627 61.1915H135.515C136.909 61.1915 138.002 62.2851 138.002 63.6784C138.002 65.0717 136.909 66.1653 135.515 66.1653H111.65C104.819 72.9916 100.979 76.8287 98.2571 79.5478C100.447 79.8476 105.27 80.393 111.386 80.393C123.972 80.393 141.98 78.0546 153.72 66.3625C171.086 49.0025 167.851 17.7092 166.906 10.945V10.945Z" fill="#FF9C9C" fill-opacity="0.98"/>
<path d="M166.743 9.91416C166.733 9.85284 166.725 9.79152 166.719 9.75153C166.727 9.79952 166.73 9.83684 166.743 9.91416Z" fill="#FF9C9C" fill-opacity="0.98"/>
<path d="M106.552 125.366H104.162C101.225 119.131 95.7917 114.492 89.3354 112.453C95.8376 49.4588 69.0726 11.6984 67.7468 9.87573C67.7468 9.87573 84.9717 49.3427 77.4623 111.73C69.7477 113.161 63.0915 118.213 59.7216 125.366H57.3319C49.5983 125.366 43.2689 131.695 43.2689 139.429C43.2689 147.162 49.5983 153.727 57.3319 153.727H106.552C114.286 153.727 120.615 147.162 120.615 139.429C120.615 131.695 114.286 125.366 106.552 125.366Z" fill="#FF9C9C" fill-opacity="0.98"/>
<path d="M13.1435 3.03796C20.7745 10.6797 27.5305 17.4438 33.5413 23.46V15.2755C33.5413 13.8822 34.6349 12.7886 36.0282 12.7886C37.4216 12.7886 38.5152 13.8822 38.5152 15.2755V28.4393C42.1254 32.0523 45.4305 35.3628 48.4656 38.4006V19.1558C48.4656 17.8138 49.5592 16.6689 50.9526 16.6689C52.3459 16.6689 53.4395 17.8138 53.4395 19.1558V43.3798C57.2172 47.1602 60.5142 50.4599 63.39 53.3384V34.4285C63.39 33.0351 64.4836 31.9415 65.8769 31.9415C67.2702 31.9415 68.3638 33.0351 68.3638 34.4285V58.3177C75.182 65.1385 79.0218 68.9783 81.7436 71.7002C81.7436 71.6948 81.7436 71.6948 81.7463 71.6894C82.6428 65.0251 85.9263 33.6319 68.5637 16.2206C51.201 -1.09074 19.8591 2.09287 13.1435 3.03796C13.1273 3.03796 13.1219 3.04066 13.1057 3.04336C13.1138 3.04336 13.1381 3.03796 13.1435 3.03796V3.03796Z" fill="#FF0000"/>
<path d="M11.8717 3.23507C11.9095 3.23237 12.0067 3.21887 12.1417 3.19727C12.0364 3.21347 11.9203 3.23237 11.8717 3.23507Z" fill="#FF0000"/>
<path d="M9.77368 5.53897C9.78701 5.45899 9.78968 5.42167 9.79768 5.37634C9.79234 5.41633 9.78168 5.48032 9.77368 5.53897Z" fill="#FF0000"/>
<path d="M64.8698 61.7902H41.0049C39.6115 61.7902 38.5179 60.6939 38.5179 59.3033C38.5179 57.91 39.6115 56.8164 41.0049 56.8164H59.8932C57.0174 53.9406 53.7177 50.6436 49.9373 46.8659H25.7295C24.3848 46.8659 23.2426 45.7723 23.2426 44.379C23.2426 42.9856 24.3848 41.892 25.7295 41.892H44.9554C41.9176 38.8569 38.6097 35.5518 34.9995 31.9415H21.8492C20.4559 31.9415 19.3623 30.8479 19.3623 29.4546C19.3623 28.0613 20.4559 26.9677 21.8492 26.9677H30.0202C24.0067 20.9569 17.248 14.2035 9.61165 6.5726V6.5672V6.5699C8.66656 13.3368 5.43165 44.6274 22.7943 61.99C34.5351 73.6822 52.5431 76.0206 65.129 76.0206C71.2451 76.0206 76.0677 75.4725 78.2577 75.1754C75.5385 72.4536 71.7014 68.6165 64.8698 61.7902V61.7902Z" fill="#FF0000"/>
<path d="M103.524 71.7002C106.246 68.9783 110.088 65.1412 116.904 58.3177V34.4285C116.904 33.0351 117.997 31.9415 119.391 31.9415C120.784 31.9415 121.878 33.0351 121.878 34.4285V53.3384C124.753 50.4599 128.05 47.1602 131.828 43.3798V19.1558C131.828 17.8138 132.922 16.6689 134.315 16.6689C135.708 16.6689 136.802 17.8138 136.802 19.1558V38.4006C139.837 35.3628 143.142 32.055 146.752 28.4393V15.2755C146.752 13.8822 147.846 12.7886 149.239 12.7886C150.633 12.7886 151.726 13.8822 151.726 15.2755V23.46C157.737 17.4438 164.493 10.6797 172.124 3.03796C172.127 3.03796 172.154 3.04336 172.162 3.04336C172.146 3.04066 172.14 3.04066 172.124 3.03796C165.409 2.09287 134.067 -1.09074 116.704 16.2206C99.3413 33.6319 102.625 65.0251 103.521 71.6894C103.521 71.6948 103.521 71.6948 103.524 71.7002V71.7002Z" fill="#FF0000"/>
<path d="M173.129 3.19727C173.261 3.21887 173.358 3.23237 173.399 3.23507C173.347 3.23237 173.231 3.21347 173.129 3.19727Z" fill="#FF0000"/>
<path d="M175.656 6.5699V6.5672V6.5699C168.02 14.2008 161.261 20.9569 155.247 26.9677H163.418C164.812 26.9677 165.905 28.0613 165.905 29.4546C165.905 30.8479 164.812 31.9415 163.418 31.9415H150.268C146.655 35.5518 143.347 38.8569 140.312 41.892H159.538C160.883 41.892 162.025 42.9856 162.025 44.3789C162.025 45.7723 160.883 46.8659 159.538 46.8659H135.333C131.553 50.6435 128.253 53.9406 125.377 56.8163H144.266C145.659 56.8163 146.752 57.9099 146.752 59.3033C146.752 60.6966 145.659 61.7902 144.266 61.7902H120.401C113.569 68.6165 109.729 72.4535 107.007 75.1727C109.197 75.4724 114.02 76.0179 120.136 76.0179C132.722 76.0179 150.73 73.6795 162.471 61.9873C179.836 44.6274 176.601 13.3341 175.656 6.5699V6.5699Z" fill="#FF0000"/>
<path d="M175.494 5.53897C175.483 5.47765 175.475 5.41633 175.47 5.37634C175.478 5.42433 175.48 5.46166 175.494 5.53897Z" fill="#FF0000"/>
<path d="M115.303 120.991H112.913C109.975 114.756 104.542 110.117 98.0857 108.078C104.588 45.0837 77.823 7.32329 76.4971 5.50061C76.4971 5.50061 93.7221 44.9676 86.2127 107.354C78.498 108.786 71.8419 113.838 68.472 120.991H66.0822C58.3487 120.991 52.0193 127.32 52.0193 135.054C52.0193 142.787 58.3487 149.352 66.0822 149.352H115.303C123.036 149.352 129.366 142.787 129.366 135.054C129.366 127.32 123.036 120.991 115.303 120.991Z" fill="#FF0000"/>
<path d="M8.76839 0.850396C16.3993 8.49213 23.1554 15.2563 29.1662 21.2725V13.088C29.1662 11.6946 30.2598 10.601 31.6531 10.601C33.0464 10.601 34.14 11.6946 34.14 13.088V26.2517C37.7503 29.8647 41.0554 33.1752 44.0905 36.213V16.9682C44.0905 15.6262 45.1841 14.4813 46.5774 14.4813C47.9708 14.4813 49.0644 15.6262 49.0644 16.9682V41.1923C52.842 44.9726 56.1391 48.2724 59.0148 51.1508V32.2409C59.0148 30.8476 60.1084 29.754 61.5018 29.754C62.8951 29.754 63.9887 30.8476 63.9887 32.2409V56.1301C70.8069 62.951 74.6466 66.7907 77.3685 69.5126C77.3685 69.5072 77.3685 69.5072 77.3712 69.5018C78.2677 62.8376 81.5512 31.4443 64.1885 14.0331C46.8259 -3.2783 15.4839 -0.0946953 8.76839 0.850396C8.75219 0.850396 8.74679 0.853096 8.73059 0.855796C8.73869 0.855796 8.76299 0.850396 8.76839 0.850396V0.850396Z" fill="#1D1D1D"/>
<path d="M7.4967 1.04751C7.53451 1.04481 7.63172 1.03131 7.76673 1.0097C7.66142 1.02591 7.54531 1.04481 7.4967 1.04751Z" fill="#2F7CBA"/>
<path d="M5.39856 3.35141C5.41189 3.27143 5.41456 3.23411 5.42255 3.18878C5.41722 3.22877 5.40656 3.29276 5.39856 3.35141Z" fill="#2F7CBA"/>
<path d="M60.4946 59.6027H36.6297C35.2364 59.6027 34.1428 58.5064 34.1428 57.1157C34.1428 55.7224 35.2364 54.6288 36.6297 54.6288H55.5181C52.6423 51.753 49.3426 48.456 45.5622 44.6783H21.3544C20.0097 44.6783 18.8674 43.5847 18.8674 42.1914C18.8674 40.7981 20.0097 39.7045 21.3544 39.7045H40.5802C37.5424 36.6694 34.2346 33.3642 30.6244 29.754H17.4741C16.0808 29.754 14.9872 28.6604 14.9872 27.267C14.9872 25.8737 16.0808 24.7801 17.4741 24.7801H25.6451C19.6316 18.7693 12.8729 12.016 5.23653 4.38504V4.37964V4.38234C4.29144 11.1492 1.05653 42.4398 18.4192 59.8025C30.1599 71.4946 48.168 73.833 60.7539 73.833C66.87 73.833 71.6926 73.2849 73.8825 72.9879C71.1634 70.266 67.3263 66.4289 60.4946 59.6027V59.6027Z" fill="#1D1D1D"/>
<path d="M99.1489 69.5126C101.871 66.7907 105.713 62.9537 112.529 56.1301V32.2409C112.529 30.8476 113.622 29.754 115.016 29.754C116.409 29.754 117.503 30.8476 117.503 32.2409V51.1508C120.378 48.2724 123.675 44.9726 127.453 41.1923V16.9682C127.453 15.6262 128.547 14.4813 129.94 14.4813C131.333 14.4813 132.427 15.6262 132.427 16.9682V36.213C135.462 33.1752 138.767 29.8674 142.377 26.2517V13.088C142.377 11.6946 143.471 10.601 144.864 10.601C146.258 10.601 147.351 11.6946 147.351 13.088V21.2725C153.362 15.2563 160.118 8.49213 167.749 0.850396C167.752 0.850396 167.779 0.855796 167.787 0.855796C167.771 0.853096 167.765 0.853096 167.749 0.850396C161.033 -0.0946953 129.692 -3.2783 112.329 14.0331C94.9662 31.4443 98.2497 62.8376 99.1462 69.5018C99.1462 69.5072 99.1462 69.5072 99.1489 69.5126V69.5126Z" fill="#1D1D1D"/>
<path d="M168.753 1.0097C168.886 1.03131 168.983 1.04481 169.023 1.04751C168.972 1.04481 168.856 1.02591 168.753 1.0097Z" fill="#2F7CBA"/>
<path d="M171.281 4.38234V4.37964V4.38234C163.645 12.0133 156.886 18.7693 150.872 24.7801H159.043C160.437 24.7801 161.53 25.8737 161.53 27.267C161.53 28.6604 160.437 29.754 159.043 29.754H145.893C142.28 33.3642 138.972 36.6693 135.937 39.7044H155.163C156.508 39.7044 157.65 40.798 157.65 42.1914C157.65 43.5847 156.508 44.6783 155.163 44.6783H130.958C127.178 48.456 123.878 51.753 121.002 54.6288H139.89C141.284 54.6288 142.377 55.7224 142.377 57.1157C142.377 58.5091 141.284 59.6027 139.89 59.6027H116.025C109.194 66.4289 105.354 70.266 102.632 72.9851C104.822 73.2849 109.645 73.8303 115.761 73.8303C128.347 73.8303 146.355 71.4919 158.096 59.7998C175.461 42.4398 172.226 11.1465 171.281 4.38234V4.38234Z" fill="#1D1D1D"/>
<path d="M171.119 3.35141C171.108 3.29009 171.1 3.22877 171.095 3.18878C171.103 3.23677 171.105 3.2741 171.119 3.35141Z" fill="#2F7CBA"/>
<path d="M110.927 118.803H108.538C105.6 112.568 100.167 107.929 93.7106 105.891C100.213 42.8962 73.4479 5.13572 72.122 3.31305C72.122 3.31305 89.347 42.78 81.8376 105.167C74.1229 106.598 67.4668 111.65 64.0968 118.803H61.7071C53.9736 118.803 47.6442 125.133 47.6442 132.866C47.6442 140.6 53.9736 147.164 61.7071 147.164H110.927C118.661 147.164 124.99 140.6 124.99 132.866C124.99 125.133 118.661 118.803 110.927 118.803Z" fill="#1D1D1D"/>
</svg>
