<svg width="75" height="76" viewBox="0 0 75 76" fill="none" xmlns="http://www.w3.org/2000/svg">
<path d="M38.5153 3.25781C48.5274 3.25781 57.5924 7.31655 64.1532 13.878C70.7147 20.4391 74.7734 29.5039 74.7734 39.5156C74.7734 49.5274 70.7147 58.5924 64.1532 65.1532C57.5924 71.7147 48.5274 75.7734 38.5153 75.7734C28.5039 75.7734 19.4388 71.7147 12.878 65.1536C6.31686 58.5924 2.25781 49.5277 2.25781 39.5156C2.25781 29.5036 6.31686 20.4391 12.878 13.878C19.4388 7.31686 28.5039 3.25781 38.5153 3.25781V3.25781ZM61.5905 16.4407C55.686 10.5356 47.5268 6.88237 38.5153 6.88237C29.5039 6.88237 21.3456 10.5356 15.4407 16.4407C9.53527 22.3456 5.88207 30.5045 5.88207 39.5156C5.88207 48.5268 9.53527 56.6857 15.441 62.5905C21.3459 68.4957 29.5042 72.1486 38.5156 72.1486C47.5271 72.1486 55.6863 68.4957 61.5908 62.5905C67.4963 56.6857 71.1489 48.5268 71.1489 39.5156C71.1489 30.5045 67.496 22.3456 61.5905 16.4407V16.4407Z" fill="#FF9C9C" fill-opacity="0.98"/>
<path d="M64.9311 44.9713H12.1001V44.9732C11.9618 44.9732 11.822 44.9911 11.6818 45.0286C10.8174 45.2593 10.304 46.148 10.5344 47.0121C12.2309 53.3423 15.9502 58.7112 20.8855 62.4973C21.2277 62.7593 21.5753 63.0137 21.9284 63.2614L21.9784 63.298C22.5646 63.706 23.1661 64.0923 23.7828 64.4558L23.8221 64.479L24.0348 64.603L24.0585 64.6173L24.288 64.7471L24.2886 64.7477L24.2968 64.7526L24.5363 64.8866L24.5433 64.8903L24.6572 64.9527L24.7776 65.0177L24.7995 65.0295L24.8985 65.0825L25.0198 65.1471L25.0576 65.1673L25.1414 65.2108L25.2636 65.2739L25.3857 65.3364L25.5079 65.3982L25.631 65.4597L25.7544 65.5204C28.8741 67.0542 32.293 68.0377 35.8737 68.364L36.0114 68.3759L36.1488 68.3878L36.2872 68.3991L36.3813 68.4061L36.4255 68.4091L36.5638 68.4186L36.6842 68.4268L36.7028 68.4274L36.8411 68.4356L36.9806 68.4433L36.9876 68.4439L37.1193 68.4503L37.2582 68.4567L37.2926 68.4579L37.3164 68.4585L37.537 68.4673L37.597 68.4691L37.6762 68.4716L37.8158 68.4752L37.9029 68.4771L37.9559 68.4783L38.0958 68.4807L38.2091 68.4826H38.2359L38.3758 68.4838H38.5156H38.6555L38.796 68.4826H38.8222L38.9358 68.4807L39.076 68.4783L39.129 68.4771L39.2158 68.4752L39.3547 68.4716L39.4346 68.4691L39.4946 68.4673L39.7146 68.4585L39.739 68.4579L39.7728 68.4567L39.9123 68.4503L40.0433 68.4439L40.051 68.4433L40.1896 68.4356L40.3285 68.4274L40.3471 68.4268L40.4669 68.4186L40.6058 68.4091L40.65 68.4061L40.7441 68.3991L40.8825 68.3878L41.0199 68.3759L41.1576 68.364C44.7304 68.0383 48.1432 67.0584 51.2583 65.5298L51.3808 65.4692C51.5036 65.4083 51.6257 65.347 51.747 65.2846L51.868 65.2215L51.9892 65.1584L52.1102 65.0944L52.2305 65.0295L52.3509 64.9646L52.4709 64.8991L52.4877 64.8903L52.509 64.8784C52.672 64.7876 52.8347 64.6959 52.9965 64.6033L53.0651 64.5634L53.2485 64.4558L53.3006 64.4247C53.534 64.2867 53.7656 64.1435 53.9956 63.9991L53.9974 63.9979C54.3429 63.7791 54.6836 63.5539 55.019 63.3211C55.0507 63.3004 55.0809 63.2788 55.112 63.2553L55.119 63.2492C55.4672 63.0058 55.8097 62.7556 56.1461 62.497C61.0567 58.7295 64.763 53.395 66.471 47.1054C66.5247 46.9439 66.5533 46.7723 66.5533 46.5929C66.5527 45.698 65.8266 44.9713 64.9311 44.9713V44.9713ZM49.0076 63.0079L48.932 63.0411L48.8564 63.0744L48.7803 63.1076L48.7044 63.1402L48.6282 63.1728L48.552 63.2054L48.4759 63.2374L48.3988 63.2694L48.3564 63.287L48.322 63.3013L48.2458 63.333L48.1684 63.3647L48.1151 63.386L48.0914 63.3949C47.9378 63.4573 47.7839 63.5168 47.6291 63.5759L47.6279 63.5765C45.3483 64.4403 42.9233 64.9872 40.4129 65.1706L40.3785 65.173C40.2143 65.1849 40.0497 65.195 39.8849 65.2041L39.8739 65.2047C39.6299 65.2172 39.3855 65.2261 39.1396 65.2321L39.0604 65.2346L39.0153 65.2352L38.7889 65.2382L38.7658 65.2389L38.6406 65.2395L38.5153 65.2401L38.3901 65.2395L38.2655 65.2389L38.2423 65.2382L38.016 65.2352L37.9706 65.2346L37.8913 65.2321C37.6458 65.2267 37.4005 65.2172 37.1567 65.2047L37.1461 65.2041C36.9806 65.1953 36.8167 65.1849 36.6522 65.173L36.6171 65.1706C34.1074 64.9866 31.6824 64.4397 29.4027 63.5765L29.4015 63.5759C29.2467 63.5171 29.0923 63.4573 28.9387 63.3949L28.9155 63.386L28.8619 63.3647L28.7851 63.333L28.709 63.3013L28.6736 63.287L28.6319 63.2694L28.5551 63.2374L28.4789 63.2054L28.4021 63.1728L28.3263 63.1402L28.2507 63.1076L28.1745 63.0744L28.099 63.0411L28.0231 63.0079C27.3172 62.6917 26.6267 62.344 25.9543 61.9671C27.4924 61.1052 29.1215 60.3992 30.8183 59.8672C33.257 59.1024 35.8454 58.6939 38.5144 58.6939C41.1844 58.6939 43.7724 59.1024 46.2105 59.8672C47.9082 60.3992 49.5374 61.1052 51.0755 61.9671C50.4039 62.3446 49.7135 62.6914 49.0076 63.0079V63.0079ZM61.9184 50.2056C54.0901 51.148 46.2946 51.6154 38.5153 51.6141C30.737 51.6129 22.9415 51.1419 15.1129 50.2056C14.8173 49.5575 14.5465 48.8939 14.3027 48.2153H62.7273C62.4848 48.8939 62.2136 49.5575 61.9184 50.2056V50.2056Z" fill="#FF9C9C" fill-opacity="0.98"/>
<path d="M25.6325 36.853C28.0892 36.853 30.0807 34.5229 30.0807 31.6486C30.0807 28.7743 28.0892 26.4442 25.6325 26.4442C23.1759 26.4442 21.1844 28.7743 21.1844 31.6486C21.1844 34.5229 23.1759 36.853 25.6325 36.853Z" fill="#FF9C9C" fill-opacity="0.98"/>
<path d="M51.3984 36.853C53.8551 36.853 55.8466 34.5229 55.8466 31.6486C55.8466 28.7743 53.8551 26.4442 51.3984 26.4442C48.9418 26.4442 46.9503 28.7743 46.9503 31.6486C46.9503 34.5229 48.9418 36.853 51.3984 36.853Z" fill="#FF9C9C" fill-opacity="0.98"/>
<path d="M37.5153 1.25781C47.5274 1.25781 56.5924 5.31655 63.1532 11.878C69.7147 18.4391 73.7734 27.5039 73.7734 37.5156C73.7734 47.5274 69.7147 56.5924 63.1532 63.1532C56.5924 69.7147 47.5274 73.7734 37.5153 73.7734C27.5039 73.7734 18.4388 69.7147 11.878 63.1536C5.31686 56.5924 1.25781 47.5277 1.25781 37.5156C1.25781 27.5036 5.31686 18.4391 11.878 11.878C18.4388 5.31686 27.5039 1.25781 37.5153 1.25781V1.25781ZM60.5905 14.4407C54.686 8.53558 46.5268 4.88237 37.5153 4.88237C28.5039 4.88237 20.3456 8.53558 14.4407 14.4407C8.53527 20.3456 4.88207 28.5045 4.88207 37.5156C4.88207 46.5268 8.53527 54.6857 14.441 60.5905C20.3459 66.4957 28.5042 70.1486 37.5156 70.1486C46.5271 70.1486 54.6863 66.4957 60.5908 60.5905C66.4963 54.6857 70.1489 46.5268 70.1489 37.5156C70.1489 28.5045 66.496 20.3456 60.5905 14.4407V14.4407Z" fill="#FF0000"/>
<path d="M63.9311 42.9713H11.1001V42.9732C10.9618 42.9732 10.822 42.9911 10.6818 43.0286C9.81741 43.2593 9.30401 44.148 9.53435 45.0121C11.2309 51.3423 14.9502 56.7112 19.8855 60.4973C20.2277 60.7593 20.5753 61.0137 20.9284 61.2614L20.9784 61.298C21.5646 61.706 22.1661 62.0923 22.7828 62.4558L22.8221 62.479L23.0348 62.603L23.0585 62.6173L23.288 62.7471L23.2886 62.7477L23.2968 62.7526L23.5363 62.8866L23.5433 62.8903L23.6572 62.9527L23.7776 63.0177L23.7995 63.0295L23.8985 63.0825L24.0198 63.1471L24.0576 63.1673L24.1414 63.2108L24.2636 63.2739L24.3857 63.3364L24.5079 63.3982L24.631 63.4597L24.7544 63.5204C27.8741 65.0542 31.293 66.0377 34.8737 66.364L35.0114 66.3759L35.1488 66.3878L35.2872 66.3991L35.3813 66.4061L35.4255 66.4091L35.5638 66.4186L35.6842 66.4268L35.7028 66.4274L35.8411 66.4356L35.9806 66.4433L35.9876 66.4439L36.1193 66.4503L36.2582 66.4567L36.2926 66.4579L36.3164 66.4585L36.537 66.4673L36.597 66.4691L36.6762 66.4716L36.8158 66.4752L36.9029 66.4771L36.9559 66.4783L37.0958 66.4807L37.2091 66.4826H37.2359L37.3758 66.4838H37.5156H37.6555L37.796 66.4826H37.8222L37.9358 66.4807L38.076 66.4783L38.129 66.4771L38.2158 66.4752L38.3547 66.4716L38.4346 66.4691L38.4946 66.4673L38.7146 66.4585L38.739 66.4579L38.7728 66.4567L38.9123 66.4503L39.0433 66.4439L39.051 66.4433L39.1896 66.4356L39.3285 66.4274L39.3471 66.4268L39.4669 66.4186L39.6058 66.4091L39.65 66.4061L39.7441 66.3991L39.8825 66.3878L40.0199 66.3759L40.1576 66.364C43.7304 66.0383 47.1432 65.0584 50.2583 63.5298L50.3808 63.4692C50.5036 63.4083 50.6257 63.347 50.747 63.2846L50.868 63.2215L50.9892 63.1584L51.1102 63.0944L51.2305 63.0295L51.3509 62.9646L51.4709 62.8991L51.4877 62.8903L51.509 62.8784C51.672 62.7876 51.8347 62.6959 51.9965 62.6033L52.0651 62.5634L52.2485 62.4558L52.3006 62.4247C52.534 62.2867 52.7656 62.1435 52.9956 61.9991L52.9974 61.9979C53.3429 61.7791 53.6836 61.5539 54.019 61.3211C54.0507 61.3004 54.0809 61.2788 54.112 61.2553L54.119 61.2492C54.4672 61.0058 54.8097 60.7556 55.1461 60.497C60.0567 56.7295 63.763 51.395 65.471 45.1054C65.5247 44.9439 65.5533 44.7723 65.5533 44.5929C65.5527 43.698 64.8266 42.9713 63.9311 42.9713V42.9713ZM48.0076 61.0079L47.932 61.0411L47.8564 61.0744L47.7803 61.1076L47.7044 61.1402L47.6282 61.1728L47.552 61.2054L47.4759 61.2374L47.3988 61.2694L47.3564 61.287L47.322 61.3013L47.2458 61.333L47.1684 61.3647L47.1151 61.386L47.0914 61.3949C46.9378 61.4573 46.7839 61.5168 46.6291 61.5759L46.6279 61.5765C44.3483 62.4403 41.9233 62.9872 39.4129 63.1706L39.3785 63.173C39.2143 63.1849 39.0497 63.195 38.8849 63.2041L38.8739 63.2047C38.6299 63.2172 38.3855 63.2261 38.1396 63.2321L38.0604 63.2346L38.0153 63.2352L37.7889 63.2382L37.7658 63.2389L37.6406 63.2395L37.5153 63.2401L37.3901 63.2395L37.2655 63.2389L37.2423 63.2382L37.016 63.2352L36.9706 63.2346L36.8913 63.2321C36.6458 63.2267 36.4005 63.2172 36.1567 63.2047L36.1461 63.2041C35.9806 63.1953 35.8167 63.1849 35.6522 63.173L35.6171 63.1706C33.1074 62.9866 30.6824 62.4397 28.4027 61.5765L28.4015 61.5759C28.2467 61.5171 28.0923 61.4573 27.9387 61.3949L27.9155 61.386L27.8619 61.3647L27.7851 61.333L27.709 61.3013L27.6736 61.287L27.6319 61.2694L27.5551 61.2374L27.4789 61.2054L27.4021 61.1728L27.3263 61.1402L27.2507 61.1076L27.1745 61.0744L27.099 61.0411L27.0231 61.0079C26.3172 60.6917 25.6267 60.344 24.9543 59.9671C26.4924 59.1052 28.1215 58.3992 29.8183 57.8672C32.257 57.1024 34.8454 56.6939 37.5144 56.6939C40.1844 56.6939 42.7724 57.1024 45.2105 57.8672C46.9082 58.3992 48.5374 59.1052 50.0755 59.9671C49.4039 60.3446 48.7135 60.6914 48.0076 61.0079V61.0079ZM60.9184 48.2056C53.0901 49.148 45.2946 49.6154 37.5153 49.6141C29.737 49.6129 21.9415 49.1419 14.1129 48.2056C13.8173 47.5575 13.5465 46.8939 13.3027 46.2153H61.7273C61.4848 46.8939 61.2136 47.5575 60.9184 48.2056V48.2056Z" fill="#FF0000"/>
<path d="M24.6325 34.853C27.0892 34.853 29.0807 32.5229 29.0807 29.6486C29.0807 26.7743 27.0892 24.4442 24.6325 24.4442C22.1759 24.4442 20.1844 26.7743 20.1844 29.6486C20.1844 32.5229 22.1759 34.853 24.6325 34.853Z" fill="#FF0000"/>
<path d="M50.3984 34.853C52.8551 34.853 54.8466 32.5229 54.8466 29.6486C54.8466 26.7743 52.8551 24.4442 50.3984 24.4442C47.9418 24.4442 45.9503 26.7743 45.9503 29.6486C45.9503 32.5229 47.9418 34.853 50.3984 34.853Z" fill="#FF0000"/>
<path d="M36.2575 0C46.2695 0 55.3346 4.05874 61.8954 10.6202C68.4569 17.1813 72.5156 26.2461 72.5156 36.2578C72.5156 46.2695 68.4569 55.3346 61.8954 61.8954C55.3346 68.4569 46.2695 72.5156 36.2575 72.5156C26.2461 72.5156 17.181 68.4569 10.6202 61.8957C4.05905 55.3346 0 46.2698 0 36.2578C0 26.2458 4.05905 17.1813 10.6202 10.6202C17.181 4.05905 26.2461 0 36.2575 0V0ZM59.3327 13.1829C53.4282 7.27776 45.2689 3.62456 36.2575 3.62456C27.2461 3.62456 19.0878 7.27776 13.1829 13.1829C7.27746 19.0878 3.62426 27.2467 3.62426 36.2578C3.62426 45.2689 7.27746 53.4279 13.1832 59.3327C19.0881 65.2379 27.2464 68.8908 36.2578 68.8908C45.2693 68.8908 53.4285 65.2379 59.333 59.3327C65.2385 53.4279 68.8911 45.2689 68.8911 36.2578C68.8911 27.2467 65.2382 19.0878 59.3327 13.1829V13.1829Z" fill="#1D1D1D"/>
<path d="M62.6733 41.7135H9.84233V41.7154C9.704 41.7154 9.56415 41.7333 9.42399 41.7708C8.5596 42.0015 8.0462 42.8902 8.27654 43.7543C9.97304 50.0845 13.6924 55.4534 18.6277 59.2395C18.9699 59.5015 19.3175 59.7559 19.6706 60.0036L19.7206 60.0402C20.3068 60.4482 20.9083 60.8345 21.525 61.198L21.5643 61.2211L21.7769 61.3452L21.8007 61.3595L22.0301 61.4893L22.0307 61.4899L22.039 61.4948L22.2785 61.6288L22.2855 61.6325L22.3994 61.6949L22.5198 61.7598L22.5417 61.7717L22.6407 61.8247L22.762 61.8893L22.7998 61.9094L22.8836 61.953L23.0057 62.0161L23.1279 62.0785L23.2501 62.1404L23.3732 62.2019L23.4966 62.2626C26.6163 63.7964 30.0352 64.7799 33.6159 65.1062L33.7536 65.1181L33.891 65.13L34.0293 65.1413L34.1235 65.1483L34.1677 65.1513L34.306 65.1608L34.4264 65.169L34.4449 65.1696L34.5833 65.1778L34.7228 65.1854L34.7298 65.186L34.8614 65.1924L35.0004 65.1988L35.0348 65.2001L35.0586 65.2007L35.2792 65.2095L35.3392 65.2113L35.4184 65.2138L35.558 65.2174L35.6451 65.2193L35.6981 65.2205L35.838 65.2229L35.9513 65.2247H35.9781L36.118 65.226H36.2578H36.3977L36.5381 65.2247H36.5643L36.678 65.2229L36.8181 65.2205L36.8712 65.2193L36.958 65.2174L37.0969 65.2138L37.1768 65.2113L37.2368 65.2095L37.4568 65.2007L37.4811 65.2001L37.515 65.1988L37.6545 65.1924L37.7855 65.186L37.7931 65.1854L37.9318 65.1778L38.0707 65.1696L38.0893 65.169L38.209 65.1608L38.348 65.1513L38.3922 65.1483L38.4863 65.1413L38.6246 65.13L38.7621 65.1181L38.8998 65.1062C42.4725 64.7805 45.8853 63.8006 49.0005 62.272L49.123 62.2114C49.2457 62.1504 49.3679 62.0892 49.4892 62.0267L49.6101 61.9637L49.7314 61.9006L49.8524 61.8366L49.9727 61.7717L50.0931 61.7068L50.2131 61.6413L50.2299 61.6325L50.2512 61.6206C50.4142 61.5298 50.5769 61.4381 50.7387 61.3455L50.8073 61.3055L50.9907 61.198L51.0428 61.1669C51.2762 61.0289 51.5077 60.8857 51.7378 60.7413L51.7396 60.74C52.0851 60.5213 52.4258 60.2961 52.7612 60.0633C52.7929 60.0426 52.8231 60.021 52.8542 59.9975L52.8612 59.9914C53.2094 59.748 53.5519 59.4978 53.8883 59.2392C58.7989 55.4717 62.5051 50.1372 64.2132 43.8476C64.2668 43.6861 64.2955 43.5145 64.2955 43.3351C64.2949 42.4402 63.5688 41.7135 62.6733 41.7135V41.7135ZM46.7497 59.7501L46.6742 59.7833L46.5986 59.8165L46.5224 59.8497L46.4466 59.8824L46.3704 59.915L46.2942 59.9476L46.2181 59.9795L46.141 60.0115L46.0986 60.0292L46.0642 60.0435L45.988 60.0752L45.9106 60.1069L45.8573 60.1282L45.8335 60.1371C45.68 60.1995 45.5261 60.2589 45.3713 60.3181L45.3701 60.3187C43.0904 61.1825 40.6654 61.7294 38.1551 61.9128L38.1207 61.9152C37.9565 61.9271 37.7919 61.9372 37.6271 61.9463L37.6161 61.9469C37.3721 61.9594 37.1277 61.9682 36.8818 61.9743L36.8026 61.9768L36.7575 61.9774L36.5311 61.9804L36.508 61.981L36.3828 61.9816L36.2575 61.9823L36.1323 61.9816L36.0077 61.981L35.9845 61.9804L35.7581 61.9774L35.7127 61.9768L35.6335 61.9743C35.3879 61.9689 35.1427 61.9594 34.8989 61.9469L34.8883 61.9463C34.7228 61.9375 34.5589 61.9271 34.3944 61.9152L34.3593 61.9128C31.8496 61.7288 29.4246 61.1818 27.1449 60.3187L27.1437 60.3181C26.9889 60.2592 26.8345 60.1995 26.6809 60.1371L26.6577 60.1282L26.6041 60.1069L26.5273 60.0752L26.4512 60.0435L26.4158 60.0292L26.3741 60.0115L26.2973 59.9795L26.2211 59.9476L26.1443 59.915L26.0685 59.8824L25.9929 59.8497L25.9167 59.8165L25.8412 59.7833L25.7653 59.7501C25.0593 59.4339 24.3689 59.0862 23.6965 58.7093C25.2345 57.8473 26.8637 57.1414 28.5605 56.6094C30.9992 55.8446 33.5875 55.436 36.2566 55.436C38.9266 55.436 41.5146 55.8446 43.9527 56.6094C45.6504 57.1414 47.2796 57.8473 48.8177 58.7093C48.1461 59.0868 47.4557 59.4335 46.7497 59.7501V59.7501ZM59.6606 46.9478C51.8322 47.8902 44.0368 48.3575 36.2575 48.3563C28.4792 48.3551 20.6837 47.8841 12.8551 46.9478C12.5595 46.2997 12.2887 45.6361 12.0449 44.9575H60.4695C60.227 45.6361 59.9558 46.2997 59.6606 46.9478V46.9478Z" fill="#1D1D1D"/>
<path d="M23.3747 33.5951C25.8313 33.5951 27.8228 31.2651 27.8228 28.3908C27.8228 25.5165 25.8313 23.1864 23.3747 23.1864C20.9181 23.1864 18.9266 25.5165 18.9266 28.3908C18.9266 31.2651 20.9181 33.5951 23.3747 33.5951Z" fill="#1D1D1D"/>
<path d="M49.1406 33.5951C51.5972 33.5951 53.5887 31.2651 53.5887 28.3908C53.5887 25.5165 51.5972 23.1864 49.1406 23.1864C46.684 23.1864 44.6925 25.5165 44.6925 28.3908C44.6925 31.2651 46.684 33.5951 49.1406 33.5951Z" fill="#1D1D1D"/>
</svg>
