<svg width="188" height="190" viewBox="0 0 188 190" fill="none" xmlns="http://www.w3.org/2000/svg">
<path d="M96.461 8.15915C121.536 8.15915 144.239 18.3242 160.671 34.7572C177.104 51.1895 187.269 73.8921 187.269 98.9663C187.269 124.041 177.104 146.744 160.671 163.175C144.239 179.608 121.536 189.773 96.461 189.773C71.3876 189.773 48.6843 179.608 32.2528 163.176C15.8205 146.744 5.65466 124.041 5.65466 98.9663C5.65466 73.8913 15.8205 51.1895 32.2528 34.7572C48.6843 18.325 71.3876 8.15915 96.461 8.15915V8.15915ZM154.253 41.1756C139.465 26.3862 119.03 17.2368 96.461 17.2368C73.892 17.2368 53.4597 26.3862 38.6711 41.1756C23.881 55.9641 14.7316 76.398 14.7316 98.9663C14.7316 121.535 23.881 141.968 38.6718 156.757C53.4604 171.546 73.8928 180.695 96.4618 180.695C119.031 180.695 139.465 171.546 154.253 156.757C169.043 141.968 178.191 121.535 178.191 98.9663C178.191 76.398 169.043 55.9641 154.253 41.1756V41.1756Z" fill="#FF9C9C" fill-opacity="0.98"/>
<path d="M162.619 112.63H30.3046V112.635C29.9582 112.635 29.6079 112.68 29.2569 112.774C27.092 113.351 25.8062 115.577 26.3831 117.741C30.632 133.595 39.947 147.041 52.3074 156.524C53.1644 157.18 54.0351 157.817 54.9195 158.437L55.0446 158.529C56.5128 159.551 58.0191 160.518 59.5636 161.429L59.6621 161.487L60.1947 161.797L60.2542 161.833L60.8288 162.158L60.8303 162.16L60.8509 162.172L61.4507 162.508L61.4683 162.517L61.7537 162.673L62.0551 162.836L62.11 162.866L62.358 162.998L62.6617 163.16L62.7564 163.21L62.9662 163.32L63.2722 163.478L63.5782 163.634L63.8842 163.789L64.1925 163.943L64.5015 164.095C72.3148 167.936 80.8774 170.399 89.8451 171.217L90.19 171.246L90.5342 171.276L90.8806 171.304L91.1164 171.322L91.2271 171.33L91.5735 171.353L91.8749 171.374L91.9215 171.375L92.2679 171.396L92.6174 171.415L92.635 171.417L92.9646 171.433L93.3126 171.449L93.3988 171.452L93.4583 171.453L94.0108 171.475L94.1611 171.48L94.3596 171.486L94.709 171.495L94.9273 171.5L95.0601 171.503L95.4103 171.509L95.6942 171.514H95.7613L96.1116 171.517H96.4618H96.8121L97.1639 171.514H97.2295L97.5141 171.509L97.8652 171.503L97.9979 171.5L98.2154 171.495L98.5634 171.486L98.7633 171.48L98.9136 171.475L99.4646 171.453L99.5256 171.452L99.6103 171.449L99.9598 171.433L100.288 171.417L100.307 171.415L100.654 171.396L101.002 171.375L101.049 171.374L101.349 171.353L101.697 171.33L101.807 171.322L102.043 171.304L102.389 171.276L102.734 171.246L103.079 171.217C112.027 170.401 120.574 167.947 128.376 164.119L128.682 163.967C128.99 163.814 129.296 163.661 129.6 163.504L129.903 163.346L130.206 163.188L130.509 163.028L130.811 162.866L131.112 162.703L131.413 162.539L131.455 162.517L131.508 162.487C131.916 162.26 132.324 162.03 132.729 161.798L132.901 161.698L133.36 161.429L133.491 161.351C134.075 161.005 134.655 160.646 135.231 160.285L135.236 160.282C136.101 159.734 136.954 159.17 137.794 158.587C137.874 158.535 137.949 158.481 138.027 158.422L138.045 158.407C138.917 157.797 139.775 157.171 140.617 156.523C152.916 147.087 162.198 133.727 166.476 117.975C166.61 117.57 166.682 117.141 166.682 116.691C166.68 114.45 164.862 112.63 162.619 112.63V112.63ZM122.739 157.802L122.549 157.886L122.36 157.969L122.169 158.052L121.979 158.134L121.789 158.215L121.598 158.297L121.407 158.377L121.214 158.457L121.108 158.501L121.022 158.537L120.831 158.617L120.637 158.696L120.504 158.749L120.444 158.772C120.059 158.928 119.674 159.077 119.286 159.225L119.283 159.226C113.574 161.39 107.501 162.759 101.214 163.219L101.127 163.225C100.716 163.255 100.304 163.28 99.8912 163.303L99.8637 163.304C99.2524 163.336 98.6405 163.358 98.0247 163.373L97.8262 163.379L97.7133 163.381L97.1463 163.388L97.0883 163.39L96.7747 163.391L96.4611 163.393L96.1475 163.391L95.8354 163.39L95.7774 163.388L95.2104 163.381L95.0967 163.379L94.8983 163.373C94.2832 163.359 93.669 163.336 93.0585 163.304L93.0318 163.303C92.6174 163.281 92.2069 163.255 91.7948 163.225L91.7071 163.219C85.4215 162.758 79.3481 161.388 73.6387 159.226L73.6357 159.225C73.248 159.078 72.8611 158.928 72.4766 158.772L72.4186 158.749L72.2843 158.696L72.092 158.617L71.9012 158.537L71.8127 158.501L71.7081 158.457L71.5158 158.377L71.3251 158.297L71.1328 158.215L70.9427 158.134L70.7535 158.052L70.5627 157.969L70.3735 157.886L70.1835 157.802C68.4154 157.01 66.6863 156.14 65.0021 155.196C68.8542 153.037 72.9344 151.269 77.184 149.937C83.2918 148.021 89.7742 146.998 96.4588 146.998C103.146 146.998 109.627 148.021 115.734 149.937C119.985 151.269 124.066 153.037 127.918 155.196C126.236 156.141 124.507 157.01 122.739 157.802V157.802ZM155.074 125.739C135.468 128.099 115.944 129.27 96.4611 129.267C76.9803 129.264 57.4567 128.084 37.85 125.739C37.1098 124.116 36.4314 122.454 35.821 120.755H157.1C156.492 122.454 155.813 124.116 155.074 125.739V125.739Z" fill="#FF9C9C" fill-opacity="0.98"/>
<path d="M64.1962 92.2977C70.3488 92.2977 75.3365 86.462 75.3365 79.2634C75.3365 72.0648 70.3488 66.2292 64.1962 66.2292C58.0436 66.2292 53.0559 72.0648 53.0559 79.2634C53.0559 86.462 58.0436 92.2977 64.1962 92.2977Z" fill="#FF9C9C" fill-opacity="0.98"/>
<path d="M128.727 92.2977C134.879 92.2977 139.867 86.462 139.867 79.2634C139.867 72.0648 134.879 66.2292 128.727 66.2292C122.574 66.2292 117.586 72.0648 117.586 79.2634C117.586 86.462 122.574 92.2977 128.727 92.2977Z" fill="#FF9C9C" fill-opacity="0.98"/>
<path d="M93.9565 3.15016C119.032 3.15016 141.735 13.3152 158.166 29.7483C174.599 46.1805 184.764 68.8831 184.764 93.9573C184.764 119.032 174.599 141.735 158.166 158.166C141.735 174.599 119.032 184.764 93.9565 184.764C68.8831 184.764 46.1798 174.599 29.7482 158.167C13.316 141.735 3.15015 119.032 3.15015 93.9573C3.15015 68.8823 13.316 46.1805 29.7482 29.7483C46.1798 13.316 68.8831 3.15016 93.9565 3.15016V3.15016ZM151.748 36.1666C136.96 21.3772 116.526 12.2278 93.9565 12.2278C71.3875 12.2278 50.9551 21.3772 36.1666 36.1666C21.3764 50.9552 12.227 71.3891 12.227 93.9573C12.227 116.526 21.3764 136.959 36.1673 151.748C50.9559 166.537 71.3883 175.686 93.9573 175.686C116.526 175.686 136.961 166.537 151.749 151.748C166.539 136.959 175.687 116.526 175.687 93.9573C175.687 71.3891 166.538 50.9552 151.748 36.1666V36.1666Z" fill="#FF0000"/>
<path d="M160.115 107.621H27.8001V107.626C27.4537 107.626 27.1034 107.671 26.7524 107.765C24.5875 108.342 23.3017 110.568 23.8786 112.732C28.1275 128.586 37.4425 142.032 49.8029 151.514C50.6599 152.171 51.5305 152.808 52.415 153.428L52.5401 153.52C54.0083 154.542 55.5146 155.509 57.0591 156.42L57.1575 156.478L57.6902 156.788L57.7497 156.824L58.3243 157.149L58.3258 157.151L58.3464 157.163L58.9462 157.499L58.9638 157.508L59.2492 157.664L59.5506 157.827L59.6055 157.856L59.8535 157.989L60.1572 158.151L60.2519 158.201L60.4617 158.311L60.7677 158.468L61.0737 158.625L61.3797 158.78L61.688 158.934L61.997 159.086C69.8103 162.927 78.3728 165.39 87.3406 166.208L87.6855 166.237L88.0297 166.267L88.3761 166.295L88.6119 166.313L88.7226 166.321L89.069 166.344L89.3704 166.365L89.417 166.366L89.7634 166.387L90.1129 166.406L90.1305 166.408L90.4601 166.424L90.8081 166.44L90.8943 166.443L90.9538 166.444L91.5063 166.466L91.6566 166.471L91.855 166.477L92.2045 166.486L92.4228 166.491L92.5555 166.494L92.9058 166.5L93.1897 166.505H93.2568L93.6071 166.508H93.9573H94.3076L94.6594 166.505H94.725L95.0096 166.5L95.3606 166.494L95.4934 166.491L95.7109 166.486L96.0589 166.477L96.2588 166.471L96.4091 166.466L96.9601 166.444L97.0211 166.443L97.1058 166.44L97.4553 166.424L97.7834 166.408L97.8025 166.406L98.1497 166.387L98.4977 166.366L98.5442 166.365L98.8441 166.344L99.1921 166.321L99.3027 166.313L99.5385 166.295L99.885 166.267L100.229 166.237L100.574 166.208C109.522 165.392 118.069 162.938 125.871 159.109L126.178 158.958C126.485 158.805 126.791 158.652 127.095 158.495L127.398 158.337L127.702 158.179L128.005 158.019L128.306 157.856L128.608 157.694L128.908 157.53L128.95 157.508L129.004 157.478C129.412 157.251 129.819 157.021 130.224 156.789L130.396 156.689L130.856 156.42L130.986 156.342C131.571 155.996 132.151 155.637 132.727 155.276L132.731 155.273C133.597 154.725 134.45 154.161 135.29 153.578C135.369 153.526 135.445 153.472 135.523 153.413L135.54 153.398C136.412 152.788 137.27 152.162 138.113 151.514C150.411 142.078 159.693 128.718 163.971 112.966C164.105 112.561 164.177 112.132 164.177 111.682C164.176 109.441 162.357 107.621 160.115 107.621V107.621ZM120.234 152.793L120.045 152.877L119.856 152.96L119.665 153.043L119.475 153.125L119.284 153.206L119.093 153.288L118.903 153.368L118.71 153.448L118.603 153.492L118.517 153.528L118.326 153.608L118.133 153.687L117.999 153.74L117.94 153.763C117.555 153.919 117.17 154.068 116.782 154.216L116.779 154.217C111.07 156.381 104.996 157.75 98.7091 158.21L98.6228 158.216C98.2115 158.246 97.7995 158.271 97.3866 158.294L97.3592 158.295C96.7479 158.327 96.1359 158.349 95.5201 158.364L95.3217 158.37L95.2088 158.372L94.6418 158.379L94.5838 158.381L94.2702 158.382L93.9566 158.384L93.6429 158.382L93.3308 158.381L93.2728 158.379L92.7059 158.372L92.5922 158.37L92.3938 158.364C91.7787 158.35 91.1644 158.327 90.554 158.295L90.5273 158.294C90.1129 158.272 89.7024 158.246 89.2903 158.216L89.2025 158.21C82.917 157.749 76.8436 156.379 71.1342 154.217L71.1312 154.216C70.7435 154.069 70.3566 153.919 69.972 153.763L69.914 153.74L69.7797 153.687L69.5874 153.608L69.3967 153.528L69.3081 153.492L69.2036 153.448L69.0113 153.368L68.8205 153.288L68.6282 153.206L68.4382 153.125L68.249 153.043L68.0582 152.96L67.869 152.877L67.679 152.793C65.9109 152.001 64.1817 151.131 62.4976 150.187C66.3497 148.028 70.4299 146.26 74.6795 144.928C80.7872 143.012 87.2697 141.989 93.9543 141.989C100.641 141.989 107.123 143.012 113.229 144.928C117.481 146.26 121.561 148.028 125.413 150.187C123.731 151.132 122.002 152.001 120.234 152.793V152.793ZM152.569 120.73C132.963 123.09 113.44 124.261 93.9566 124.258C74.4758 124.255 54.9522 123.075 35.3455 120.73C34.6053 119.107 33.9269 117.445 33.3165 115.746H154.595C153.988 117.445 153.309 119.107 152.569 120.73V120.73Z" fill="#FF0000"/>
<path d="M61.6918 87.2886C67.8444 87.2886 72.8321 81.453 72.8321 74.2544C72.8321 67.0558 67.8444 61.2201 61.6918 61.2201C55.5392 61.2201 50.5515 67.0558 50.5515 74.2544C50.5515 81.453 55.5392 87.2886 61.6918 87.2886Z" fill="#FF0000"/>
<path d="M126.222 87.2886C132.375 87.2886 137.362 81.453 137.362 74.2544C137.362 67.0558 132.375 61.2201 126.222 61.2201C120.069 61.2201 115.082 67.0558 115.082 74.2544C115.082 81.453 120.069 87.2886 126.222 87.2886Z" fill="#FF0000"/>
<path d="M90.8064 0C115.881 0 138.585 10.1651 155.016 26.5981C171.449 43.0304 181.614 65.7329 181.614 90.8071C181.614 115.881 171.449 138.585 155.016 155.016C138.585 171.449 115.881 181.614 90.8064 181.614C65.7329 181.614 43.0296 171.449 26.5981 155.017C10.1658 138.585 0 115.882 0 90.8071C0 65.7322 10.1658 43.0304 26.5981 26.5981C43.0296 10.1658 65.7329 0 90.8064 0V0ZM148.598 33.0164C133.81 18.2271 113.375 9.07766 90.8064 9.07766C68.2374 9.07766 47.805 18.2271 33.0164 33.0164C18.2263 47.805 9.0769 68.2389 9.0769 90.8071C9.0769 113.375 18.2263 133.809 33.0172 148.598C47.8058 163.387 68.2381 172.536 90.8071 172.536C113.376 172.536 133.811 163.387 148.599 148.598C163.389 133.809 172.537 113.375 172.537 90.8071C172.537 68.2389 163.388 47.805 148.598 33.0164V33.0164Z" fill="#1D1D1D"/>
<path d="M156.964 104.471H24.65V104.475C24.3035 104.475 23.9533 104.521 23.6023 104.614C21.4374 105.192 20.1516 107.418 20.7285 109.582C24.9773 125.436 34.2923 138.882 46.6528 148.364C47.5097 149.021 48.3804 149.658 49.2648 150.278L49.39 150.37C50.8581 151.391 52.3645 152.359 53.909 153.269L54.0074 153.327L54.54 153.638L54.5995 153.674L55.1742 153.999L55.1757 154L55.1963 154.013L55.7961 154.348L55.8136 154.358L56.099 154.514L56.4004 154.677L56.4554 154.706L56.7034 154.839L57.0071 155.001L57.1017 155.051L57.3116 155.16L57.6175 155.318L57.9235 155.475L58.2295 155.63L58.5378 155.784L58.8469 155.936C66.6601 159.777 75.2227 162.24 84.1905 163.058L84.5354 163.087L84.8795 163.117L85.226 163.145L85.4618 163.163L85.5724 163.17L85.9189 163.194L86.2203 163.215L86.2668 163.216L86.6133 163.237L86.9628 163.256L86.9803 163.257L87.31 163.273L87.6579 163.29L87.7442 163.293L87.8037 163.294L88.3562 163.316L88.5065 163.321L88.7049 163.327L89.0544 163.336L89.2726 163.341L89.4054 163.344L89.7557 163.35L90.0395 163.354H90.1067L90.4569 163.357H90.8072H91.1574L91.5092 163.354H91.5748L91.8595 163.35L92.2105 163.344L92.3433 163.341L92.5608 163.336L92.9087 163.327L93.1087 163.321L93.259 163.316L93.8099 163.294L93.871 163.293L93.9557 163.29L94.3052 163.273L94.6333 163.257L94.6524 163.256L94.9996 163.237L95.3475 163.216L95.3941 163.215L95.694 163.194L96.042 163.17L96.1526 163.163L96.3884 163.145L96.7348 163.117L97.079 163.087L97.4239 163.058C106.372 162.242 114.919 159.788 122.721 155.959L123.028 155.807C123.335 155.655 123.641 155.501 123.945 155.345L124.248 155.187L124.552 155.029L124.855 154.869L125.156 154.706L125.457 154.544L125.758 154.38L125.8 154.358L125.853 154.328C126.262 154.1 126.669 153.871 127.074 153.639L127.246 153.539L127.705 153.269L127.836 153.192C128.42 152.846 129 152.487 129.577 152.126L129.581 152.123C130.446 151.575 131.3 151.011 132.14 150.428C132.219 150.376 132.295 150.322 132.372 150.263L132.39 150.248C133.262 149.638 134.12 149.011 134.962 148.364C147.261 138.928 156.543 125.568 160.821 109.816C160.955 109.411 161.027 108.981 161.027 108.532C161.026 106.291 159.207 104.471 156.964 104.471V104.471ZM117.084 149.643L116.895 149.726L116.706 149.81L116.515 149.893L116.325 149.974L116.134 150.056L115.943 150.138L115.752 150.218L115.559 150.298L115.453 150.342L115.367 150.378L115.176 150.457L114.982 150.537L114.849 150.59L114.789 150.612C114.405 150.769 114.019 150.918 113.632 151.066L113.629 151.067C107.919 153.231 101.846 154.6 95.5589 155.06L95.4727 155.066C95.0614 155.096 94.6493 155.121 94.2365 155.144L94.209 155.145C93.5978 155.176 92.9858 155.199 92.37 155.214L92.1716 155.22L92.0586 155.221L91.4917 155.229L91.4337 155.231L91.1201 155.232L90.8064 155.234L90.4928 155.232L90.1807 155.231L90.1227 155.229L89.5557 155.221L89.442 155.22L89.2436 155.214C88.6286 155.2 88.0143 155.176 87.4038 155.145L87.3771 155.144C86.9628 155.121 86.5522 155.096 86.1402 155.066L86.0524 155.06C79.7669 154.599 73.6935 153.229 67.9841 151.067L67.981 151.066C67.5934 150.918 67.2065 150.769 66.8219 150.612L66.7639 150.59L66.6296 150.537L66.4373 150.457L66.2465 150.378L66.158 150.342L66.0535 150.298L65.8612 150.218L65.6704 150.138L65.4781 150.056L65.2881 149.974L65.0988 149.893L64.9081 149.81L64.7188 149.726L64.5288 149.643C62.7607 148.851 61.0316 147.98 59.3475 147.037C63.1995 144.878 67.2797 143.11 71.5294 141.777C77.6371 139.862 84.1195 138.839 90.8041 138.839C97.4911 138.839 103.973 139.862 110.079 141.777C114.331 143.11 118.411 144.878 122.263 147.037C120.581 147.982 118.852 148.85 117.084 149.643V149.643ZM149.419 117.58C129.813 119.94 110.29 121.111 90.8064 121.108C71.3256 121.105 51.8021 119.925 32.1954 117.58C31.4552 115.957 30.7768 114.295 30.1663 112.595H151.445C150.838 114.295 150.158 115.957 149.419 117.58V117.58Z" fill="#1D1D1D"/>
<path d="M58.5416 84.1385C64.6942 84.1385 69.6819 78.3029 69.6819 71.1042C69.6819 63.9056 64.6942 58.07 58.5416 58.07C52.389 58.07 47.4013 63.9056 47.4013 71.1042C47.4013 78.3029 52.389 84.1385 58.5416 84.1385Z" fill="#1D1D1D"/>
<path d="M123.072 84.1385C129.224 84.1385 134.212 78.3029 134.212 71.1042C134.212 63.9056 129.224 58.07 123.072 58.07C116.919 58.07 111.932 63.9056 111.932 71.1042C111.932 78.3029 116.919 84.1385 123.072 84.1385Z" fill="#1D1D1D"/>
</svg>
