<svg width="29" height="28" viewBox="0 0 29 28" fill="none" xmlns="http://www.w3.org/2000/svg">
<path d="M6.88056 24.8943L6.88056 3.44034C6.88056 3.18942 7.0091 3.06396 7.13765 2.9385C8.03748 2.31119 9.06585 1.80934 10.2228 1.43296C10.3513 1.3075 10.6084 1.43296 10.737 1.43296C10.8655 1.55842 10.994 1.68388 10.994 1.9348L10.9941 26.2743C10.9941 26.5253 10.8655 26.6507 10.737 26.7762C10.6084 26.9017 10.3513 26.9017 10.2228 26.9017C9.06585 26.5253 8.03748 26.0234 7.13765 25.3961C7.0091 25.2707 6.88056 25.1452 6.88056 24.8943Z" fill="#1D1D1D"/>
<path d="M12.7937 27.0271L12.7937 1.43295C12.7937 1.18202 13.0508 0.931099 13.3079 0.805638C13.822 0.680176 14.3362 0.680176 14.8504 0.680176C15.3646 0.680176 15.8788 0.680176 16.393 0.805637C16.6501 0.805637 16.9072 1.05656 16.9072 1.43295L16.9072 27.0271C16.9072 27.278 16.6501 27.529 16.393 27.529C15.8788 27.529 15.3646 27.6544 14.8504 27.6544C14.3362 27.6544 13.822 27.6544 13.3079 27.529C13.0508 27.529 12.7937 27.278 12.7937 27.0271Z" fill="#1D1D1D"/>
<path d="M18.5784 26.3998L18.5784 2.06024C18.5784 1.80931 18.7069 1.68385 18.8355 1.55839C18.964 1.43293 19.2211 1.43293 19.3496 1.55839C20.5066 1.80931 21.5349 2.43662 22.5633 3.06393C22.6919 3.18939 22.8204 3.31485 22.8204 3.56578L22.8204 25.0197C22.8204 25.1452 22.6919 25.3961 22.5633 25.5216C21.5349 26.1489 20.5066 26.6507 19.4782 27.0271C19.2211 27.1526 19.0926 27.0271 18.964 26.9016C18.7069 26.6507 18.5784 26.5252 18.5784 26.3998Z" fill="#1D1D1D"/>
<path d="M0.967409 14.23C0.967409 11.0935 2.12433 8.08238 4.05253 5.69861C4.18108 5.57315 4.56672 5.44769 4.69526 5.57315C4.95236 5.69861 5.0809 5.82407 5.0809 6.07499L5.0809 22.5105C5.0809 22.7614 4.95236 23.0123 4.69526 23.0123C4.43817 23.1378 4.18108 23.0123 4.05253 22.7614C2.12433 20.3776 0.967409 17.3665 0.967409 14.23Z" fill="#1D1D1D"/>
<path d="M24.4915 22.385L24.4915 5.94957C24.4915 5.69864 24.62 5.57318 24.8771 5.44772C25.1342 5.32226 25.3913 5.44772 25.5198 5.57318C27.5766 7.95695 28.605 10.968 28.605 14.1046C28.605 17.2411 27.448 20.2522 25.5198 22.636C25.3913 22.8869 25.1342 22.8869 24.8771 22.8869C24.62 22.8869 24.4915 22.636 24.4915 22.385Z" fill="#1D1D1D"/>
</svg>
