<svg width="62" height="62" viewBox="0 0 62 62" fill="none" xmlns="http://www.w3.org/2000/svg">
<path d="M21.8891 44.0663L21.8891 18.2684C21.8891 17.9667 22.04 17.8158 22.1909 17.665C23.2469 16.9106 24.4538 16.3072 25.8116 15.8546C25.9625 15.7037 26.2642 15.8546 26.4151 15.8546C26.5659 16.0055 26.7168 16.1563 26.7168 16.458L26.7168 45.7258C26.7168 46.0275 26.566 46.1784 26.4151 46.3292C26.2642 46.4801 25.9625 46.4801 25.8116 46.4801C24.4538 46.0275 23.2469 45.424 22.1909 44.6697C22.04 44.5189 21.8891 44.368 21.8891 44.0663Z" fill="#1D1D1D"/>
<path d="M28.8289 46.6309L28.8289 15.8546C28.8289 15.5528 29.1306 15.2511 29.4324 15.1002C30.0358 14.9494 30.6393 14.9494 31.2427 14.9494C31.8462 14.9494 32.4497 14.9494 33.0531 15.1002C33.3548 15.1002 33.6566 15.402 33.6566 15.8546L33.6566 46.6309C33.6566 46.9327 33.3548 47.2344 33.0531 47.2344C32.4497 47.2344 31.8462 47.3853 31.2427 47.3853C30.6393 47.3853 30.0358 47.3853 29.4324 47.2344C29.1306 47.2344 28.8289 46.9327 28.8289 46.6309Z" fill="#1D1D1D"/>
<path d="M35.6179 45.8766L35.6179 16.6089C35.6179 16.3072 35.7687 16.1563 35.9196 16.0055C36.0705 15.8546 36.3722 15.8546 36.5231 16.0055C37.8808 16.3072 39.0878 17.0615 40.2947 17.8158C40.4455 17.9667 40.5964 18.1176 40.5964 18.4193L40.5964 44.2171C40.5964 44.368 40.4455 44.6697 40.2947 44.8206C39.0878 45.5749 37.8809 46.1784 36.6739 46.631C36.3722 46.7818 36.2213 46.631 36.0705 46.4801C35.7687 46.1784 35.6179 46.0275 35.6179 45.8766Z" fill="#1D1D1D"/>
<path d="M14.9493 31.2427C14.9493 27.4711 16.3071 23.8504 18.5701 20.984C18.721 20.8331 19.1736 20.6822 19.3244 20.8331C19.6262 20.984 19.777 21.1348 19.777 21.4365L19.777 41.1998C19.777 41.5015 19.6262 41.8033 19.3244 41.8033C19.0227 41.9541 18.721 41.8033 18.5701 41.5015C16.3071 38.6351 14.9493 35.0144 14.9493 31.2427Z" fill="#1D1D1D"/>
<path d="M42.5576 41.049L42.5576 21.2857C42.5576 20.984 42.7085 20.8331 43.0102 20.6822C43.3119 20.5314 43.6136 20.6822 43.7645 20.8331C46.1783 23.6995 47.3853 27.3203 47.3853 31.0919C47.3853 34.8635 46.0275 38.4843 43.7645 41.3507C43.6136 41.6524 43.3119 41.6524 43.0102 41.6524C42.7085 41.6524 42.5576 41.3507 42.5576 41.049Z" fill="#1D1D1D"/>
</svg>
