<svg width="45" height="46" viewBox="0 0 45 46" fill="none" xmlns="http://www.w3.org/2000/svg">
<path d="M10.7673 41.1121L10.7673 6.97631C10.7673 6.57707 10.9669 6.37744 11.1666 6.17782C12.5639 5.1797 14.1609 4.3812 15.9575 3.78233C16.1572 3.5827 16.5564 3.78233 16.756 3.78233C16.9557 3.98195 17.1553 4.18157 17.1553 4.58082L17.1553 43.3079C17.1553 43.7072 16.9557 43.9068 16.756 44.1064C16.5564 44.3061 16.1572 44.3061 15.9575 44.3061C14.1609 43.7072 12.5639 42.9087 11.1666 41.9106C10.9669 41.7109 10.7673 41.5113 10.7673 41.1121Z" fill="#FF0000"/>
<path d="M19.95 44.5056L19.95 3.78228C19.95 3.38303 20.3493 2.98378 20.7485 2.78416C21.547 2.58453 22.3455 2.58453 23.144 2.58453C23.9425 2.58453 24.741 2.58453 25.5395 2.78416C25.9387 2.78416 26.338 3.18341 26.338 3.78228L26.338 44.5056C26.338 44.9049 25.9387 45.3041 25.5395 45.3041C24.741 45.3041 23.9425 45.5038 23.144 45.5038C22.3455 45.5038 21.547 45.5038 20.7485 45.3041C20.3493 45.3041 19.95 44.9049 19.95 44.5056Z" fill="#FF0000"/>
<path d="M28.9332 43.5075L28.9332 4.78037C28.9332 4.38112 29.1328 4.1815 29.3324 3.98187C29.5321 3.78225 29.9313 3.78225 30.1309 3.98187C31.9276 4.38112 33.5246 5.37924 35.1215 6.37736C35.3212 6.57699 35.5208 6.77661 35.5208 7.17586L35.5208 41.3116C35.5208 41.5112 35.3212 41.9105 35.1216 42.1101C33.5246 43.1082 31.9276 43.9067 30.3306 44.5056C29.9313 44.7052 29.7317 44.5056 29.5321 44.306C29.1328 43.9067 28.9332 43.7071 28.9332 43.5075Z" fill="#FF0000"/>
<path d="M1.58456 24.1439C1.58456 19.1533 3.38118 14.3623 6.37554 10.5695C6.57517 10.3699 7.17404 10.1702 7.37366 10.3699C7.77291 10.5695 7.97253 10.7691 7.97253 11.1684L7.97254 37.3191C7.97254 37.7184 7.77291 38.1176 7.37366 38.1176C6.97442 38.3173 6.57517 38.1176 6.37554 37.7184C3.38118 33.9255 1.58456 29.1345 1.58456 24.1439Z" fill="#FF0000"/>
<path d="M38.1158 37.1196L38.1158 10.9688C38.1158 10.5695 38.3155 10.3699 38.7147 10.1703C39.114 9.97065 39.5132 10.1703 39.7128 10.3699C42.9068 14.1628 44.5038 18.9537 44.5038 23.9443C44.5038 28.935 42.7072 33.7259 39.7128 37.5188C39.5132 37.9181 39.114 37.9181 38.7147 37.9181C38.3155 37.9181 38.1158 37.5188 38.1158 37.1196Z" fill="#FF0000"/>
<path d="M9.76731 39.1121L9.76731 4.97631C9.76731 4.57707 9.96694 4.37744 10.1666 4.17782C11.5639 3.1797 13.1609 2.3812 14.9575 1.78233C15.1572 1.5827 15.5564 1.78233 15.756 1.78233C15.9557 1.98195 16.1553 2.18157 16.1553 2.58082L16.1553 41.3079C16.1553 41.7072 15.9557 41.9068 15.756 42.1064C15.5564 42.3061 15.1572 42.3061 14.9575 42.3061C13.1609 41.7072 11.5639 40.9087 10.1666 39.9106C9.96694 39.7109 9.76731 39.5113 9.76731 39.1121Z" fill="#1D1D1D"/>
<path d="M18.95 42.5056L18.95 1.78228C18.95 1.38303 19.3493 0.983783 19.7485 0.784158C20.547 0.584534 21.3455 0.584534 22.144 0.584534C22.9425 0.584534 23.741 0.584534 24.5395 0.784158C24.9387 0.784158 25.338 1.18341 25.338 1.78228L25.338 42.5056C25.338 42.9049 24.9387 43.3041 24.5395 43.3041C23.741 43.3041 22.9425 43.5038 22.144 43.5038C21.3455 43.5038 20.547 43.5038 19.7485 43.3041C19.3493 43.3041 18.95 42.9049 18.95 42.5056Z" fill="#1D1D1D"/>
<path d="M27.9332 41.5075L27.9332 2.78037C27.9332 2.38112 28.1328 2.1815 28.3324 1.98187C28.5321 1.78225 28.9313 1.78225 29.1309 1.98187C30.9276 2.38112 32.5246 3.37924 34.1215 4.37736C34.3212 4.57699 34.5208 4.77661 34.5208 5.17586L34.5208 39.3116C34.5208 39.5112 34.3212 39.9105 34.1216 40.1101C32.5246 41.1082 30.9276 41.9067 29.3306 42.5056C28.9313 42.7052 28.7317 42.5056 28.5321 42.306C28.1328 41.9067 27.9332 41.7071 27.9332 41.5075Z" fill="#1D1D1D"/>
<path d="M0.584557 22.1439C0.584557 17.1533 2.38118 12.3623 5.37554 8.56948C5.57517 8.36986 6.17404 8.17023 6.37366 8.36986C6.77291 8.56948 6.97253 8.76911 6.97253 9.16835L6.97254 35.3191C6.97254 35.7184 6.77291 36.1176 6.37366 36.1176C5.97442 36.3173 5.57517 36.1176 5.37554 35.7184C2.38118 31.9255 0.584558 27.1345 0.584557 22.1439Z" fill="#1D1D1D"/>
<path d="M37.1158 35.1196L37.1158 8.96877C37.1158 8.56952 37.3155 8.3699 37.7147 8.17027C38.114 7.97065 38.5132 8.17027 38.7128 8.3699C41.9068 12.1628 43.5038 16.9537 43.5038 21.9443C43.5038 26.935 41.7072 31.7259 38.7128 35.5188C38.5132 35.9181 38.114 35.9181 37.7147 35.9181C37.3155 35.9181 37.1158 35.5188 37.1158 35.1196Z" fill="#1D1D1D"/>
</svg>
